<svg width="1080" height="1080" viewBox="0 0 1080 1080" fill="none" xmlns="http://www.w3.org/2000/svg">
<g clip-path="url(#clip0_0_392)">
<rect width="1080" height="1080" fill="white"/>
<path d="M1080 0H0V1080H1080V0Z" fill="#91A0F2"/>
<path fill-rule="evenodd" clip-rule="evenodd" d="M0 574C12.5507 587.218 51.5261 597.864 116.926 605.938C215.027 618.049 232.065 588.888 324 614C345.999 620.009 385.01 644.569 427 657C465.398 668.368 506.23 667.178 540 682C572.187 696.127 583.669 726.252 615 733C646.331 739.748 693 730 744 750C795 770 790.95 792.945 882 822C921.209 834.512 987.209 850.178 1080 869V1080H0V574Z" fill="#728CF3"/>
<path fill-rule="evenodd" clip-rule="evenodd" d="M1080 745C1056.86 736.584 1012.86 738.584 948 751C850.704 769.624 826.936 795.964 777 803C727.064 810.036 681 784 657 792C641 797.333 422 893.333 0 1080H1080V745Z" fill="#516DD9"/>
<path fill-rule="evenodd" clip-rule="evenodd" d="M0 716C22.7995 707.893 71.1328 711.226 145 726C255.801 748.16 270.287 776.163 345 785C419.713 793.837 427.51 756.035 517 770C606.49 783.965 633.164 826.345 659 834C684.836 841.655 708 830 733 834C749.667 836.667 865.333 876 1080 952V1080H0V716Z" fill="#2B48B9"/>
<path fill-rule="evenodd" clip-rule="evenodd" d="M214.106 84.1926C230.895 100.86 241.291 123.958 241.291 149.484C241.291 200.294 200.101 241.484 149.291 241.484C123.764 241.484 100.666 231.088 83.999 214.299C95.5229 218.934 108.109 221.484 121.291 221.484C176.519 221.484 221.291 176.713 221.291 121.484C221.291 108.782 218.922 96.6322 214.603 85.4535L214.106 84.1926Z" fill="white"/>
<path fill-rule="evenodd" clip-rule="evenodd" d="M697.207 573.496C688.516 625.043 660.104 669.891 620 700.015V784C620 828.183 584.183 864 540 864C495.817 864 460 828.183 460 784V735.999C368.71 717.468 300 636.758 300 540C300 429.543 389.543 340 500 340C580.464 340 649.829 387.516 681.567 456.02C713.98 456.851 740 483.387 740 516C740 543.157 721.958 566.099 697.207 573.496Z" fill="#C8844D"/>
<path d="M390.531 540.198L382.614 596.533L397.468 605.802" stroke="black" stroke-width="12" stroke-linecap="round" stroke-linejoin="round"/>
<path d="M667.272 531.556C667.272 531.556 671.515 521.657 678.586 514.586C685.657 507.515 695.556 503.272 695.556 503.272" stroke="black" stroke-width="12" stroke-linecap="round" stroke-linejoin="round"/>
<path fill-rule="evenodd" clip-rule="evenodd" d="M460 770.079C321.982 805.603 220 930.891 220 1080C220 1256.73 363.269 1400 540 1400C716.731 1400 860 1256.73 860 1080C860 930.891 758.018 805.603 620 770.079V783.998C620 828.181 584.183 863.998 540 863.998C495.817 863.998 460 828.181 460 783.998V770.079Z" fill="#FFBB4E"/>
<path d="M460 770.079H466C466 768.224 465.142 766.474 463.676 765.337C462.21 764.201 460.301 763.806 458.504 764.269L460 770.079ZM620 770.079L621.496 764.269C619.699 763.806 617.79 764.201 616.324 765.337C614.858 766.474 614 768.224 614 770.079H620ZM226 1080C226 933.695 326.064 810.748 461.496 775.89L458.504 764.269C317.9 800.458 214 928.087 214 1080H226ZM540 1394C366.583 1394 226 1253.42 226 1080H214C214 1260.04 359.955 1406 540 1406V1394ZM854 1080C854 1253.42 713.417 1394 540 1394V1406C720.045 1406 866 1260.04 866 1080H854ZM618.504 775.89C753.936 810.748 854 933.695 854 1080H866C866 928.087 762.1 800.458 621.496 764.269L618.504 775.89ZM614 770.079V783.998H626V770.079H614ZM614 783.998C614 824.867 580.869 857.998 540 857.998V869.998C587.496 869.998 626 831.494 626 783.998H614ZM540 857.998C499.131 857.998 466 824.867 466 783.998H454C454 831.494 492.504 869.998 540 869.998V857.998ZM466 783.998V770.079H454V783.998H466Z" fill="black"/>
<path fill-rule="evenodd" clip-rule="evenodd" d="M460 770C460 770 340 769 280 810C220 851 220 974 220 974C220 974 270.115 931.883 300 926C329.885 920.116 380 942.5 380 942.5C380 942.5 430.847 907.739 460 902C489.153 896.26 540 911 540 911C540 911 570.665 877.287 620 887C669.335 896.713 700 942.5 700 942.5C700 942.5 729.885 916.133 780 926C830.115 935.866 860 974 860 974C860 974 860 851 800 810C740 769 620 770 620 770C620 770 620 864 540 864C460 864 460 770 460 770Z" fill="#FFBB4E" stroke="black" stroke-width="12" stroke-linecap="round" stroke-linejoin="round"/>
<path fill-rule="evenodd" clip-rule="evenodd" d="M809.226 546.749C820.105 557.831 850.076 571.267 869.422 586.336C880.713 595.131 892.763 614.398 892.763 614.398C892.763 614.398 972 645.968 972 702.091C972 758.214 909.347 784.773 909.347 784.773C909.347 784.773 925.318 803.481 925.318 819.349C925.318 835.217 909 857 909 857C909 857 921 864 931 864C941 864 952 859 952 859C952 859 940.945 883.136 925 889C909.055 894.864 876.578 898.512 860 899C843.422 899.488 798.784 908.545 806.155 945.126C813.526 981.706 886.006 997.24 886.006 997.24C886.006 997.24 815.652 1032.35 774.829 1001.75C734.006 971.15 719 888 708 876C697 864 647.53 850.768 636 839C600.926 803.205 620.489 768.578 602.227 741.678C565.831 688.063 563.17 672.026 563 641C562.83 609.974 610 532 602 500C594 468 567.082 468.608 552 447C536.918 425.392 531 373 531 373C531 373 432 361 382 400C332 439 307 477 307 477C307 477 282.116 397.635 296 362C309.884 326.365 368.816 275.152 368.816 275.152C368.816 275.152 407.513 206 535.889 206C664.266 206 730.604 286.677 741.046 314.238C751.488 341.799 759.556 379.755 769.301 415.962C772.139 426.509 783.384 520.427 809.226 546.749Z" fill="#281F1F" stroke="#281F1F" stroke-width="12" stroke-linecap="round" stroke-linejoin="round"/>
<path fill-rule="evenodd" clip-rule="evenodd" d="M435.86 671.014C435.86 671.014 475.572 649.265 494.25 636.148C512.928 623.031 546.774 593.122 546.774 593.122C546.774 593.122 574.506 637.155 529.544 679.28C484.583 721.404 435.86 671.014 435.86 671.014Z" fill="#FF9393" stroke="black" stroke-width="12" stroke-linecap="round" stroke-linejoin="round"/>
<path fill-rule="evenodd" clip-rule="evenodd" d="M447.155 672.577C447.155 672.577 452.034 676.032 455.119 678.371C458.204 680.709 464.449 684.531 464.449 684.531L550.114 618.907C550.114 618.907 549.25 614.414 548.346 611.845C547.442 609.275 544.712 603.55 544.712 603.55C544.712 603.55 515.925 628.247 499.848 639.845C483.772 651.442 447.155 672.577 447.155 672.577Z" fill="white" stroke="white" stroke-width="2" stroke-linecap="round" stroke-linejoin="round"/>
<path d="M424 489.143C424 489.143 439 476 454 476C469 476 484 489.143 484 489.143" stroke="black" stroke-width="8" stroke-linecap="round" stroke-linejoin="round"/>
<path d="M468 500C468 500 453.231 502.728 445.778 507.2C438.325 511.672 428 524 428 524C428 524 438.658 521.6 448.444 521.6C458.231 521.6 468 524 468 524" stroke="black" stroke-width="8" stroke-linecap="round" stroke-linejoin="round"/>
<path d="M316 489.143C316 489.143 331 476 346 476C361 476 376 489.143 376 489.143" stroke="black" stroke-width="8" stroke-linecap="round" stroke-linejoin="round"/>
<path d="M332 500C332 500 346.769 502.728 354.222 507.2C361.675 511.672 372 524 372 524C372 524 361.342 521.6 351.556 521.6C341.769 521.6 332 524 332 524" stroke="black" stroke-width="8" stroke-linecap="round" stroke-linejoin="round"/>
<path fill-rule="evenodd" clip-rule="evenodd" d="M446.72 548.587L412.618 755C412.618 755 500.126 721.282 560.392 684.952C620.658 648.621 664.065 587.391 664.065 587.391V483.389C664.065 472.253 675.158 464.523 685.605 468.379L732.268 485.602C732.268 485.602 779 465.901 779 429.782C779 393.664 732.268 395.853 732.268 395.853V290.78C732.268 290.78 613.543 170.385 408.933 231.677C291.471 297.347 270 422.121 270 422.121V487.791C270 487.791 278.421 561.593 288.945 608.187C299.47 654.781 318.099 745 318.099 745L307.995 538.587L294.843 502.005C290.941 491.152 288.945 479.705 288.945 468.172V460.429H539.025C539.025 504.893 505.527 542.216 461.321 547.005L446.72 548.587Z" fill="#FFD85A" stroke="black" stroke-width="12" stroke-linecap="round" stroke-linejoin="round"/>
<path fill-rule="evenodd" clip-rule="evenodd" d="M246 426.148V449.085L324.344 494.959L329.406 583.432L337.125 602L388 583L400 495L732 342.044V306L337.125 466.561L258.656 418.502L246 426.148Z" fill="#FFD85A" stroke="black" stroke-width="12" stroke-linecap="round" stroke-linejoin="round"/>
<path fill-rule="evenodd" clip-rule="evenodd" d="M80 -8.44891C80 -8.44891 167.458 -25.2491 212.65 -29.223C257.841 -33.1969 316.243 -29.223 316.243 -29.223L332.666 181.798H256.866C256.866 181.798 197.366 99.7087 160.853 60.4336C124.34 21.1585 80 -8.44891 80 -8.44891Z" fill="#FF6262" stroke="black" stroke-width="12" stroke-linecap="round" stroke-linejoin="round"/>
<path fill-rule="evenodd" clip-rule="evenodd" d="M316.243 -29.2229C316.243 -29.2229 365.882 -71.8454 398.359 -90.4518C430.836 -109.058 495.636 -132 495.636 -132C495.636 -132 739.493 -94.3858 832.945 71.3675C926.397 237.121 904.955 594 904.955 594H870.845C870.845 594 845.578 387.352 704.085 174.145C537.326 64.8073 332.666 181.798 332.666 181.798L316.243 -29.2229Z" fill="#FF6262" stroke="black" stroke-width="12" stroke-linecap="round" stroke-linejoin="round"/>
<path fill-rule="evenodd" clip-rule="evenodd" d="M316 236.012L342.553 299C342.553 299 417.155 228.41 524.632 225.152C632.109 221.894 732 295.742 732 295.742C732 295.742 715.562 186.057 571.416 167.595C483.523 155.434 316 236.012 316 236.012Z" fill="#FFD85A" stroke="black" stroke-width="12" stroke-linecap="round" stroke-linejoin="round"/>
<path fill-rule="evenodd" clip-rule="evenodd" d="M277.336 249.295H346.855C346.855 249.295 522.548 160.192 631.251 204.194C739.953 248.195 758.913 378 758.913 378L812 365.9C812 365.9 770.289 152.492 605.971 127.191C441.653 101.89 346.855 179.993 346.855 179.993H247L277.336 249.295Z" fill="#FFD85A" stroke="black" stroke-width="12" stroke-linecap="round" stroke-linejoin="round"/>
</g>
<defs>
<clipPath id="clip0_0_392">
<rect width="1080" height="1080" fill="white"/>
</clipPath>
</defs>
</svg>
