<svg width="1080" height="1080" viewBox="0 0 1080 1080" fill="none" xmlns="http://www.w3.org/2000/svg">
<g clip-path="url(#clip0_0_422)">
<rect width="1080" height="1080" fill="white"/>
<rect width="1080" height="1080" fill="#FFCC6C"/>
<path fill-rule="evenodd" clip-rule="evenodd" d="M697.207 573.496C688.516 625.043 660.104 669.891 620 700.015V784C620 828.183 584.183 864 540 864C495.817 864 460 828.183 460 784V735.999C368.71 717.468 300 636.758 300 540C300 429.543 389.543 340 500 340C580.464 340 649.829 387.516 681.567 456.02C713.98 456.851 740 483.387 740 516C740 543.157 721.958 566.099 697.207 573.496Z" fill="#FDD4BC"/>
<path d="M390.531 540.198L382.614 596.533L397.469 605.802" stroke="black" stroke-width="12" stroke-linecap="round" stroke-linejoin="round"/>
<path d="M667.272 531.557C667.272 531.557 671.515 521.657 678.586 514.586C685.657 507.515 695.556 503.272 695.556 503.272" stroke="black" stroke-width="12" stroke-linecap="round" stroke-linejoin="round"/>
<path fill-rule="evenodd" clip-rule="evenodd" d="M460 770.082C321.982 805.605 220 930.893 220 1080C220 1256.73 363.269 1400 540 1400C716.731 1400 860 1256.73 860 1080C860 930.893 758.018 805.605 620 770.082V784C620 828.183 584.183 864 540 864C495.817 864 460 828.183 460 784V770.082Z" fill="white"/>
<path d="M460 770.082H466C466 768.227 465.142 766.476 463.676 765.34C462.21 764.203 460.301 763.809 458.504 764.271L460 770.082ZM620 770.082L621.496 764.271C619.699 763.809 617.79 764.203 616.324 765.34C614.858 766.476 614 768.227 614 770.082H620ZM226 1080C226 933.697 326.064 810.75 461.496 775.892L458.504 764.271C317.9 800.46 214 928.089 214 1080H226ZM540 1394C366.583 1394 226 1253.42 226 1080H214C214 1260.04 359.955 1406 540 1406V1394ZM854 1080C854 1253.42 713.417 1394 540 1394V1406C720.045 1406 866 1260.04 866 1080H854ZM618.504 775.892C753.936 810.75 854 933.697 854 1080H866C866 928.089 762.1 800.46 621.496 764.271L618.504 775.892ZM614 770.082V784H626V770.082H614ZM614 784C614 824.869 580.869 858 540 858V870C587.496 870 626 831.497 626 784H614ZM540 858C499.131 858 466 824.869 466 784H454C454 831.497 492.504 870 540 870V858ZM466 784V770.082H454V784H466Z" fill="black"/>
<mask id="mask0_0_422" style="mask-type:luminance" maskUnits="userSpaceOnUse" x="214" y="764" width="652" height="642">
<path fill-rule="evenodd" clip-rule="evenodd" d="M460 770.082C321.982 805.605 220 930.893 220 1080C220 1256.73 363.269 1400 540 1400C716.731 1400 860 1256.73 860 1080C860 930.893 758.018 805.605 620 770.082V784C620 828.183 584.183 864 540 864C495.817 864 460 828.183 460 784V770.082Z" fill="white"/>
<path d="M460 770.082H466C466 768.227 465.142 766.476 463.676 765.34C462.21 764.203 460.301 763.809 458.504 764.271L460 770.082ZM620 770.082L621.496 764.271C619.699 763.809 617.79 764.203 616.324 765.34C614.858 766.476 614 768.227 614 770.082H620ZM226 1080C226 933.697 326.064 810.75 461.496 775.892L458.504 764.271C317.9 800.46 214 928.089 214 1080H226ZM540 1394C366.583 1394 226 1253.42 226 1080H214C214 1260.04 359.955 1406 540 1406V1394ZM854 1080C854 1253.42 713.417 1394 540 1394V1406C720.045 1406 866 1260.04 866 1080H854ZM618.504 775.892C753.936 810.75 854 933.697 854 1080H866C866 928.089 762.1 800.46 621.496 764.271L618.504 775.892ZM614 770.082V784H626V770.082H614ZM614 784C614 824.869 580.869 858 540 858V870C587.496 870 626 831.497 626 784H614ZM540 858C499.131 858 466 824.869 466 784H454C454 831.497 492.504 870 540 870V858ZM466 784V770.082H454V784H466Z" fill="white"/>
</mask>
<g mask="url(#mask0_0_422)">
<rect x="220" y="924" width="640" height="16" fill="#FF8E4A"/>
<rect x="220" y="972" width="640" height="16" fill="#FF8E4A"/>
<rect x="220" y="1028" width="640" height="16" fill="#FF8E4A"/>
<rect x="220" y="988" width="640" height="40" fill="#393584"/>
</g>
<path fill-rule="evenodd" clip-rule="evenodd" d="M620 770C620 770 610.005 803.495 590 827C569.995 850.505 540 864 540 864L570 872L584 858L611 860V838L634 831L624 810L634 793L620 770Z" fill="#F9F9F9" stroke="black" stroke-width="12" stroke-linecap="round" stroke-linejoin="round"/>
<path fill-rule="evenodd" clip-rule="evenodd" d="M460 770C460 770 469.995 803.495 490 827C510.005 850.505 540 864 540 864L510 872L496 858L469 860V838L446 831L456 810L446 793L460 770Z" fill="#F9F9F9" stroke="black" stroke-width="12" stroke-linecap="round" stroke-linejoin="round"/>
<path fill-rule="evenodd" clip-rule="evenodd" d="M540 260C645.682 260 739.398 336.845 797.669 455.316L797.663 455.325L801.317 457.535C814.656 465.621 825.273 472.584 829 486C834.005 504.016 833.53 532.4 834.678 552.576L834.685 552.569C836.931 560.504 839.039 568.548 841.003 576.695C850.934 583.971 877.482 612.452 872 632C866.323 652.245 866.59 683.776 872 694L877.81 704.945C898.774 744.331 904.987 755.025 906 767.035C908 790.748 881.677 804.508 885 819C888.323 833.492 919 845.795 922 861.886C925 877.976 912 886.597 912 905C912 923.403 931 933.335 931 961C931 988.665 915.365 992.508 912 1031.26C909.757 1057.1 914.424 1073.34 926 1080L912.973 1079.95C871.152 1079.8 830.831 1079.81 792.011 1079.98L788 1080C745.586 1080.2 703.586 1080.2 662 1080C634 1035.33 623.333 995.667 630 961C640 909 683 912.188 683 887.292C683 862.396 583 806 595 767C607 728 595 711.142 595 653.554C595 595.966 643.33 582.749 651 533.297C658.67 483.846 618.534 509.717 607 465.547C595.466 421.378 619.474 422.921 595 399.491C581.381 386.453 554.511 366.792 514.391 340.51C509.637 340.172 504.839 340 500 340C389.543 340 300 429.543 300 540C300 636.758 368.71 717.468 459.999 735.999L460 740L460.235 741.543C464.072 767.137 467.523 811.528 460 826C452.679 840.083 428 860.89 428 889C428 946.588 330 956 359 996C378.333 1022.67 377.333 1050.67 356 1080H134L135.993 1077.47C157.182 1050.53 168.851 1032.37 171 1023C174.323 1008.51 148 994.748 150 971.035C151.101 957.98 158.346 946.481 184 898C189.41 887.776 189.677 856.245 184 836C178.323 815.755 207 785.928 216 780C224.412 774.459 216.226 721.442 221.652 691.026C238.001 448.933 374.291 260 540 260Z" fill="#543131"/>
<path d="M680 680C680 680 655.477 741.635 664 778C672.523 814.365 700.002 793.67 710 808C719.998 822.33 710 881 710 881" stroke="black" stroke-width="12" stroke-linecap="round" stroke-linejoin="round"/>
<path d="M834.374 826.68C834.374 826.68 793.84 871.044 797.826 903.15C801.812 935.256 838.777 925.324 848.405 939.688C858.033 954.053 835.644 999.725 835.644 999.725" stroke="black" stroke-width="12" stroke-linecap="round" stroke-linejoin="round"/>
<path d="M745.374 963.68C745.374 963.68 704.84 1008.04 708.826 1040.15C712.812 1072.26 749.372 1057.64 759 1072" stroke="black" stroke-width="12" stroke-linecap="round" stroke-linejoin="round"/>
<path d="M262.784 931.243C262.784 931.243 300.768 963.609 295.278 988.636C289.787 1013.66 253.678 1007.76 243.457 1019.34C233.236 1030.91 253.198 1065.16 253.198 1065.16" stroke="black" stroke-width="12" stroke-linecap="round" stroke-linejoin="round"/>
<path d="M311.845 722.019C311.845 722.019 326.073 769.852 307.837 787.851C289.601 805.85 262.533 781.233 247.657 785.374C232.781 789.515 230.867 829.113 230.867 829.113" stroke="black" stroke-width="12" stroke-linecap="round" stroke-linejoin="round"/>
<path d="M767.774 520.11C767.774 520.11 717.069 565.761 723.933 600.513C730.796 635.266 778.607 626.481 791.933 642.433C805.258 658.385 778.341 706.378 778.341 706.378" stroke="black" stroke-width="12" stroke-linecap="round" stroke-linejoin="round"/>
<path d="M355.226 728.11C355.226 728.11 405.931 773.761 399.067 808.513C392.204 843.266 344.393 834.481 331.067 850.433C317.742 866.385 344.659 914.378 344.659 914.378" stroke="black" stroke-width="12" stroke-linecap="round" stroke-linejoin="round"/>
<path d="M604 320C604 320 661.224 341.133 688 372C714.776 402.867 748 486 748 486" stroke="black" stroke-width="12" stroke-linecap="round" stroke-linejoin="round"/>
<path d="M530 329C530 329 576.097 340.33 597.667 356.88C619.236 373.429 646 418 646 418" stroke="black" stroke-width="12" stroke-linecap="round" stroke-linejoin="round"/>
<path d="M255 717C255 717 251.776 686.245 250.114 659.108C248.453 631.972 264.533 582.532 264.533 582.532" stroke="black" stroke-width="12" stroke-linecap="round" stroke-linejoin="round"/>
<path fill-rule="evenodd" clip-rule="evenodd" d="M438.038 672.876C438.038 672.876 481.019 687.321 507 672.321C532.981 657.321 541.962 612.876 541.962 612.876C541.962 612.876 509.517 624.68 499.99 630.18C490.464 635.68 490 642.876 490 642.876C490 642.876 483.536 639.68 474.01 645.18C464.483 650.68 438.038 672.876 438.038 672.876Z" fill="#F27960"/>
<path d="M432.208 672.778C432.208 672.778 477.715 669.598 498.5 657.598C519.285 645.598 544.792 607.778 544.792 607.778" stroke="#9D473C" stroke-width="4" stroke-linecap="round" stroke-linejoin="round"/>
<path fill-rule="evenodd" clip-rule="evenodd" d="M137 919V1166H302V919H137Z" fill="#ECE7E6" stroke="black" stroke-width="12" stroke-linecap="round" stroke-linejoin="round"/>
<path fill-rule="evenodd" clip-rule="evenodd" d="M302 919H389V1166H302V919Z" fill="#C0B9B8" stroke="black" stroke-width="12" stroke-linecap="round" stroke-linejoin="round"/>
<path fill-rule="evenodd" clip-rule="evenodd" d="M137 919L179 835H346L302 919H137Z" fill="#ECE7E6" stroke="black" stroke-width="12" stroke-linecap="round" stroke-linejoin="round"/>
<path fill-rule="evenodd" clip-rule="evenodd" d="M346 835L389 919H302L346 835Z" fill="#C0B9B8" stroke="black" stroke-width="12" stroke-linecap="round" stroke-linejoin="round"/>
<path fill-rule="evenodd" clip-rule="evenodd" d="M346 835V791H179V835H346Z" fill="#ECE7E6" stroke="black" stroke-width="12" stroke-linecap="round" stroke-linejoin="round"/>
<path fill-rule="evenodd" clip-rule="evenodd" d="M306 809V791H219V809H306Z" fill="black" stroke="black" stroke-width="12" stroke-linecap="round" stroke-linejoin="round"/>
<rect x="137" y="986" width="165" height="118" fill="#5957CD" stroke="black" stroke-width="12" stroke-linecap="round" stroke-linejoin="round"/>
<rect x="302" y="986" width="87" height="118" fill="#35337E" stroke="black" stroke-width="12" stroke-linecap="round" stroke-linejoin="round"/>
<ellipse cx="242" cy="877" rx="22" ry="18" fill="#C0B9B8" stroke="black" stroke-width="12" stroke-linecap="round" stroke-linejoin="round"/>
<circle cx="454" cy="517" r="24" fill="black"/>
<path d="M424 493.143C424 493.143 439 480 454 480C469 480 484 493.143 484 493.143" stroke="black" stroke-width="12" stroke-linecap="round" stroke-linejoin="round"/>
<circle cx="346" cy="517" r="24" fill="black"/>
<path d="M316 493.143C316 493.143 331 480 346 480C361 480 376 493.143 376 493.143" stroke="black" stroke-width="12" stroke-linecap="round" stroke-linejoin="round"/>
<path fill-rule="evenodd" clip-rule="evenodd" d="M511 515C511 515 528 508 536 508C544 508 635 513 635 513L511 515Z" stroke="black" stroke-width="16" stroke-linecap="round" stroke-linejoin="round"/>
<path d="M384 513C384 513 389 511 394 511C399 511 404 513 404 513" stroke="black" stroke-width="16" stroke-linecap="round" stroke-linejoin="round"/>
<circle cx="460" cy="513" r="50" fill="#7457F5" stroke="black" stroke-width="12" stroke-linecap="round" stroke-linejoin="round"/>
<circle cx="328" cy="513" r="50" fill="#7457F5" stroke="black" stroke-width="12" stroke-linecap="round" stroke-linejoin="round"/>
<path fill-rule="evenodd" clip-rule="evenodd" d="M445 553L497 490C497 490 498.798 491.115 500 494C501.202 496.885 501 498 501 498L460 557C460 557 454.507 556.669 452 556C449.493 555.331 445 553 445 553Z" fill="#795BFF"/>
<path fill-rule="evenodd" clip-rule="evenodd" d="M313 553L365 490C365 490 366.798 491.115 368 494C369.202 496.885 369 498 369 498L328 557C328 557 322.507 556.669 320 556C317.493 555.331 313 553 313 553Z" fill="#795BFF"/>
<path fill-rule="evenodd" clip-rule="evenodd" d="M863.596 456.372C863.596 456.372 892.176 473.347 875.547 481.315C858.919 489.283 821.456 466.821 821.456 466.821L863.596 456.372Z" fill="#888888" stroke="black" stroke-width="12" stroke-linecap="round" stroke-linejoin="round"/>
<path fill-rule="evenodd" clip-rule="evenodd" d="M871.513 461.599L751.535 383.899L484.569 406.576C484.569 406.576 577.189 490.84 655.413 503.082C698.255 509.786 764.359 486.722 823.198 464.182C838.199 458.436 871.513 461.599 871.513 461.599Z" fill="#3D2D85" stroke="black" stroke-width="12" stroke-linecap="round" stroke-linejoin="round"/>
<path fill-rule="evenodd" clip-rule="evenodd" d="M751.535 383.899C751.535 383.899 743.222 171.51 539.166 160.315C335.111 149.12 311.428 345.689 311.428 345.689C311.428 345.689 337.86 373.633 373.09 386.022C408.32 398.411 484.569 406.576 484.569 406.576C484.569 406.576 584.523 409.675 631.825 405.657C679.126 401.639 751.535 383.899 751.535 383.899Z" fill="#3D2D85" stroke="black" stroke-width="12" stroke-linecap="round" stroke-linejoin="round"/>
<ellipse cx="24.5" cy="13.5" rx="24.5" ry="13.5" transform="matrix(-1 0 0 1 541.157 146.39)" fill="#3D2D85" stroke="black" stroke-width="12" stroke-linecap="round" stroke-linejoin="round"/>
<path d="M706.224 352.088L686.292 268.066L663.118 362.278L641.064 274.582" stroke="white" stroke-width="12" stroke-linecap="round" stroke-linejoin="round"/>
<path d="M663.937 270.358L684.766 358.761" stroke="white" stroke-width="12" stroke-linecap="round" stroke-linejoin="round"/>
</g>
<defs>
<clipPath id="clip0_0_422">
<rect width="1080" height="1080" fill="white"/>
</clipPath>
</defs>
</svg>
