<svg width="1024" height="1024" viewBox="0 0 1024 1024" fill="none" xmlns="http://www.w3.org/2000/svg">
<circle cx="676" cy="548" r="275" fill="#E7B8B8"/>
<path fill-rule="evenodd" clip-rule="evenodd" d="M788.242 384.748C783.62 410.521 768.51 432.946 747.182 448.007V487.455C747.182 510.952 728.134 530 704.636 530C681.139 530 662.091 510.952 662.091 487.455V466C613.541 456.734 577 416.379 577 368C577 312.772 624.621 268 683.364 268C726.156 268 763.045 291.758 779.924 326.01C797.162 326.426 811 339.693 811 356C811 369.578 801.405 381.05 788.242 384.748Z" fill="#604F43"/>
<path d="M625.146 368.099L620.936 396.267L628.836 400.901" stroke="black" stroke-width="12" stroke-linecap="round" stroke-linejoin="round"/>
<path d="M772.322 363.778C772.322 363.778 774.578 358.829 778.339 355.293C782.099 351.757 787.364 349.636 787.364 349.636" stroke="black" stroke-width="12" stroke-linecap="round" stroke-linejoin="round"/>
<path fill-rule="evenodd" clip-rule="evenodd" d="M661.907 483.041C588.426 500.802 534.13 563.446 534.13 638C534.13 726.366 610.407 798 704.5 798C798.593 798 874.87 726.366 874.87 638C874.87 563.446 820.574 500.802 747.093 483.041V487.408C747.093 510.931 728.023 530 704.5 530C680.977 530 661.907 510.931 661.907 487.408V483.041Z" fill="#EF9595"/>
<path fill-rule="evenodd" clip-rule="evenodd" d="M796.056 381.393C792.388 391.322 787.106 400.552 780.503 408.809C782.692 401.379 783.993 393.606 784.294 385.596C788.558 384.933 792.538 383.476 796.056 381.393ZM688.528 241.5C693.692 241.5 698.32 243.658 701.444 247.066C703.918 245.751 706.778 245 709.824 245C714.949 245 719.546 247.125 722.669 250.488C724.01 250.169 725.414 250 726.861 250C732.945 250 738.284 252.995 741.298 257.501C747.879 257.522 753.582 261.049 756.399 266.196L756.474 266.246C762.454 267.241 767.356 271.165 769.439 276.383C770.028 276.921 770.611 277.466 771.186 278.016C776.603 279.929 780.71 284.358 781.888 289.787C787.869 291.013 792.347 296.015 792.347 302C792.347 302.458 792.321 302.909 792.27 303.354C794.876 304.905 796.606 307.638 796.606 310.75C796.606 312.124 796.269 313.425 795.668 314.582C798.054 320.816 799.799 327.334 800.832 334.065C795.123 329.062 787.461 326 779.037 326C774.999 326 771.136 326.704 767.58 327.987C748.372 299.745 714.543 281 676.016 281C640.43 281 608.851 296.994 589.099 321.691C592.204 311.149 597.096 301.297 603.452 292.435C603.381 292.051 603.343 291.655 603.343 291.25C603.343 288.176 605.531 285.581 608.525 284.766C608.271 283.969 608.134 283.125 608.134 282.25C608.134 277.501 612.162 273.636 617.185 273.504C617.185 266.596 623.144 261 630.495 261C631.63 261 632.731 261.133 633.782 261.384C636.149 255.882 641.89 252 648.597 252C650.374 252 652.083 252.272 653.679 252.775C656.658 248.117 662.09 245 668.296 245C671.051 245 673.652 245.614 675.954 246.704C679.069 243.506 683.549 241.5 688.528 241.5Z" fill="black"/>
<path d="M655.373 433.835C655.373 433.835 669.833 431.782 681.357 425.544C692.882 419.306 701.561 408.835 701.561 408.835" stroke="black" stroke-width="12" stroke-linecap="round" stroke-linejoin="round"/>
<path fill-rule="evenodd" clip-rule="evenodd" d="M607.8 439C607.8 439 636.6 451 650.467 453.5C664.333 456 672.867 449 672.867 449C672.867 449 673.933 444.667 673.933 442.5C673.933 440.333 672.867 437 672.867 437L685.133 431C685.133 431 688.469 435.564 691.533 437C694.597 438.436 702.2 439 702.2 439C702.2 439 724.067 433 736.333 419.5C748.6 406 732.067 394.143 732.067 366C732.067 354 746.467 335 746.467 365.5C746.467 396 793.933 383.5 793.933 383.5C793.933 383.5 763 458 704.333 471.5C645.667 485 607.8 439 607.8 439Z" fill="black" stroke="black" stroke-width="2" stroke-linecap="round" stroke-linejoin="round"/>
<path fill-rule="evenodd" clip-rule="evenodd" d="M738.942 419.002L737.409 428.966C737.409 428.966 711.487 400.275 704.295 399.464C697.837 398.737 675.456 407.965 670.952 409.858L671.114 410.119C671.114 410.119 646.834 426.074 643.987 432.283C641.139 438.492 646.196 457.427 646.196 457.427L640.769 456.244C640.769 456.244 630.223 441.424 634.87 428.399C639.049 416.685 660.615 404.158 664.916 401.754L664.719 401.438C664.719 401.438 690.805 387.439 705.232 390.205C719.659 392.971 738.942 419.002 738.942 419.002Z" fill="black"/>
<path d="M737.409 428.966L735.873 430.215C736.401 430.799 737.228 431.047 737.992 430.851C738.757 430.655 739.32 430.051 739.435 429.302L737.409 428.966ZM738.942 419.002L740.969 419.338C741.045 418.839 740.915 418.326 740.604 417.907L738.942 419.002ZM704.295 399.464L704.11 401.402L704.11 401.402L704.295 399.464ZM670.952 409.858L670.082 408.07C669.557 408.29 669.161 408.715 668.993 409.239C668.824 409.762 668.898 410.336 669.197 410.817L670.952 409.858ZM671.114 410.119L672.308 411.735C673.174 411.165 673.418 410.045 672.869 409.16L671.114 410.119ZM643.987 432.283L642.106 431.46L643.987 432.283ZM646.196 457.427L645.793 459.328C646.484 459.479 647.197 459.282 647.682 458.809C648.167 458.335 648.355 457.65 648.18 456.996L646.196 457.427ZM640.769 456.244L639.084 457.307C639.386 457.731 639.845 458.032 640.365 458.145L640.769 456.244ZM634.87 428.399L636.811 429.072L634.87 428.399ZM664.916 401.754L665.988 403.443C666.945 402.909 667.249 401.727 666.67 400.795L664.916 401.754ZM664.719 401.438L663.677 399.731C663.207 399.983 662.868 400.407 662.734 400.907C662.6 401.407 662.683 401.944 662.965 402.396L664.719 401.438ZM705.232 390.205L704.882 392.118L705.232 390.205ZM739.435 429.302L740.969 419.338L736.916 418.667L735.383 428.631L739.435 429.302ZM704.11 401.402C704.501 401.446 705.345 401.755 706.703 402.594C707.99 403.387 709.512 404.511 711.197 405.884C714.563 408.626 718.424 412.235 722.096 415.855C725.761 419.468 729.207 423.059 731.739 425.75C733.004 427.095 734.039 428.213 734.757 428.994C735.116 429.385 735.396 429.691 735.586 429.899C735.681 430.003 735.753 430.083 735.801 430.136C735.825 430.163 735.843 430.183 735.856 430.196C735.862 430.203 735.866 430.208 735.869 430.211C735.87 430.212 735.871 430.214 735.872 430.214C735.872 430.215 735.873 430.215 735.873 430.215C735.873 430.215 735.873 430.215 737.409 428.966C738.945 427.718 738.945 427.717 738.945 427.717C738.944 427.717 738.944 427.716 738.944 427.716C738.943 427.715 738.941 427.713 738.94 427.712C738.936 427.708 738.931 427.702 738.925 427.695C738.912 427.681 738.893 427.66 738.868 427.632C738.818 427.577 738.743 427.495 738.647 427.389C738.453 427.176 738.169 426.865 737.805 426.47C737.078 425.679 736.032 424.549 734.754 423.191C732.201 420.477 728.717 416.845 725.002 413.184C721.295 409.529 717.326 405.814 713.809 402.948C712.052 401.517 710.37 400.266 708.862 399.336C707.426 398.45 705.886 397.685 704.479 397.527L704.11 401.402ZM671.822 411.647C674.061 410.706 680.739 407.944 687.648 405.511C691.105 404.293 694.586 403.171 697.58 402.4C700.679 401.601 702.937 401.269 704.11 401.402L704.479 397.527C702.424 397.295 699.463 397.844 696.409 398.631C693.249 399.445 689.642 400.611 686.134 401.846C679.112 404.319 672.347 407.118 670.082 408.07L671.822 411.647ZM669.197 410.817L669.359 411.077L672.869 409.16L672.707 408.9L669.197 410.817ZM671.114 410.119C669.919 408.503 669.919 408.503 669.919 408.503C669.919 408.503 669.918 408.503 669.918 408.504C669.917 408.504 669.916 408.505 669.914 408.506C669.911 408.508 669.906 408.511 669.9 408.515C669.888 408.523 669.87 408.535 669.846 408.551C669.799 408.582 669.73 408.628 669.639 408.688C669.458 408.808 669.194 408.984 668.856 409.21C668.181 409.662 667.216 410.314 666.048 411.115C663.715 412.716 660.57 414.919 657.332 417.32C654.1 419.717 650.747 422.332 648.01 424.754C646.643 425.965 645.405 427.148 644.406 428.248C643.429 429.322 642.583 430.421 642.106 431.46L645.867 433.106C646.102 432.593 646.637 431.835 647.534 430.848C648.407 429.887 649.534 428.805 650.842 427.647C653.459 425.331 656.71 422.793 659.904 420.425C663.091 418.061 666.195 415.887 668.503 414.303C669.656 413.511 670.609 412.868 671.274 412.423C671.606 412.2 671.865 412.028 672.041 411.911C672.129 411.852 672.197 411.808 672.242 411.778C672.264 411.764 672.281 411.752 672.292 411.745C672.298 411.742 672.302 411.739 672.304 411.737C672.306 411.736 672.307 411.736 672.307 411.735C672.308 411.735 672.308 411.735 672.308 411.735C672.308 411.735 672.308 411.735 671.114 410.119ZM642.106 431.46C641.207 433.422 641.009 436.135 641.084 438.828C641.161 441.595 641.54 444.636 642.001 447.433C642.463 450.238 643.015 452.839 643.451 454.737C643.669 455.687 643.858 456.463 643.993 457.004C644.061 457.274 644.115 457.485 644.153 457.63C644.172 457.703 644.186 457.759 644.196 457.797C644.201 457.816 644.205 457.831 644.208 457.841C644.209 457.846 644.211 457.85 644.211 457.853C644.212 457.854 644.212 457.856 644.212 457.856C644.212 457.857 644.212 457.857 644.212 457.857C644.213 457.858 644.213 457.858 646.196 457.427C648.18 456.996 648.18 456.996 648.18 456.996C648.18 456.996 648.18 456.996 648.18 456.996C648.18 456.995 648.18 456.995 648.18 456.994C648.179 456.992 648.178 456.989 648.177 456.985C648.175 456.977 648.172 456.965 648.167 456.948C648.159 456.914 648.145 456.863 648.128 456.795C648.093 456.66 648.041 456.458 647.976 456.199C647.846 455.679 647.662 454.928 647.451 454.006C647.027 452.159 646.492 449.638 646.047 446.933C645.599 444.22 645.248 441.364 645.178 438.834C645.105 436.23 645.343 434.249 645.867 433.106L642.106 431.46ZM646.6 455.526L641.172 454.343L640.365 458.145L645.793 459.328L646.6 455.526ZM640.769 456.244C642.454 455.18 642.454 455.181 642.454 455.181C642.454 455.181 642.455 455.181 642.455 455.182C642.455 455.182 642.455 455.182 642.455 455.182C642.454 455.181 642.453 455.18 642.452 455.178C642.449 455.173 642.443 455.165 642.435 455.154C642.419 455.131 642.394 455.094 642.36 455.045C642.292 454.945 642.19 454.792 642.059 454.59C641.797 454.186 641.422 453.587 640.983 452.824C640.105 451.297 638.98 449.13 637.997 446.579C636.01 441.424 634.705 434.975 636.811 429.072L632.929 427.725C630.388 434.848 632.033 442.322 634.157 447.833C635.229 450.615 636.45 452.967 637.404 454.625C637.882 455.456 638.294 456.116 638.591 456.573C638.739 456.802 638.859 456.98 638.943 457.104C638.985 457.166 639.018 457.214 639.042 457.248C639.054 457.265 639.064 457.279 639.071 457.289C639.074 457.293 639.077 457.298 639.079 457.301C639.08 457.302 639.081 457.304 639.082 457.305C639.082 457.305 639.083 457.306 639.083 457.306C639.084 457.307 639.084 457.307 640.769 456.244ZM636.811 429.072C637.734 426.485 639.673 423.724 642.268 420.953C644.846 418.199 647.977 415.533 651.15 413.124C657.497 408.307 663.874 404.625 665.988 403.443L663.843 400.064C661.656 401.286 655.1 405.07 648.544 410.046C645.266 412.534 641.953 415.346 639.178 418.311C636.419 421.257 634.096 424.456 632.929 427.725L636.811 429.072ZM662.965 402.396L663.161 402.712L666.67 400.795L666.474 400.479L662.965 402.396ZM705.582 388.293C701.571 387.524 696.916 387.939 692.329 388.886C687.709 389.84 682.985 391.369 678.764 392.969C674.536 394.57 670.772 396.257 668.066 397.543C666.712 398.186 665.62 398.73 664.865 399.115C664.487 399.307 664.193 399.46 663.992 399.565C663.891 399.618 663.814 399.659 663.761 399.687C663.735 399.701 663.714 399.711 663.7 399.719C663.693 399.723 663.688 399.726 663.684 399.728C663.682 399.729 663.68 399.73 663.679 399.73C663.679 399.73 663.678 399.731 663.678 399.731C663.677 399.731 663.677 399.731 664.719 401.438C665.762 403.144 665.762 403.144 665.762 403.144C665.762 403.144 665.762 403.144 665.762 403.144C665.762 403.144 665.763 403.143 665.764 403.143C665.767 403.141 665.771 403.139 665.776 403.136C665.788 403.13 665.805 403.121 665.828 403.109C665.875 403.084 665.946 403.047 666.04 402.997C666.228 402.899 666.509 402.753 666.872 402.568C667.599 402.198 668.658 401.67 669.975 401.045C672.612 399.792 676.271 398.152 680.368 396.6C684.471 395.046 688.973 393.594 693.302 392.701C697.664 391.801 701.68 391.504 704.882 392.118L705.582 388.293ZM738.942 419.002C740.604 417.907 740.604 417.907 740.604 417.906C740.604 417.906 740.603 417.905 740.603 417.905C740.602 417.904 740.601 417.902 740.599 417.9C740.597 417.897 740.593 417.891 740.587 417.884C740.577 417.87 740.562 417.85 740.543 417.824C740.504 417.772 740.447 417.696 740.372 417.598C740.223 417.4 740.004 417.113 739.721 416.748C739.156 416.019 738.335 414.976 737.305 413.719C735.248 411.205 732.348 407.82 728.986 404.341C725.629 400.868 721.776 397.266 717.81 394.341C713.881 391.443 709.66 389.075 705.582 388.293L704.882 392.118C708.017 392.718 711.617 394.641 715.36 397.402C719.068 400.136 722.741 403.56 726.009 406.941C729.27 410.315 732.093 413.61 734.102 416.064C735.106 417.29 735.904 418.303 736.45 419.008C736.722 419.36 736.932 419.635 737.072 419.821C737.143 419.913 737.195 419.984 737.23 420.03C737.248 420.054 737.261 420.071 737.269 420.082C737.273 420.088 737.276 420.092 737.278 420.094C737.279 420.096 737.28 420.096 737.28 420.097C737.28 420.097 737.28 420.097 737.28 420.097C737.28 420.097 737.28 420.097 738.942 419.002Z" fill="black"/>
<path fill-rule="evenodd" clip-rule="evenodd" d="M631.59 348.565C631.59 348.565 635.83 370.205 653.32 367.114C670.81 364.022 668.16 343 668.16 343L631.59 348.565Z" stroke="black" stroke-width="8" stroke-linecap="round" stroke-linejoin="round"/>
<ellipse cx="654.645" cy="347.25" rx="7.155" ry="6.75" fill="black" stroke="black" stroke-width="8" stroke-linecap="round" stroke-linejoin="round"/>
<path fill-rule="evenodd" clip-rule="evenodd" d="M630 344.5C631.59 343.5 641.305 342.108 645.9 341C657.351 338.239 664.527 336.293 667.63 336C674.152 335.385 677.7 340 677.7 340C677.7 340 674.952 341.766 663.92 343.5C652.888 345.235 630 347.5 630 347.5C630 347.5 628.41 345.5 630 344.5Z" fill="black" stroke="black" stroke-width="8" stroke-linecap="round" stroke-linejoin="round"/>
<path fill-rule="evenodd" clip-rule="evenodd" d="M587.07 347L618.34 349C618.34 349 619.4 367.988 606.68 369.849C593.96 371.71 587.07 347 587.07 347Z" stroke="black" stroke-width="8" stroke-linecap="round" stroke-linejoin="round"/>
<ellipse cx="610.125" cy="351.25" rx="5.035" ry="4.75" fill="black" stroke="black" stroke-width="8" stroke-linecap="round" stroke-linejoin="round"/>
<path fill-rule="evenodd" clip-rule="evenodd" d="M617.81 345C614.63 344 607.711 343.904 602.44 343C597.168 342.096 593.96 339.5 587.6 340C581.24 340.5 580.18 348.5 580.18 348.5C580.18 348.5 593.077 349 599.79 349C606.503 349 619.4 348.5 619.4 348.5C619.4 348.5 620.99 346 617.81 345Z" fill="black" stroke="black" stroke-width="8" stroke-linecap="round" stroke-linejoin="round"/>
<path fill-rule="evenodd" clip-rule="evenodd" d="M616.095 239.259C616.095 239.259 633.026 216.461 639.202 205.703C652.641 182.292 650.275 165.264 662.799 155.85C673.217 148.02 684.955 143.938 696.221 139.074C714.608 131.136 733.51 125.229 756.537 128.094C793.672 132.714 816.537 139.432 828.505 170.107C835.994 189.301 828.084 203.629 824.607 232.274C823.815 238.795 828.889 249.409 828.251 261.849C827.847 269.73 818.382 286.715 818.382 286.715L616.095 239.259Z" fill="#D8D8D8" stroke="black" stroke-width="12" stroke-linecap="round" stroke-linejoin="round"/>
<path fill-rule="evenodd" clip-rule="evenodd" d="M601.653 239.782C603.582 232.503 610.355 227.429 617.913 227.825C638.571 228.906 680.796 232.164 721.363 241.681C761.929 251.197 800.837 266.973 819.617 275.144C826.488 278.133 829.936 285.605 828.008 292.884L819.181 326.192C816.568 336.054 805.431 341.34 796.077 337.392C775.702 328.791 740.595 315.189 704.15 306.639C667.705 298.089 629.921 294.592 607.639 293.185C597.41 292.539 590.214 282.952 592.827 273.09L601.653 239.782Z" fill="#D8D8D8" stroke="black" stroke-width="12" stroke-linecap="round" stroke-linejoin="round"/>
<path fill-rule="evenodd" clip-rule="evenodd" d="M655.309 242.723C651.279 242.207 647.414 244.747 646.305 248.64L642.371 262.454C641.056 267.069 644.105 271.671 648.881 272.283L686.855 277.148C690.884 277.665 694.75 275.124 695.858 271.232L699.793 257.417C701.107 252.803 698.059 248.2 693.282 247.588L655.309 242.723Z" fill="black"/>
<circle cx="338" cy="548" r="275" fill="#C15757"/>
<path fill-rule="evenodd" clip-rule="evenodd" d="M426.783 413.748C421.865 439.521 405.786 461.946 383.091 477.007V513.727C383.091 538.731 362.822 559 337.818 559C312.815 559 292.545 538.731 292.545 513.727V495C240.884 485.734 202 445.379 202 397C202 341.772 252.673 297 315.182 297C360.717 297 399.971 320.758 417.932 355.01C436.275 355.426 451 368.693 451 385C451 398.578 440.79 410.05 426.783 413.748Z" fill="#FDD4BC"/>
<path d="M253.232 397.099L248.752 425.267L257.158 429.901" stroke="black" stroke-width="12" stroke-linecap="round" stroke-linejoin="round"/>
<path d="M409.843 392.778C409.843 392.778 412.244 387.829 416.245 384.293C420.247 380.757 425.849 378.636 425.849 378.636" stroke="black" stroke-width="12" stroke-linecap="round" stroke-linejoin="round"/>
<path fill-rule="evenodd" clip-rule="evenodd" d="M292.815 512.041C214.86 529.802 157.259 592.446 157.259 667C157.259 755.366 238.18 827 338 827C437.82 827 518.741 755.366 518.741 667C518.741 592.446 461.14 529.802 383.185 512.041V513.815C383.185 538.77 362.955 559 338 559C313.045 559 292.815 538.77 292.815 513.815V512.041Z" fill="#94262C"/>
<path fill-rule="evenodd" clip-rule="evenodd" d="M287.167 602H405.778L388.833 634H270.222L287.167 602Z" fill="white"/>
<path fill-rule="evenodd" clip-rule="evenodd" d="M270.222 638H388.833V644H270.222V638Z" fill="white"/>
<path fill-rule="evenodd" clip-rule="evenodd" d="M671.944 598H790.556L773.611 630H655L671.944 598Z" fill="white"/>
<path fill-rule="evenodd" clip-rule="evenodd" d="M655 634H773.611V640H655V634Z" fill="white"/>
<path fill-rule="evenodd" clip-rule="evenodd" d="M210.352 357C210.352 357 197.924 313.896 205.889 297.158C213.854 280.421 237.463 278.5 237.463 278.5C237.463 278.5 247.83 251.392 278.694 239.5C309.558 227.607 338 239.5 338 239.5C338 239.5 393.352 233.5 418.204 246.5C443.056 259.5 455.812 276.762 464.518 291C473.225 305.238 483.722 330 480.333 345C476.944 360 468.472 373.5 468.472 373.5C468.472 373.5 480.333 386 480.333 403C480.333 420 468.472 434 468.472 434C468.472 434 481.522 446.001 483.157 457C484.793 467.998 473.556 482.5 473.556 482.5C473.556 482.5 483.157 488 483.157 499.5C483.157 511 472.426 518.5 472.426 518.5C472.426 518.5 485.981 529 485.981 539.5C485.981 550 475.7 563.637 475.7 563.637C475.7 563.637 482.028 576.5 480.333 583C478.639 589.5 459.77 602.397 459.77 602.397C459.77 602.397 462.155 611.068 468.233 617.814C474.311 624.559 491.63 634.111 491.63 634.111C491.63 634.111 456.61 631.3 442.845 619.575C429.079 607.851 435.875 589.624 435.875 589.624C435.875 589.624 426.38 584.67 424.426 579.934C422.472 575.198 424.426 561.875 424.426 561.875C424.426 561.875 415.507 551.946 414.47 546.899C413.433 541.853 418.452 532.805 418.452 532.805C418.452 532.805 403.776 520.595 402.389 515.5C399.278 504.074 406.343 493 406.343 493C406.343 493 386.009 482.5 384.315 467.5C382.62 452.5 391.093 438 391.093 438C391.093 438 377.603 421.838 373.583 409.5C365.749 385.455 373.583 370 373.583 370C373.583 370 353.815 360.5 338 345C322.185 329.5 327.353 303.765 327.353 303.765C327.353 303.765 307.596 322.31 274.741 332C262.843 335.509 249.101 335.885 237.463 340.5C227.676 344.381 210.352 357 210.352 357Z" fill="#543131" stroke="#543131" stroke-width="12" stroke-linecap="round" stroke-linejoin="round"/>
<path d="M471.271 367.915C471.271 367.915 464.72 380.657 459.391 386.126C454.062 391.595 441.387 398.585 441.387 398.585" stroke="black" stroke-width="8" stroke-linecap="round" stroke-linejoin="round"/>
<path d="M320.121 235.692C320.121 235.692 331.806 238.818 337.177 242.289C342.548 245.761 350.242 255.16 350.242 255.16" stroke="black" stroke-width="8" stroke-linecap="round" stroke-linejoin="round"/>
<path d="M219.474 285.084C219.474 285.084 229.412 280.825 235.317 280.179C241.223 279.533 252.589 281.463 252.589 281.463" stroke="black" stroke-width="8" stroke-linecap="round" stroke-linejoin="round"/>
<path d="M474.66 423.915C474.66 423.915 468.109 436.657 462.78 442.126C457.451 447.595 444.776 454.585 444.776 454.585" stroke="black" stroke-width="8" stroke-linecap="round" stroke-linejoin="round"/>
<path d="M479.743 471.415C479.743 471.415 473.192 484.157 467.864 489.626C462.535 495.095 449.859 502.085 449.859 502.085" stroke="black" stroke-width="8" stroke-linecap="round" stroke-linejoin="round"/>
<path d="M478.821 511.199C478.821 511.199 476.149 515.617 473.852 517.463C471.555 519.31 465.94 521.554 465.94 521.554" stroke="black" stroke-width="8" stroke-linecap="round" stroke-linejoin="round"/>
<path d="M480.673 554.758C480.673 554.758 478.924 559.135 477.031 561.129C475.139 563.122 470.06 565.937 470.06 565.937" stroke="black" stroke-width="8" stroke-linecap="round" stroke-linejoin="round"/>
<path d="M471.118 593.028C471.118 593.028 467.288 597.445 464.518 599.116C461.747 600.787 455.581 602.399 455.581 602.399" stroke="black" stroke-width="8" stroke-linecap="round" stroke-linejoin="round"/>
<path fill-rule="evenodd" clip-rule="evenodd" d="M279.421 462.507C279.421 462.507 301.759 451.633 312.266 445.074C322.772 438.516 341.81 423.561 341.81 423.561C341.81 423.561 357.409 445.578 332.119 466.64C306.828 487.702 279.421 462.507 279.421 462.507Z" fill="#FF9393" stroke="black" stroke-width="12" stroke-linecap="round" stroke-linejoin="round"/>
<path fill-rule="evenodd" clip-rule="evenodd" d="M285.774 463.288C285.774 463.288 288.519 465.016 290.254 466.185C291.989 467.355 295.502 469.266 295.502 469.266L343.689 436.453C343.689 436.453 343.203 434.207 342.694 432.922C342.186 431.638 340.65 428.775 340.65 428.775C340.65 428.775 324.458 441.123 315.415 446.922C306.371 452.721 285.774 463.288 285.774 463.288Z" fill="white" stroke="white" stroke-width="2" stroke-linecap="round" stroke-linejoin="round"/>
<ellipse cx="289.01" cy="385.5" rx="13.56" ry="12" fill="black"/>
<path d="M272.06 373.572C272.06 373.572 280.535 367 289.01 367C297.485 367 305.96 373.572 305.96 373.572" stroke="black" stroke-width="12" stroke-linecap="round" stroke-linejoin="round"/>
<ellipse cx="227.99" cy="385.5" rx="13.56" ry="12" fill="black"/>
<path d="M211.04 373.572C211.04 373.572 219.515 367 227.99 367C236.465 367 244.94 373.572 244.94 373.572" stroke="black" stroke-width="12" stroke-linecap="round" stroke-linejoin="round"/>
<path d="M318.145 383.5C318.145 394.978 307.37 405.5 292.481 405.5C277.593 405.5 266.818 394.978 266.818 383.5C266.818 372.022 277.593 361.5 292.481 361.5C307.37 361.5 318.145 372.022 318.145 383.5Z" fill="black" stroke="#FE5893" stroke-width="12" stroke-linecap="round" stroke-linejoin="round"/>
<path d="M243.509 383.5C243.509 394.978 232.734 405.5 217.846 405.5C202.957 405.5 192.182 394.978 192.182 383.5C192.182 372.022 202.957 361.5 217.846 361.5C232.734 361.5 243.509 372.022 243.509 383.5Z" fill="black" stroke="#FE5893" stroke-width="12" stroke-linecap="round" stroke-linejoin="round"/>
<path fill-rule="evenodd" clip-rule="evenodd" d="M266.472 371H243.855V389H248.969C249.255 384.795 251.919 381.5 255.164 381.5C258.408 381.5 261.072 384.795 261.358 389H266.472V371Z" fill="#FE5893"/>
<path fill-rule="evenodd" clip-rule="evenodd" d="M318.491 371L385.435 373.753C388.785 373.891 391.43 376.647 391.43 380V380C391.43 383.353 388.785 386.109 385.435 386.247L318.491 389V371Z" fill="#FE5893"/>
<path fill-rule="evenodd" clip-rule="evenodd" d="M282.42 189.426C285.844 181.575 293.595 176.5 302.159 176.5H325.225C391.776 176.5 445.725 230.45 445.725 297H235.502L282.42 189.426Z" fill="#90785C" stroke="black" stroke-width="12" stroke-linecap="round" stroke-linejoin="round"/>
<ellipse cx="208.845" cy="27.0409" rx="208.845" ry="27.0409" transform="matrix(0.995704 0.092594 -0.117963 0.993018 133.591 254.336)" fill="#90785C" stroke="black" stroke-width="12" stroke-linecap="round" stroke-linejoin="round"/>
<path d="M293.034 258.669C293.034 258.669 324.392 259.833 363.351 263.751C402.31 267.67 433.827 272.831 433.827 272.831" stroke="#632121" stroke-width="16" stroke-linecap="round" stroke-linejoin="round"/>
<path d="M325.659 247.499C325.659 247.499 349.727 248.516 379.7 252.253C409.673 255.989 433.978 261.001 433.978 261.001" stroke="#632121" stroke-width="16" stroke-linecap="round" stroke-linejoin="round"/>
</svg>
