<svg width="1080" height="1080" viewBox="0 0 1080 1080" fill="none" xmlns="http://www.w3.org/2000/svg">
<g clip-path="url(#clip0_0_432)">
<rect width="1080" height="1080" fill="white"/>
<rect width="1080" height="1080" fill="#460E37"/>
<circle cx="320" cy="760" r="400" fill="#DD6E57"/>
<circle cx="208" cy="540" r="80" fill="#C56450"/>
<path fill-rule="evenodd" clip-rule="evenodd" d="M80 930C115.899 930 145 900.899 145 865C145 829.101 115.899 800 80 800C44.1015 800 15 829.101 15 865C15 900.899 44.1015 930 80 930ZM80 913C106.51 913 128 891.51 128 865C128 838.49 106.51 817 80 817C53.4903 817 32 838.49 32 865C32 891.51 53.4903 913 80 913Z" fill="#C56450"/>
<path fill-rule="evenodd" clip-rule="evenodd" d="M498 1021C569.797 1021 628 962.797 628 891C628 819.203 569.797 761 498 761C426.203 761 368 819.203 368 891C368 962.797 426.203 1021 498 1021ZM498 983C548.81 983 590 941.81 590 891C590 840.19 548.81 799 498 799C447.19 799 406 840.19 406 891C406 941.81 447.19 983 498 983Z" fill="#C56450"/>
<path fill-rule="evenodd" clip-rule="evenodd" d="M67 1039.92C67 1039.92 223.782 939.134 259.077 956.474C294.372 973.813 215.621 1112.93 215.621 1112.93C215.621 1112.93 172.758 1104.28 144.352 1090.33C115.946 1076.37 67 1039.92 67 1039.92Z" stroke="#C56450" stroke-width="24" stroke-linecap="round" stroke-linejoin="round"/>
<path fill-rule="evenodd" clip-rule="evenodd" d="M502.19 432.888C502.19 432.888 513.132 570.476 536.527 588.873C559.922 607.271 600.701 510.355 600.701 510.355C600.701 510.355 578.781 484.113 559.952 469.307C541.124 454.501 502.19 432.888 502.19 432.888Z" stroke="#C56450" stroke-width="24" stroke-linecap="round" stroke-linejoin="round"/>
<circle cx="991.5" cy="182.5" r="20.5" fill="white"/>
<circle cx="890" cy="478" r="8" fill="white"/>
<circle cx="1046" cy="1048" r="8" fill="white"/>
<circle cx="548" cy="70" r="8" fill="white"/>
<circle cx="991.5" cy="739.5" r="20.5" fill="white"/>
<circle cx="66.5" cy="60.5" r="20.5" fill="white"/>
<circle cx="229" cy="153" r="12" fill="white"/>
<circle cx="99" cy="688" r="12" fill="white"/>
<circle cx="498.5" cy="679.5" r="20.5" fill="white"/>
<circle cx="201.5" cy="946.5" r="20.5" fill="white"/>
<path fill-rule="evenodd" clip-rule="evenodd" d="M741 63L966 37L741 104V63Z" fill="#FF4D28"/>
<circle cx="740.5" cy="83.5" r="20.5" fill="#FFCA00"/>
<path fill-rule="evenodd" clip-rule="evenodd" d="M890 871L1115 845L890 912V871Z" fill="#FF4D28"/>
<circle cx="889.5" cy="891.5" r="20.5" fill="#FFCA00"/>
<path fill-rule="evenodd" clip-rule="evenodd" d="M45 479L270 453L45 520V479Z" fill="#FF4D28"/>
<circle cx="44.5" cy="499.5" r="20.5" fill="#FFCA00"/>
<path fill-rule="evenodd" clip-rule="evenodd" d="M697.207 573.496C688.516 625.043 660.104 669.891 620 700.015V784C620 828.183 584.183 864 540 864C495.817 864 460 828.183 460 784V735.999C368.71 717.468 300 636.758 300 540C300 429.543 389.543 340 500 340C580.464 340 649.829 387.516 681.567 456.02C713.98 456.851 740 483.387 740 516C740 543.157 721.958 566.099 697.207 573.496Z" fill="#FDD4BC"/>
<path d="M390.531 540.198L382.614 596.533L397.469 605.802" stroke="black" stroke-width="12" stroke-linecap="round" stroke-linejoin="round"/>
<path d="M667.272 531.557C667.272 531.557 671.515 521.657 678.586 514.586C685.657 507.515 695.556 503.272 695.556 503.272" stroke="black" stroke-width="12" stroke-linecap="round" stroke-linejoin="round"/>
<rect x="490" y="990" width="20" height="120" fill="white"/>
<rect x="536" y="1000" width="44" height="100" stroke="white" stroke-width="20" stroke-linecap="round" stroke-linejoin="round"/>
<path fill-rule="evenodd" clip-rule="evenodd" d="M460 764.999C321.982 800.522 220 925.81 220 1074.92C220 1251.65 363.269 1394.92 540 1394.92C716.731 1394.92 860 1251.65 860 1074.92C860 925.81 758.018 800.522 620 764.999V778.918C620 823.1 584.183 858.918 540 858.918C495.817 858.918 460 823.1 460 778.918V764.999Z" fill="#F8F8F8"/>
<path fill-rule="evenodd" clip-rule="evenodd" d="M340 1055.59C387.824 1027.93 420 976.223 420 917C420 910.227 419.579 903.552 418.762 897H661.238C660.421 903.552 660 910.227 660 917C660 976.223 692.176 1027.93 740 1055.59V1117H340V1055.59Z" fill="#597A80"/>
<path d="M340 1055.59L336.996 1050.4C335.142 1051.47 334 1053.45 334 1055.59H340ZM418.762 897V891C417.041 891 415.404 891.739 414.265 893.029C413.126 894.318 412.595 896.035 412.808 897.742L418.762 897ZM661.238 897L667.192 897.742C667.405 896.035 666.874 894.318 665.735 893.029C664.596 891.739 662.959 891 661.238 891V897ZM740 1055.59H746C746 1053.45 744.858 1051.47 743.004 1050.4L740 1055.59ZM740 1117V1123C743.314 1123 746 1120.31 746 1117H740ZM340 1117H334C334 1120.31 336.686 1123 340 1123V1117ZM414 917C414 973.994 383.042 1023.76 336.996 1050.4L343.004 1060.79C392.606 1032.1 426 978.451 426 917H414ZM412.808 897.742C413.595 904.049 414 910.476 414 917H426C426 909.978 425.564 903.055 424.716 896.258L412.808 897.742ZM661.238 891H418.762V903H661.238V891ZM666 917C666 910.476 666.405 904.049 667.192 897.742L655.284 896.258C654.436 903.055 654 909.978 654 917H666ZM743.004 1050.4C696.958 1023.76 666 973.994 666 917H654C654 978.451 687.394 1032.1 736.996 1060.79L743.004 1050.4ZM746 1117V1055.59H734V1117H746ZM340 1123H740V1111H340V1123ZM334 1055.59V1117H346V1055.59H334Z" fill="black"/>
<rect x="667.032" y="779.58" width="32" height="144" transform="rotate(18 667.032 779.58)" fill="#8D4623" stroke="black" stroke-width="12" stroke-linecap="round" stroke-linejoin="round"/>
<rect width="32" height="144" transform="matrix(-0.951057 0.309017 0.309017 0.951057 412.968 779.58)" fill="#8D4623" stroke="black" stroke-width="12" stroke-linecap="round" stroke-linejoin="round"/>
<circle cx="631" cy="936" r="22" fill="#8D4623" stroke="black" stroke-width="12" stroke-linecap="round" stroke-linejoin="round"/>
<circle cx="449" cy="936" r="22" fill="#8D4623" stroke="black" stroke-width="12" stroke-linecap="round" stroke-linejoin="round"/>
<path d="M465 1037H615V1042C615 1083.42 581.421 1117 540 1117V1117C498.579 1117 465 1083.42 465 1042V1037Z" stroke="black" stroke-width="12" stroke-linecap="round" stroke-linejoin="round"/>
<path fill-rule="evenodd" clip-rule="evenodd" d="M530 446C559.782 476.838 627 512 627 512C627 512 646.53 539.745 648 566C648.257 570.599 648.701 574.875 649.134 579.048C651.171 598.699 652.971 616.057 634 654C611 700 567 736 567 736C567 736 571.495 776.361 589 793C606.505 809.639 692 824 692 824C692 824 683.931 819.129 678 813C672.069 806.871 662 793 662 793C662 793 685.852 801.109 701 802C716.148 802.891 747 798 747 798C747 798 733.451 794.225 727 791C720.549 787.775 709 779 709 779C709 779 752.636 778.753 783 766C813.364 753.247 859 716 859 716C859 716 825.281 705.43 813 695C800.719 684.57 786 654 786 654C786 654 806.735 622.007 813 601C814.28 596.71 815.666 592.804 816.994 589.065C822.166 574.498 826.441 562.457 820 540C816.019 526.12 808.875 518.338 800.889 509.638C792.639 500.65 783.489 490.683 776 472C770.399 458.027 766.166 438.208 761.479 416.26C753.833 380.46 744.978 338.997 727 308C698 258 689 248 654 230C633.701 219.56 624.771 220.475 614.062 221.573C606.306 222.367 597.617 223.258 583 220C570.19 217.145 559.636 212.463 548.866 207.685C530.377 199.483 511.254 191 479 191C446.641 191 440.554 196.284 431.443 204.191C426.183 208.757 419.914 214.197 407 220C371.718 235.854 321.628 266.687 281 308C246.837 342.739 226.289 433.601 216.453 477.097C214.592 485.328 213.114 491.863 212 496C208.807 507.861 204.874 514.088 201.308 519.734C197.058 526.464 193.33 532.367 192 546C190.615 560.195 194.646 563.482 198.403 566.547C201.282 568.894 204 571.111 204 578C204 584.47 202.34 589.984 200.711 595.396C198.342 603.268 196.037 610.925 199 621C204 638 242 655 242 655C242 655 235.739 676.183 229 687C222.261 697.817 204 716 204 716C204 716 219.784 715.887 233 712C246.215 708.113 272 696 272 696C272 696 254.662 716.947 244 726C233.338 735.053 219 741 219 741C219 741 253.333 758 275 758C293.696 758 308.42 760.234 312.107 760.846C312.344 761.737 312.578 762.612 312.808 763.471C312.265 766.86 310.262 773.19 303 779C292.438 787.45 272 784 272 784C272 784 338 812 381 798C404.709 790.281 455 771 455 771V761L452.985 760.026C454.364 759.951 455 760 455 760L456 740C456 740 427.094 731.469 419 728C404.696 721.87 387 713.895 363 692C339 670.105 308 623.135 300 584C292 544.865 289.341 491.143 321 443.12C345.737 405.597 426.083 375.024 481.311 374.68C487.569 387.011 506.005 421.154 530 446Z" fill="#C0AD87"/>
<path d="M627 512L631.906 508.546C631.356 507.765 630.628 507.126 629.781 506.683L627 512ZM530 446L534.316 441.832L530 446ZM648 566L642.009 566.335L648 566ZM649.134 579.048L643.166 579.667V579.667L649.134 579.048ZM634 654L628.633 651.317L634 654ZM567 736L563.201 731.356C561.626 732.644 560.812 734.642 561.037 736.664L567 736ZM692 824L691.006 829.917C693.847 830.394 696.626 828.785 697.626 826.084C698.627 823.383 697.567 820.352 695.101 818.863L692 824ZM662 793L663.931 787.319C661.456 786.478 658.722 787.336 657.171 789.439C655.619 791.543 655.609 794.409 657.144 796.525L662 793ZM701 802L701.352 796.01L701 802ZM747 798L747.939 803.926C750.726 803.484 752.829 801.16 752.99 798.343C753.152 795.526 751.328 792.977 748.61 792.22L747 798ZM709 779L708.966 773C706.397 773.015 704.122 774.664 703.308 777.101C702.495 779.538 703.324 782.223 705.37 783.778L709 779ZM859 716L862.794 720.648C864.503 719.253 865.309 717.032 864.892 714.865C864.474 712.698 862.9 710.935 860.795 710.275L859 716ZM786 654L780.965 650.737C779.826 652.494 779.686 654.717 780.594 656.603L786 654ZM813 601L818.75 602.715L813 601ZM816.994 589.065L822.648 591.073V591.073L816.994 589.065ZM820 540L814.232 541.654L820 540ZM800.889 509.638L805.309 505.581L800.889 509.638ZM776 472L770.431 474.232L776 472ZM761.479 416.26L755.611 417.513V417.513L761.479 416.26ZM727 308L721.81 311.01L727 308ZM654 230L651.256 235.336L654 230ZM614.062 221.573L613.45 215.604L614.062 221.573ZM583 220L581.695 225.856L583 220ZM548.866 207.685L546.433 213.17L546.433 213.17L548.866 207.685ZM431.443 204.191L427.51 199.66V199.66L431.443 204.191ZM407 220L409.459 225.473L407 220ZM281 308L285.278 312.207L281 308ZM216.453 477.097L210.601 475.773H210.601L216.453 477.097ZM212 496L217.794 497.56H217.794L212 496ZM201.308 519.734L206.381 522.938H206.381L201.308 519.734ZM192 546L197.972 546.583H197.972L192 546ZM198.403 566.547L202.195 561.897L202.195 561.897L198.403 566.547ZM200.711 595.396L194.966 593.666H194.966L200.711 595.396ZM199 621L204.756 619.307L199 621ZM242 655L247.754 656.701C248.606 653.818 247.194 650.75 244.45 649.523L242 655ZM229 687L223.907 683.828L229 687ZM204 716L199.766 711.748C198.04 713.468 197.524 716.061 198.462 718.31C199.401 720.559 201.606 722.017 204.043 722L204 716ZM272 696L276.622 699.826C278.413 697.662 278.463 694.545 276.743 692.325C275.022 690.104 271.991 689.375 269.449 690.569L272 696ZM244 726L247.883 730.574L244 726ZM219 741L216.701 735.458C214.527 736.359 213.082 738.448 213.003 740.8C212.925 743.152 214.229 745.333 216.338 746.377L219 741ZM312.107 760.846L317.905 759.302C317.298 757.025 315.415 755.314 313.09 754.927L312.107 760.846ZM312.808 763.471L318.733 764.421C318.866 763.587 318.822 762.735 318.604 761.919L312.808 763.471ZM303 779L299.252 774.315L303 779ZM272 784L272.999 778.084C269.998 777.577 267.094 779.397 266.241 782.318C265.387 785.238 266.856 788.335 269.657 789.523L272 784ZM381 798L382.857 803.705L381 798ZM455 771L457.148 776.602C459.468 775.713 461 773.485 461 771H455ZM455 761H461C461 758.698 459.683 756.599 457.611 755.598L455 761ZM452.985 760.026L452.659 754.035C449.926 754.184 447.64 756.163 447.102 758.847C446.564 761.53 447.91 764.237 450.374 765.428L452.985 760.026ZM455 760L454.54 765.982C456.154 766.107 457.75 765.573 458.965 764.503C460.181 763.433 460.912 761.917 460.992 760.3L455 760ZM456 740L461.992 740.3C462.131 737.532 460.356 735.03 457.698 734.245L456 740ZM419 728L421.363 722.485H421.363L419 728ZM321 443.12L326.009 446.423L321 443.12ZM481.311 374.68L486.661 371.964C485.632 369.937 483.546 368.666 481.273 368.68L481.311 374.68ZM627 512C629.781 506.683 629.781 506.684 629.781 506.684C629.781 506.683 629.781 506.683 629.78 506.683C629.778 506.682 629.776 506.681 629.772 506.679C629.766 506.675 629.755 506.67 629.74 506.662C629.71 506.646 629.664 506.622 629.602 506.59C629.479 506.525 629.294 506.427 629.05 506.297C628.561 506.038 627.836 505.651 626.9 505.147C625.027 504.138 622.311 502.658 618.957 500.785C612.245 497.038 602.989 491.723 592.815 485.456C572.319 472.83 548.639 456.663 534.316 441.832L525.684 450.168C541.143 466.175 565.963 483.008 586.521 495.673C596.875 502.051 606.285 507.454 613.107 511.263C616.519 513.168 619.288 514.677 621.207 515.711C622.167 516.228 622.915 516.627 623.426 516.898C623.681 517.033 623.877 517.137 624.01 517.207C624.077 517.242 624.128 517.269 624.163 517.287C624.18 517.296 624.193 517.303 624.203 517.308C624.208 517.311 624.211 517.313 624.214 517.314C624.215 517.315 624.216 517.315 624.217 517.316C624.218 517.316 624.219 517.317 627 512ZM653.991 565.665C653.188 551.339 647.525 536.978 642.324 526.489C639.693 521.183 637.112 516.732 635.184 513.6C634.218 512.032 633.413 510.789 632.843 509.928C632.558 509.498 632.331 509.163 632.172 508.93C632.092 508.814 632.029 508.723 631.985 508.659C631.963 508.627 631.945 508.601 631.932 508.582C631.925 508.573 631.92 508.565 631.915 508.559C631.913 508.556 631.911 508.554 631.91 508.552C631.909 508.551 631.908 508.549 631.908 508.549C631.907 508.547 631.906 508.546 627 512C622.094 515.454 622.093 515.453 622.092 515.452C622.092 515.452 622.092 515.451 622.092 515.451C622.091 515.45 622.091 515.45 622.092 515.451C622.092 515.452 622.094 515.454 622.097 515.458C622.102 515.466 622.112 515.481 622.127 515.502C622.157 515.544 622.204 515.612 622.268 515.706C622.395 515.892 622.589 516.179 622.841 516.559C623.344 517.318 624.077 518.448 624.965 519.891C626.745 522.782 629.138 526.908 631.573 531.82C636.505 541.767 641.341 554.406 642.009 566.335L653.991 565.665ZM655.102 578.429C654.667 574.241 654.239 570.101 653.991 565.665L642.009 566.335C642.276 571.097 642.734 575.509 643.166 579.667L655.102 578.429ZM639.367 656.683C649.047 637.322 653.6 622.872 655.384 610.522C657.168 598.167 656.119 588.243 655.102 578.429L643.166 579.667C644.186 589.504 645.056 598.085 643.507 608.807C641.957 619.535 637.924 632.736 628.633 651.317L639.367 656.683ZM567 736C570.799 740.644 570.8 740.643 570.802 740.642C570.802 740.641 570.803 740.64 570.805 740.639C570.807 740.637 570.81 740.635 570.814 740.632C570.822 740.625 570.832 740.617 570.845 740.606C570.871 740.585 570.907 740.555 570.954 740.517C571.047 740.439 571.181 740.328 571.355 740.182C571.702 739.891 572.205 739.465 572.85 738.911C574.138 737.802 575.991 736.177 578.28 734.088C582.855 729.911 589.185 723.866 596.245 716.361C610.318 701.4 627.5 680.415 639.367 656.683L628.633 651.317C617.499 673.585 601.181 693.6 587.505 708.139C580.689 715.384 574.582 721.214 570.189 725.225C567.993 727.229 566.229 728.776 565.021 729.816C564.418 730.335 563.954 730.728 563.645 730.987C563.49 731.116 563.375 731.212 563.3 731.274C563.263 731.305 563.236 731.327 563.219 731.341C563.211 731.348 563.205 731.353 563.202 731.355C563.2 731.356 563.199 731.357 563.199 731.357C563.199 731.357 563.199 731.357 563.199 731.357C563.2 731.357 563.201 731.356 567 736ZM593.134 788.651C585.663 781.55 580.5 768.721 577.225 756.685C575.631 750.829 574.561 745.458 573.889 741.55C573.554 739.6 573.32 738.024 573.171 736.945C573.096 736.406 573.043 735.992 573.009 735.718C572.992 735.582 572.98 735.48 572.972 735.416C572.969 735.383 572.966 735.361 572.964 735.347C572.964 735.341 572.963 735.336 572.963 735.334C572.963 735.333 572.963 735.333 572.963 735.333C572.963 735.333 572.963 735.334 572.963 735.334C572.963 735.335 572.963 735.336 567 736C561.037 736.664 561.037 736.665 561.037 736.667C561.037 736.667 561.037 736.669 561.038 736.67C561.038 736.673 561.038 736.676 561.039 736.68C561.04 736.688 561.041 736.699 561.042 736.711C561.045 736.737 561.049 736.772 561.054 736.817C561.065 736.906 561.08 737.033 561.1 737.196C561.141 737.522 561.201 737.992 561.284 738.589C561.449 739.782 561.703 741.489 562.062 743.583C562.781 747.762 563.928 753.521 565.646 759.836C568.994 772.14 574.832 787.811 584.866 797.349L593.134 788.651ZM692 824C692.994 818.083 692.994 818.083 692.994 818.083C692.993 818.083 692.993 818.083 692.992 818.083C692.99 818.082 692.987 818.082 692.982 818.081C692.973 818.079 692.958 818.077 692.939 818.074C692.9 818.067 692.842 818.057 692.763 818.044C692.606 818.017 692.37 817.976 692.06 817.923C691.44 817.815 690.525 817.655 689.351 817.445C687.003 817.024 683.623 816.403 679.509 815.606C671.277 814.01 660.136 811.714 648.468 808.906C636.778 806.093 624.672 802.793 614.47 799.203C603.954 795.503 596.476 791.828 593.134 788.651L584.866 797.349C590.276 802.491 600.049 806.851 610.487 810.523C621.239 814.306 633.789 817.716 645.661 820.573C657.555 823.435 668.881 825.769 677.226 827.386C681.402 828.196 684.838 828.827 687.233 829.256C688.432 829.471 689.37 829.635 690.011 829.747C690.332 829.802 690.578 829.844 690.745 829.873C690.829 829.887 690.893 829.898 690.937 829.905C690.958 829.909 690.975 829.912 690.987 829.914C690.993 829.915 690.997 829.916 691 829.916C691.002 829.916 691.003 829.917 691.004 829.917C691.005 829.917 691.006 829.917 692 824ZM673.688 817.173C677.003 820.598 680.821 823.584 683.721 825.669C685.189 826.725 686.461 827.578 687.375 828.172C687.832 828.47 688.201 828.704 688.461 828.866C688.591 828.948 688.695 829.012 688.769 829.057C688.805 829.08 688.835 829.098 688.857 829.111C688.868 829.118 688.877 829.123 688.884 829.127C688.887 829.129 688.89 829.131 688.893 829.133C688.894 829.134 688.895 829.134 688.896 829.135C688.897 829.135 688.898 829.136 688.898 829.136C688.898 829.136 688.899 829.137 692 824C695.101 818.863 695.101 818.864 695.102 818.864C695.102 818.864 695.103 818.864 695.103 818.865C695.103 818.865 695.104 818.865 695.104 818.865C695.105 818.866 695.105 818.866 695.104 818.866C695.104 818.865 695.101 818.863 695.096 818.861C695.087 818.855 695.071 818.845 695.047 818.831C695 818.802 694.924 818.755 694.822 818.691C694.618 818.564 694.31 818.369 693.919 818.114C693.133 817.603 692.018 816.855 690.727 815.927C688.11 814.045 684.928 811.531 682.312 808.827L673.688 817.173ZM662 793C657.144 796.525 657.144 796.525 657.145 796.525C657.145 796.525 657.145 796.526 657.145 796.526C657.146 796.527 657.146 796.527 657.147 796.529C657.149 796.531 657.151 796.534 657.154 796.537C657.159 796.545 657.167 796.556 657.177 796.57C657.198 796.598 657.228 796.64 657.267 796.693C657.345 796.8 657.459 796.956 657.606 797.156C657.899 797.556 658.322 798.131 658.849 798.84C659.9 800.256 661.365 802.21 663.021 804.361C666.273 808.587 670.459 813.836 673.688 817.173L682.312 808.827C679.61 806.035 675.795 801.284 672.531 797.042C670.927 794.959 669.505 793.063 668.483 791.686C667.973 790.999 667.563 790.443 667.283 790.06C667.142 789.869 667.034 789.721 666.962 789.622C666.926 789.572 666.899 789.534 666.881 789.51C666.872 789.498 666.865 789.489 666.861 789.483C666.859 789.48 666.857 789.478 666.856 789.477C666.856 789.476 666.856 789.476 666.856 789.475C666.855 789.475 666.855 789.475 666.855 789.475C666.855 789.475 666.856 789.475 662 793ZM701.352 796.01C694.44 795.604 685.199 793.501 677.395 791.377C673.556 790.331 670.175 789.312 667.756 788.555C666.548 788.177 665.582 787.865 664.923 787.649C664.594 787.541 664.341 787.457 664.173 787.401C664.089 787.372 664.026 787.351 663.986 787.338C663.965 787.331 663.951 787.326 663.941 787.323C663.937 787.321 663.934 787.32 663.932 787.32C663.931 787.319 663.931 787.319 663.931 787.319C663.93 787.319 663.931 787.319 663.931 787.319C663.931 787.319 663.931 787.319 662 793C660.069 798.681 660.069 798.681 660.07 798.681C660.07 798.681 660.071 798.681 660.072 798.682C660.073 798.682 660.075 798.683 660.077 798.683C660.081 798.685 660.086 798.687 660.093 798.689C660.107 798.694 660.127 798.7 660.152 798.709C660.203 798.726 660.276 798.75 660.37 798.782C660.559 798.845 660.833 798.936 661.186 799.052C661.89 799.283 662.906 799.611 664.171 800.007C666.697 800.798 670.226 801.862 674.243 802.955C682.153 805.108 692.411 807.505 700.648 807.99L701.352 796.01ZM747 798C746.06 792.074 746.061 792.074 746.061 792.074C746.061 792.074 746.061 792.074 746.06 792.074C746.06 792.074 746.059 792.074 746.057 792.075C746.054 792.075 746.05 792.076 746.043 792.077C746.03 792.079 746.009 792.082 745.981 792.086C745.926 792.095 745.842 792.108 745.731 792.126C745.508 792.16 745.177 792.211 744.748 792.276C743.89 792.405 742.644 792.59 741.099 792.81C738.006 793.249 733.73 793.826 728.991 794.374C719.361 795.488 708.341 796.421 701.352 796.01L700.648 807.99C708.808 808.47 720.787 807.403 730.37 806.294C735.238 805.731 739.621 805.141 742.787 804.691C744.371 804.466 745.653 804.275 746.542 804.141C746.986 804.074 747.332 804.021 747.569 803.984C747.687 803.966 747.778 803.951 747.841 803.942C747.872 803.937 747.896 803.933 747.912 803.93C747.92 803.929 747.927 803.928 747.931 803.927C747.934 803.927 747.935 803.927 747.937 803.926C747.937 803.926 747.938 803.926 747.938 803.926C747.939 803.926 747.939 803.926 747 798ZM724.317 796.367C727.998 798.207 733.396 800.077 737.584 801.422C739.738 802.114 741.681 802.701 743.085 803.115C743.788 803.322 744.359 803.487 744.756 803.6C744.955 803.657 745.11 803.701 745.217 803.732C745.271 803.747 745.313 803.758 745.342 803.766C745.356 803.771 745.367 803.774 745.375 803.776C745.379 803.777 745.383 803.778 745.385 803.779C745.386 803.779 745.387 803.779 745.388 803.779C745.388 803.78 745.389 803.78 745.389 803.78C745.389 803.78 745.39 803.78 747 798C748.61 792.22 748.61 792.22 748.611 792.22C748.611 792.22 748.611 792.22 748.611 792.22C748.611 792.22 748.61 792.22 748.61 792.22C748.609 792.22 748.607 792.219 748.605 792.219C748.6 792.217 748.591 792.215 748.58 792.212C748.557 792.205 748.522 792.195 748.475 792.182C748.381 792.156 748.239 792.115 748.054 792.063C747.685 791.957 747.147 791.802 746.479 791.605C745.141 791.21 743.294 790.652 741.254 789.997C737.055 788.648 732.453 787.018 729.683 785.633L724.317 796.367ZM709 779C705.37 783.778 705.37 783.778 705.371 783.778C705.371 783.778 705.371 783.778 705.372 783.779C705.372 783.779 705.373 783.78 705.374 783.78C705.376 783.782 705.379 783.784 705.382 783.787C705.389 783.792 705.398 783.799 705.411 783.808C705.435 783.827 705.47 783.853 705.516 783.888C705.607 783.957 705.74 784.057 705.909 784.184C706.249 784.438 706.738 784.803 707.344 785.25C708.553 786.142 710.237 787.368 712.13 788.699C715.812 791.288 720.644 794.53 724.317 796.367L729.683 785.633C726.905 784.244 722.737 781.487 719.032 778.882C717.231 777.616 715.624 776.446 714.467 775.593C713.889 775.167 713.425 774.821 713.108 774.583C712.95 774.464 712.828 774.372 712.747 774.311C712.706 774.28 712.676 774.257 712.656 774.242C712.646 774.235 712.639 774.23 712.635 774.226C712.632 774.225 712.631 774.223 712.63 774.223C712.63 774.222 712.629 774.222 712.629 774.222C712.629 774.222 712.629 774.222 712.629 774.222C712.63 774.222 712.63 774.222 709 779ZM780.677 760.468C766.284 766.513 748.454 769.686 733.942 771.32C726.741 772.131 720.467 772.552 716.001 772.769C713.769 772.878 711.993 772.936 710.783 772.966C710.178 772.982 709.715 772.99 709.407 772.995C709.253 772.997 709.139 772.998 709.064 772.999C709.027 773 709.001 773 708.984 773C708.976 773 708.97 773 708.967 773C708.966 773 708.965 773 708.965 773C708.964 773 708.965 773 708.965 773C708.965 773 708.966 773 709 779C709.034 785 709.035 785 709.036 785C709.037 785 709.038 785 709.039 785C709.042 785 709.045 785 709.049 785C709.056 785 709.066 785 709.079 785C709.105 784.999 709.141 784.999 709.188 784.999C709.281 784.998 709.414 784.996 709.588 784.993C709.934 784.988 710.438 784.979 711.086 784.963C712.381 784.93 714.251 784.869 716.585 784.755C721.248 784.528 727.781 784.09 735.285 783.245C750.182 781.567 769.353 778.24 785.323 771.532L780.677 760.468ZM859 716C855.206 711.352 855.206 711.352 855.206 711.352C855.206 711.352 855.206 711.352 855.205 711.352C855.205 711.353 855.203 711.354 855.201 711.356C855.196 711.36 855.189 711.366 855.179 711.374C855.159 711.39 855.128 711.416 855.086 711.449C855.003 711.517 854.877 711.619 854.71 711.754C854.377 712.023 853.881 712.422 853.237 712.936C851.948 713.965 850.068 715.453 847.715 717.28C843.006 720.937 836.415 725.944 828.889 731.342C813.708 742.232 795.182 754.376 780.677 760.468L785.323 771.532C801.182 764.871 820.656 752.016 835.883 741.093C843.562 735.585 850.278 730.483 855.075 726.758C857.475 724.894 859.397 723.373 860.723 722.315C861.386 721.786 861.9 721.372 862.25 721.089C862.425 720.948 862.559 720.839 862.65 720.765C862.696 720.728 862.731 720.7 862.755 720.68C862.767 720.67 862.776 720.663 862.783 720.657C862.786 720.655 862.788 720.653 862.79 720.651C862.791 720.65 862.792 720.65 862.793 720.649C862.793 720.649 862.794 720.648 859 716ZM809.116 699.573C816.113 705.516 828.512 711.076 838.396 714.99C843.485 717.005 848.173 718.684 851.587 719.859C853.296 720.447 854.69 720.91 855.662 721.228C856.148 721.387 856.529 721.51 856.79 721.594C856.921 721.635 857.022 721.667 857.092 721.69C857.127 721.701 857.154 721.709 857.173 721.715C857.182 721.718 857.19 721.72 857.195 721.722C857.198 721.723 857.2 721.724 857.202 721.724C857.203 721.724 857.203 721.725 857.204 721.725C857.205 721.725 857.205 721.725 859 716C860.795 710.275 860.795 710.275 860.795 710.275C860.795 710.275 860.795 710.275 860.795 710.275C860.795 710.275 860.794 710.274 860.792 710.274C860.79 710.273 860.785 710.272 860.778 710.27C860.765 710.265 860.743 710.258 860.714 710.249C860.655 710.231 860.565 710.202 860.446 710.164C860.208 710.088 859.852 709.973 859.392 709.823C858.472 709.522 857.136 709.078 855.492 708.512C852.199 707.379 847.69 705.764 842.814 703.833C832.769 699.855 822.168 694.915 816.884 690.427L809.116 699.573ZM786 654C780.594 656.603 780.594 656.604 780.595 656.604C780.595 656.605 780.595 656.606 780.596 656.606C780.596 656.608 780.597 656.61 780.599 656.613C780.601 656.618 780.604 656.625 780.609 656.633C780.617 656.651 780.629 656.676 780.645 656.708C780.676 656.771 780.721 656.864 780.779 656.983C780.896 657.221 781.066 657.567 781.286 658.009C781.725 658.891 782.363 660.156 783.166 661.703C784.77 664.794 787.041 669.031 789.711 673.61C794.894 682.502 802.095 693.61 809.116 699.573L816.884 690.427C811.624 685.959 805.325 676.568 800.078 667.567C797.533 663.2 795.357 659.143 793.817 656.176C793.048 654.694 792.441 653.489 792.027 652.659C791.82 652.244 791.663 651.923 791.558 651.709C791.505 651.602 791.466 651.521 791.44 651.468C791.428 651.442 791.418 651.423 791.413 651.411C791.41 651.405 791.408 651.401 791.407 651.399C791.406 651.397 791.406 651.397 791.406 651.396C791.406 651.396 791.406 651.396 791.406 651.396C791.406 651.397 791.406 651.397 786 654ZM807.25 599.285C804.323 609.099 797.867 621.85 791.919 632.439C788.982 637.668 786.236 642.256 784.224 645.535C783.218 647.173 782.398 648.482 781.832 649.377C781.549 649.825 781.33 650.169 781.182 650.399C781.108 650.514 781.053 650.601 781.016 650.657C780.998 650.686 780.984 650.707 780.976 650.72C780.971 650.727 780.968 650.731 780.967 650.734C780.966 650.736 780.965 650.737 780.965 650.737C780.965 650.737 780.965 650.737 780.965 650.737C780.965 650.737 780.965 650.737 786 654C791.035 657.263 791.035 657.263 791.036 657.262C791.036 657.262 791.036 657.261 791.037 657.26C791.038 657.259 791.039 657.257 791.041 657.254C791.044 657.249 791.049 657.242 791.054 657.233C791.066 657.216 791.082 657.191 791.103 657.158C791.145 657.092 791.207 656.996 791.287 656.872C791.446 656.623 791.678 656.26 791.974 655.791C792.566 654.855 793.415 653.5 794.452 651.811C796.523 648.435 799.352 643.711 802.382 638.316C808.368 627.657 815.411 613.908 818.75 602.715L807.25 599.285ZM811.339 587.058C810.017 590.783 808.58 594.826 807.25 599.285L818.75 602.715C819.979 598.593 821.315 594.826 822.648 591.073L811.339 587.058ZM814.232 541.654C817.264 552.223 817.697 560.04 816.894 566.781C816.075 573.652 813.955 579.692 811.339 587.058L822.648 591.073C825.204 583.872 827.808 576.607 828.81 568.201C829.827 559.666 829.177 550.234 825.767 538.346L814.232 541.654ZM796.469 513.695C804.435 522.373 810.675 529.252 814.232 541.654L825.767 538.346C821.362 522.987 813.315 514.302 805.309 505.581L796.469 513.695ZM770.431 474.232C778.339 493.96 788.103 504.582 796.469 513.695L805.309 505.581C797.174 496.718 788.64 487.405 781.569 469.768L770.431 474.232ZM755.611 417.513C760.255 439.256 764.593 459.67 770.431 474.232L781.569 469.768C776.204 456.383 772.077 437.159 767.346 415.007L755.611 417.513ZM721.81 311.01C739.216 341.021 747.912 381.463 755.611 417.513L767.346 415.007C759.754 379.457 750.74 336.973 732.19 304.99L721.81 311.01ZM651.256 235.336C668.537 244.223 678.813 250.845 688.36 261.09C698.083 271.524 707.274 285.949 721.81 311.01L732.19 304.99C717.726 280.051 707.917 264.476 697.14 252.91C686.187 241.155 674.463 233.777 656.744 224.664L651.256 235.336ZM614.673 227.541C620.047 226.991 624.259 226.581 629.523 227.39C634.799 228.201 641.477 230.306 651.256 235.336L656.744 224.664C646.224 219.254 638.287 216.597 631.346 215.53C624.394 214.461 618.786 215.057 613.45 215.604L614.673 227.541ZM581.695 225.856C597.226 229.318 606.653 228.363 614.673 227.541L613.45 215.604C605.959 216.371 598.008 217.197 584.305 214.144L581.695 225.856ZM546.433 213.17C557.16 217.928 568.225 222.854 581.695 225.856L584.305 214.144C572.156 211.436 562.112 206.998 551.299 202.201L546.433 213.17ZM479 197C509.956 197 528.132 205.051 546.433 213.17L551.299 202.201C532.622 193.915 512.553 185 479 185V197ZM435.376 208.722C439.902 204.794 442.945 202.202 448.457 200.303C454.215 198.32 463.032 197 479 197V185C462.609 185 452.203 186.321 444.55 188.957C436.651 191.678 432.094 195.681 427.51 199.66L435.376 208.722ZM409.459 225.473C423.145 219.323 429.925 213.453 435.376 208.722L427.51 199.66C422.44 204.06 416.684 209.071 404.541 214.527L409.459 225.473ZM285.278 312.207C325.305 271.505 374.746 241.071 409.459 225.473L404.541 214.527C368.69 230.636 317.952 261.868 276.722 303.793L285.278 312.207ZM222.305 478.42C227.228 456.651 234.769 423.322 245.306 391.131C255.936 358.658 269.271 328.484 285.278 312.207L276.722 303.793C258.566 322.255 244.545 354.882 233.901 387.398C223.165 420.197 215.514 454.047 210.601 475.773L222.305 478.42ZM217.794 497.56C218.947 493.274 220.458 486.588 222.305 478.42L210.601 475.773C208.725 484.068 207.28 490.451 206.206 494.44L217.794 497.56ZM206.381 522.938C210.067 517.101 214.369 510.278 217.794 497.56L206.206 494.44C203.244 505.443 199.68 511.075 196.235 516.53L206.381 522.938ZM197.972 546.583C198.59 540.246 199.739 535.938 201.12 532.532C202.521 529.073 204.235 526.336 206.381 522.938L196.235 516.53C194.131 519.862 191.856 523.441 189.998 528.025C188.12 532.661 186.74 538.121 186.028 545.417L197.972 546.583ZM202.195 561.897C200.336 560.38 199.442 559.576 198.77 558.041C198.04 556.375 197.33 553.162 197.972 546.583L186.028 545.417C185.285 553.033 185.898 558.561 187.777 562.854C189.714 567.277 192.714 569.649 194.611 571.196L202.195 561.897ZM210 578C210 573.727 209.145 570.308 207.407 567.452C205.756 564.737 203.547 562.999 202.195 561.897L194.611 571.196C196.138 572.441 196.728 572.986 197.155 573.688C197.496 574.249 198 575.383 198 578H210ZM206.457 597.125C208.065 591.783 210 585.472 210 578H198C198 583.468 196.616 588.184 194.966 593.666L206.457 597.125ZM204.756 619.307C202.343 611.101 204.087 604.999 206.457 597.125L194.966 593.666C192.597 601.538 189.731 610.75 193.244 622.693L204.756 619.307ZM242 655C244.45 649.523 244.451 649.523 244.451 649.524C244.451 649.524 244.452 649.524 244.452 649.524C244.452 649.524 244.451 649.524 244.45 649.523C244.448 649.522 244.443 649.52 244.437 649.517C244.423 649.511 244.401 649.501 244.369 649.487C244.307 649.458 244.21 649.414 244.081 649.355C243.822 649.235 243.433 649.055 242.931 648.816C241.928 648.34 240.476 647.635 238.713 646.735C235.179 644.93 230.439 642.362 225.572 639.298C220.679 636.217 215.807 632.727 211.924 629.1C207.927 625.366 205.552 622.014 204.756 619.307L193.244 622.693C194.948 628.486 199.198 633.634 203.732 637.869C208.381 642.211 213.946 646.158 219.178 649.452C224.436 652.763 229.508 655.508 233.255 657.422C235.133 658.381 236.69 659.137 237.784 659.656C238.331 659.916 238.763 660.117 239.063 660.255C239.213 660.324 239.33 660.378 239.412 660.415C239.453 660.433 239.485 660.448 239.508 660.458C239.52 660.463 239.529 660.468 239.536 660.471C239.539 660.472 239.542 660.474 239.545 660.475C239.546 660.475 239.547 660.476 239.548 660.476C239.549 660.476 239.55 660.477 242 655ZM234.093 690.172C237.821 684.187 241.248 675.671 243.668 668.987C244.903 665.578 245.92 662.52 246.629 660.314C246.984 659.21 247.262 658.315 247.453 657.693C247.549 657.382 247.623 657.138 247.673 656.97C247.699 656.886 247.718 656.821 247.731 656.776C247.738 656.753 247.743 656.736 247.747 656.723C247.749 656.717 247.751 656.712 247.752 656.708C247.752 656.706 247.753 656.705 247.753 656.703C247.753 656.703 247.753 656.702 247.754 656.702C247.754 656.701 247.754 656.701 242 655C236.246 653.299 236.246 653.299 236.246 653.299C236.246 653.299 236.246 653.298 236.246 653.298C236.246 653.299 236.246 653.299 236.246 653.3C236.246 653.301 236.245 653.304 236.244 653.308C236.241 653.315 236.237 653.328 236.232 653.346C236.221 653.382 236.205 653.437 236.183 653.511C236.138 653.659 236.071 653.881 235.982 654.17C235.805 654.748 235.541 655.593 235.204 656.644C234.528 658.747 233.559 661.661 232.386 664.9C229.991 671.512 226.917 678.995 223.907 683.828L234.093 690.172ZM204 716C208.233 720.252 208.234 720.251 208.234 720.251C208.234 720.251 208.235 720.25 208.235 720.25C208.236 720.249 208.237 720.248 208.239 720.247C208.241 720.244 208.245 720.24 208.25 720.235C208.261 720.225 208.275 720.21 208.294 720.192C208.331 720.154 208.385 720.1 208.456 720.029C208.597 719.888 208.802 719.682 209.064 719.416C209.589 718.886 210.342 718.119 211.265 717.167C213.111 715.265 215.644 712.612 218.395 709.611C223.79 703.728 230.395 696.109 234.093 690.172L223.907 683.828C220.867 688.709 214.971 695.59 209.55 701.502C206.894 704.399 204.441 706.968 202.652 708.813C201.758 709.734 201.032 710.473 200.531 710.979C200.281 711.232 200.087 711.427 199.957 711.557C199.893 711.622 199.844 711.671 199.811 711.703C199.795 711.719 199.783 711.731 199.776 711.739C199.772 711.742 199.77 711.745 199.768 711.747C199.767 711.748 199.767 711.748 199.766 711.748C199.766 711.748 199.766 711.748 199.766 711.748C199.766 711.748 199.766 711.748 204 716ZM231.307 706.244C225.232 708.031 218.416 708.985 212.995 709.483C210.312 709.729 208.026 709.859 206.419 709.927C205.617 709.961 204.987 709.979 204.564 709.989C204.353 709.994 204.193 709.997 204.091 709.998C204.039 709.999 204.002 710 203.98 710C203.968 710 203.961 710 203.957 710C203.955 710 203.954 710 203.954 710C203.954 710 203.954 710 203.955 710C203.955 710 203.956 710 203.956 710C203.956 710 203.957 710 204 716C204.043 722 204.044 722 204.045 722C204.045 722 204.046 722 204.046 722C204.048 722 204.05 722 204.051 722C204.055 722 204.06 722 204.066 722C204.077 722 204.093 721.999 204.112 721.999C204.15 721.999 204.203 721.998 204.27 721.997C204.405 721.995 204.598 721.992 204.844 721.986C205.336 721.974 206.042 721.954 206.926 721.916C208.692 721.842 211.179 721.7 214.093 721.432C219.869 720.902 227.553 719.856 234.693 717.756L231.307 706.244ZM272 696C269.449 690.569 269.449 690.569 269.449 690.569C269.449 690.569 269.449 690.569 269.448 690.57C269.448 690.57 269.447 690.57 269.446 690.571C269.443 690.572 269.439 690.574 269.433 690.577C269.422 690.582 269.404 690.59 269.381 690.601C269.334 690.623 269.263 690.656 269.169 690.7C268.982 690.788 268.703 690.918 268.343 691.085C267.622 691.419 266.575 691.902 265.275 692.494C262.676 693.68 259.074 695.299 255.067 697.038C246.953 700.56 237.515 704.418 231.307 706.244L234.693 717.756C241.7 715.695 251.763 711.554 259.844 708.047C263.935 706.271 267.606 704.62 270.254 703.413C271.578 702.809 272.649 702.315 273.39 701.972C273.76 701.8 274.049 701.666 274.245 701.574C274.344 701.528 274.419 701.493 274.47 701.468C274.496 701.456 274.516 701.447 274.529 701.441C274.536 701.438 274.541 701.435 274.545 701.434C274.547 701.433 274.548 701.432 274.549 701.432C274.55 701.431 274.55 701.431 274.55 701.431C274.551 701.431 274.551 701.431 272 696ZM247.883 730.574C253.569 725.747 260.816 717.959 266.48 711.594C269.35 708.369 271.88 705.433 273.693 703.304C274.6 702.238 275.329 701.373 275.832 700.772C276.084 700.472 276.28 700.237 276.413 700.077C276.48 699.997 276.532 699.935 276.567 699.893C276.584 699.872 276.597 699.855 276.607 699.844C276.611 699.839 276.615 699.834 276.618 699.831C276.619 699.83 276.62 699.828 276.621 699.827C276.621 699.827 276.621 699.827 276.622 699.826C276.622 699.826 276.622 699.826 272 696C267.378 692.174 267.378 692.174 267.378 692.174C267.378 692.174 267.378 692.174 267.378 692.174C267.377 692.175 267.377 692.175 267.376 692.176C267.374 692.178 267.372 692.182 267.368 692.186C267.36 692.195 267.349 692.209 267.333 692.228C267.302 692.266 267.255 692.323 267.192 692.398C267.066 692.549 266.879 692.774 266.636 693.064C266.15 693.644 265.441 694.486 264.555 695.525C262.784 697.606 260.313 700.473 257.516 703.617C251.846 709.988 245.093 717.201 240.117 721.426L247.883 730.574ZM219 741C221.299 746.542 221.3 746.542 221.3 746.541C221.301 746.541 221.302 746.541 221.302 746.541C221.304 746.54 221.306 746.539 221.307 746.539C221.311 746.537 221.316 746.535 221.321 746.533C221.332 746.528 221.347 746.522 221.365 746.515C221.4 746.5 221.45 746.479 221.512 746.452C221.636 746.399 221.813 746.323 222.038 746.225C222.487 746.029 223.129 745.744 223.926 745.375C225.52 744.637 227.748 743.561 230.322 742.191C235.423 739.474 242.091 735.492 247.883 730.574L240.117 721.426C235.247 725.561 229.415 729.078 224.682 731.599C222.339 732.846 220.315 733.823 218.887 734.484C218.174 734.814 217.612 735.064 217.236 735.228C217.047 735.31 216.906 735.371 216.815 735.41C216.77 735.429 216.737 735.443 216.718 735.451C216.709 735.455 216.702 735.457 216.699 735.459C216.698 735.459 216.697 735.459 216.698 735.459C216.698 735.459 216.698 735.459 216.699 735.459C216.699 735.459 216.7 735.458 216.7 735.458C216.7 735.458 216.701 735.458 219 741ZM275 752C265.343 752 252.23 748.116 240.989 743.885C235.485 741.813 230.632 739.738 227.156 738.181C225.42 737.403 224.033 736.757 223.087 736.308C222.613 736.084 222.25 735.909 222.009 735.792C221.888 735.734 221.798 735.69 221.74 735.661C221.711 735.647 221.69 735.636 221.677 735.63C221.67 735.627 221.666 735.625 221.663 735.624C221.662 735.623 221.661 735.623 221.661 735.622C221.661 735.622 221.661 735.623 221.661 735.623C221.662 735.623 221.662 735.623 219 741C216.338 746.377 216.338 746.377 216.339 746.378C216.34 746.378 216.341 746.379 216.342 746.379C216.344 746.38 216.346 746.381 216.349 746.383C216.355 746.386 216.363 746.39 216.373 746.395C216.393 746.404 216.422 746.418 216.458 746.436C216.531 746.472 216.637 746.524 216.773 746.59C217.045 746.722 217.441 746.912 217.949 747.153C218.964 747.634 220.428 748.316 222.25 749.132C225.889 750.762 230.974 752.937 236.761 755.115C248.104 759.384 262.99 764 275 764V752ZM313.09 754.927C309.212 754.283 294.137 752 275 752V764C293.254 764 307.629 766.184 311.123 766.765L313.09 754.927ZM306.309 762.391C306.547 763.284 306.782 764.162 307.012 765.024L318.604 761.919C318.374 761.062 318.141 760.19 317.905 759.302L306.309 762.391ZM306.748 783.685C315.381 776.779 317.999 768.999 318.733 764.421L306.884 762.522C306.532 764.721 305.144 769.601 299.252 774.315L306.748 783.685ZM272 784C271.001 789.916 271.003 789.917 271.004 789.917C271.005 789.917 271.007 789.917 271.008 789.917C271.01 789.918 271.013 789.918 271.016 789.919C271.023 789.92 271.03 789.921 271.039 789.923C271.057 789.925 271.079 789.929 271.107 789.934C271.161 789.942 271.236 789.954 271.328 789.968C271.514 789.996 271.774 790.034 272.1 790.078C272.753 790.166 273.676 790.278 274.809 790.382C277.065 790.589 280.202 790.772 283.72 790.666C290.444 790.463 299.877 789.182 306.748 783.685L299.252 774.315C295.561 777.267 289.494 778.486 283.358 778.671C280.447 778.759 277.814 778.607 275.908 778.432C274.96 778.345 274.204 778.253 273.697 778.185C273.445 778.151 273.255 778.123 273.136 778.105C273.076 778.096 273.035 778.089 273.011 778.086C273 778.084 272.993 778.083 272.991 778.082C272.989 778.082 272.99 778.082 272.991 778.082C272.992 778.083 272.993 778.083 272.994 778.083C272.994 778.083 272.996 778.083 272.996 778.083C272.997 778.083 272.999 778.084 272 784ZM379.142 792.295C359.31 798.752 333.45 795.618 311.775 790.416C301.083 787.85 291.69 784.852 284.97 782.495C281.614 781.317 278.935 780.303 277.104 779.588C276.189 779.23 275.487 778.947 275.02 778.756C274.786 778.661 274.611 778.588 274.497 778.541C274.44 778.517 274.399 778.5 274.373 778.489C274.36 778.484 274.351 778.48 274.346 778.478C274.344 778.477 274.342 778.476 274.342 778.476C274.342 778.476 274.342 778.476 274.342 778.476C274.342 778.476 274.343 778.477 272 784C269.657 789.523 269.658 789.524 269.66 789.525C269.661 789.525 269.662 789.526 269.664 789.527C269.668 789.528 269.672 789.53 269.678 789.532C269.689 789.537 269.704 789.543 269.723 789.551C269.761 789.567 269.815 789.59 269.884 789.619C270.023 789.677 270.223 789.76 270.484 789.866C271.004 790.078 271.762 790.383 272.735 790.764C274.682 791.525 277.495 792.589 280.998 793.818C287.998 796.273 297.792 799.4 308.975 802.084C331.05 807.382 359.69 811.248 382.857 803.705L379.142 792.295ZM455 771C452.852 765.398 452.852 765.398 452.852 765.398C452.851 765.398 452.851 765.398 452.85 765.398C452.849 765.399 452.846 765.4 452.843 765.401C452.837 765.403 452.829 765.407 452.817 765.411C452.793 765.42 452.757 765.434 452.709 765.452C452.614 765.489 452.472 765.543 452.286 765.614C451.913 765.757 451.363 765.967 450.654 766.238C449.236 766.779 447.183 767.56 444.644 768.523C439.567 770.448 432.551 773.095 424.797 775.982C409.252 781.771 390.862 788.479 379.142 792.295L382.857 803.705C394.847 799.802 413.457 793.01 428.984 787.228C436.767 784.33 443.806 781.675 448.899 779.743C451.446 778.778 453.507 777.993 454.931 777.449C455.644 777.178 456.197 776.966 456.573 776.822C456.761 776.751 456.904 776.696 457.001 776.659C457.049 776.64 457.086 776.626 457.11 776.617C457.123 776.612 457.132 776.609 457.138 776.606C457.141 776.605 457.144 776.604 457.145 776.603C457.146 776.603 457.147 776.603 457.147 776.603C457.148 776.602 457.148 776.602 455 771ZM449 761V771H461V761H449ZM450.374 765.428L452.389 766.402L457.611 755.598L455.596 754.624L450.374 765.428ZM453.312 766.017C453.881 765.986 454.259 765.983 454.459 765.985C454.559 765.986 454.614 765.988 454.627 765.988C454.634 765.989 454.63 765.988 454.615 765.988C454.608 765.987 454.598 765.986 454.585 765.986C454.579 765.985 454.572 765.985 454.564 765.984C454.561 765.984 454.557 765.984 454.553 765.983C454.55 765.983 454.548 765.983 454.546 765.983C454.545 765.983 454.544 765.983 454.543 765.983C454.542 765.983 454.542 765.982 454.541 765.982C454.541 765.982 454.54 765.982 455 760C455.46 754.018 455.459 754.018 455.459 754.018C455.458 754.018 455.457 754.017 455.457 754.017C455.456 754.017 455.455 754.017 455.453 754.017C455.451 754.017 455.449 754.017 455.446 754.017C455.442 754.016 455.437 754.016 455.432 754.016C455.422 754.015 455.411 754.014 455.4 754.013C455.377 754.012 455.352 754.01 455.325 754.009C455.27 754.005 455.206 754.002 455.131 753.999C454.982 753.993 454.792 753.987 454.561 753.985C454.099 753.981 453.469 753.991 452.659 754.035L453.312 766.017ZM460.992 760.3L461.992 740.3L450.007 739.7L449.007 759.7L460.992 760.3ZM456 740C457.698 734.245 457.698 734.245 457.698 734.245C457.698 734.245 457.698 734.245 457.697 734.245C457.697 734.245 457.695 734.245 457.694 734.244C457.691 734.243 457.686 734.242 457.679 734.24C457.666 734.236 457.645 734.23 457.618 734.222C457.564 734.206 457.484 734.182 457.378 734.151C457.167 734.088 456.855 733.995 456.454 733.876C455.653 733.638 454.498 733.293 453.087 732.868C450.262 732.017 446.415 730.848 442.32 729.572C433.975 726.973 425.063 724.071 421.363 722.485L416.636 733.515C421.031 735.398 430.619 738.496 438.751 741.029C442.893 742.32 446.779 743.5 449.627 744.358C451.052 744.787 452.219 745.136 453.03 745.377C453.436 745.498 453.752 745.592 453.968 745.656C454.076 745.688 454.159 745.713 454.215 745.729C454.243 745.737 454.265 745.744 454.279 745.748C454.286 745.75 454.292 745.752 454.296 745.753C454.297 745.753 454.299 745.754 454.3 745.754C454.3 745.754 454.301 745.754 454.301 745.754C454.301 745.755 454.302 745.755 456 740ZM421.363 722.485C407.395 716.499 390.364 708.842 367.044 687.567L358.956 696.433C383.636 718.948 401.997 727.241 416.636 733.515L421.363 722.485ZM367.044 687.567C355.571 677.101 342.166 660.372 330.63 641.353C319.087 622.323 309.692 601.456 305.878 582.798L294.122 585.202C298.308 605.679 308.413 627.864 320.37 647.577C332.334 667.3 346.428 685.003 358.956 696.433L367.044 687.567ZM305.878 582.798C298.01 544.306 295.631 492.502 326.009 446.423L315.991 439.818C283.051 489.783 285.99 545.423 294.122 585.202L305.878 582.798ZM326.009 446.423C337.369 429.192 362.261 412.744 392.004 400.506C421.543 388.353 454.669 380.846 481.348 380.679L481.273 368.68C452.725 368.858 418.064 376.809 387.439 389.409C357.018 401.925 329.368 419.526 315.991 439.818L326.009 446.423ZM534.316 441.832C510.978 417.666 492.873 384.202 486.661 371.964L475.96 377.395C482.266 389.819 501.032 424.642 525.684 450.168L534.316 441.832Z" fill="#C0AD87"/>
<path fill-rule="evenodd" clip-rule="evenodd" d="M435.86 671.014C435.86 671.014 475.572 649.265 494.25 636.148C512.928 623.031 546.774 593.122 546.774 593.122C546.774 593.122 574.506 637.155 529.544 679.28C484.583 721.404 435.86 671.014 435.86 671.014Z" fill="#FF9393" stroke="black" stroke-width="12" stroke-linecap="round" stroke-linejoin="round"/>
<path fill-rule="evenodd" clip-rule="evenodd" d="M447.154 672.577C447.154 672.577 452.034 676.032 455.119 678.371C458.203 680.709 464.449 684.531 464.449 684.531L550.113 618.907C550.113 618.907 549.249 614.414 548.345 611.845C547.442 609.275 544.711 603.55 544.711 603.55C544.711 603.55 515.925 628.247 499.848 639.845C483.771 651.442 447.154 672.577 447.154 672.577Z" fill="white" stroke="white" stroke-width="2" stroke-linecap="round" stroke-linejoin="round"/>
<rect x="906.295" y="473.291" width="32" height="669" rx="16" transform="rotate(30 906.295 473.291)" fill="white" stroke="#E86D62" stroke-width="12" stroke-linecap="round" stroke-linejoin="round"/>
<path fill-rule="evenodd" clip-rule="evenodd" d="M596.135 990.504L656.169 990.523L541.169 1189.71L496.135 1163.71L596.135 990.504Z" fill="black"/>
<path fill-rule="evenodd" clip-rule="evenodd" d="M585.099 1017.62L623.204 1039.62L539.704 1184.24L501.599 1162.24L585.099 1017.62Z" fill="#989DA1"/>
<path fill-rule="evenodd" clip-rule="evenodd" d="M636.633 1032.36L584.671 1002.36L568.671 1030.07L581.345 1037.39C581.345 1037.39 596.975 1031.03 605.82 1033.05C614.666 1035.06 627.633 1047.95 627.633 1047.95L636.633 1032.36Z" fill="black"/>
<path fill-rule="evenodd" clip-rule="evenodd" d="M554.671 1054.32L532.171 1093.29L584.133 1123.29L606.633 1084.32L554.671 1054.32Z" fill="black"/>
<path fill-rule="evenodd" clip-rule="evenodd" d="M554.671 1054.32L532.171 1093.29L584.133 1123.29L606.633 1084.32L554.671 1054.32Z" fill="black"/>
<path fill-rule="evenodd" clip-rule="evenodd" d="M557.867 1060.79L539.867 1091.96L591.829 1121.96L609.829 1090.79L557.867 1060.79Z" fill="black"/>
<circle cx="448" cy="515" r="22" fill="white" stroke="black" stroke-width="12" stroke-linecap="round" stroke-linejoin="round"/>
<path d="M421.204 496.573L473.827 477.42" stroke="black" stroke-width="20" stroke-linecap="round" stroke-linejoin="round"/>
<circle cx="28" cy="28" r="22" transform="matrix(-1 0 0 1 380 487)" fill="white" stroke="black" stroke-width="12" stroke-linecap="round" stroke-linejoin="round"/>
<path d="M378.796 496.573L326.173 477.42" stroke="black" stroke-width="20" stroke-linecap="round" stroke-linejoin="round"/>
</g>
<defs>
<clipPath id="clip0_0_432">
<rect width="1080" height="1080" fill="white"/>
</clipPath>
</defs>
</svg>
