<svg width="1080" height="1080" viewBox="0 0 1080 1080" fill="none" xmlns="http://www.w3.org/2000/svg">
<g clip-path="url(#clip0_0_112)">
<rect width="1080" height="1080" fill="white"/>
<rect width="1080" height="1080" fill="#39317A"/>
<path fill-rule="evenodd" clip-rule="evenodd" d="M697.207 573.496C688.516 625.043 660.104 669.891 620 700.015V784C620 828.183 584.183 864 540 864C495.817 864 460 828.183 460 784V735.999C368.71 717.468 300 636.758 300 540C300 429.543 389.543 340 500 340C580.464 340 649.829 387.516 681.567 456.02C713.98 456.851 740 483.387 740 516C740 543.157 721.958 566.099 697.207 573.496Z" fill="#FDD4BC"/>
<path d="M390.531 540.198L382.614 596.533L397.469 605.802" stroke="black" stroke-width="12" stroke-linecap="round" stroke-linejoin="round"/>
<path d="M667.272 531.556C667.272 531.556 671.515 521.657 678.586 514.586C685.657 507.515 695.556 503.272 695.556 503.272" stroke="black" stroke-width="12" stroke-linecap="round" stroke-linejoin="round"/>
<path fill-rule="evenodd" clip-rule="evenodd" d="M460 770.081C321.982 805.605 220 930.893 220 1080C220 1256.73 363.269 1400 540 1400C716.731 1400 860 1256.73 860 1080C860 930.893 758.018 805.605 620 770.081V784C620 828.183 584.183 864 540 864C495.817 864 460 828.183 460 784V770.081Z" fill="white"/>
<path fill-rule="evenodd" clip-rule="evenodd" d="M540 260C645.682 260 739.398 336.845 797.669 455.316L797.663 455.325L801.317 457.535C814.656 465.621 825.273 472.584 829 486C834.005 504.016 833.53 532.4 834.678 552.576L834.685 552.569C836.931 560.504 839.039 568.548 841.003 576.695C850.934 583.971 877.482 612.452 872 632C866.323 652.245 866.59 683.776 872 694L877.81 704.945C898.774 744.331 904.987 755.025 906 767.035C908 790.748 881.677 804.508 885 819C888.323 833.492 919 845.795 922 861.886C925 877.976 912 886.597 912 905C912 923.403 931 933.335 931 961C931 988.665 915.365 992.508 912 1031.26C909.757 1057.1 914.424 1073.34 926 1080L912.973 1079.95C871.152 1079.8 830.831 1079.81 792.011 1079.98L788 1080C745.586 1080.2 703.586 1080.2 662 1080C634 1035.33 623.333 995.667 630 961C640 909 683 912.188 683 887.292C683 862.396 583 806 595 767C607 728 595 711.142 595 653.554C595 595.966 643.33 582.749 651 533.297C658.67 483.846 618.534 509.717 607 465.547C595.466 421.378 619.474 422.921 595 399.491C581.381 386.453 554.511 366.792 514.391 340.51C509.637 340.172 504.839 340 500 340C389.543 340 300 429.543 300 540C300 636.758 368.71 717.468 459.999 735.999L460 740L460.235 741.543C464.072 767.137 467.523 811.528 460 826C452.679 840.083 428 860.89 428 889C428 946.588 330 956 359 996C378.333 1022.67 377.333 1050.67 356 1080H134L135.993 1077.47C157.182 1050.53 168.851 1032.37 171 1023C174.323 1008.51 148 994.748 150 971.035C151.101 957.98 158.346 946.481 184 898C189.41 887.776 189.677 856.245 184 836C178.323 815.755 207 785.928 216 780C224.412 774.459 216.226 721.442 221.652 691.026C238.001 448.933 374.291 260 540 260Z" fill="#C0AD87"/>
<path d="M680 680C680 680 655.477 741.635 664 778C672.523 814.365 700.002 793.67 710 808C719.998 822.33 710 881 710 881" stroke="#A38450" stroke-width="12" stroke-linecap="round" stroke-linejoin="round"/>
<path d="M834.374 826.68C834.374 826.68 793.84 871.044 797.826 903.15C801.812 935.256 838.777 925.324 848.405 939.688C858.033 954.053 835.644 999.725 835.644 999.725" stroke="#A38450" stroke-width="12" stroke-linecap="round" stroke-linejoin="round"/>
<path d="M745.374 963.68C745.374 963.68 704.84 1008.04 708.826 1040.15C712.812 1072.26 749.372 1057.64 759 1072" stroke="#A38450" stroke-width="12" stroke-linecap="round" stroke-linejoin="round"/>
<path d="M262.784 931.243C262.784 931.243 300.769 963.609 295.278 988.637C289.787 1013.66 253.678 1007.76 243.457 1019.34C233.236 1030.91 253.198 1065.16 253.198 1065.16" stroke="#A38450" stroke-width="12" stroke-linecap="round" stroke-linejoin="round"/>
<path d="M311.845 722.019C311.845 722.019 326.073 769.852 307.837 787.851C289.601 805.85 262.533 781.233 247.657 785.373C232.781 789.514 230.867 829.112 230.867 829.112" stroke="#A38450" stroke-width="12" stroke-linecap="round" stroke-linejoin="round"/>
<path d="M767.774 520.11C767.774 520.11 717.069 565.761 723.933 600.513C730.796 635.266 778.607 626.481 791.933 642.433C805.258 658.385 778.341 706.378 778.341 706.378" stroke="#A38450" stroke-width="12" stroke-linecap="round" stroke-linejoin="round"/>
<path d="M355.226 728.11C355.226 728.11 405.931 773.761 399.067 808.513C392.204 843.266 344.393 834.481 331.067 850.433C317.742 866.385 344.659 914.378 344.659 914.378" stroke="#A38450" stroke-width="12" stroke-linecap="round" stroke-linejoin="round"/>
<path d="M604 320C604 320 661.224 341.133 688 372C714.776 402.867 748 486 748 486" stroke="#A38450" stroke-width="12" stroke-linecap="round" stroke-linejoin="round"/>
<path d="M530 329C530 329 576.097 340.33 597.667 356.88C619.236 373.429 646 418 646 418" stroke="#A38450" stroke-width="12" stroke-linecap="round" stroke-linejoin="round"/>
<path d="M255 717C255 717 251.776 686.245 250.114 659.108C248.453 631.972 264.533 582.532 264.533 582.532" stroke="#A38450" stroke-width="12" stroke-linecap="round" stroke-linejoin="round"/>
<circle cx="464" cy="660" r="36" fill="#FF9393" stroke="black" stroke-width="12" stroke-linecap="round" stroke-linejoin="round"/>
<path fill-rule="evenodd" clip-rule="evenodd" d="M554 911C554 911 567.959 961.559 566 1010C564.041 1058.44 559 1080 559 1080H670L607 911H554Z" fill="#F04949" stroke="black" stroke-width="12" stroke-linecap="round" stroke-linejoin="round"/>
<path fill-rule="evenodd" clip-rule="evenodd" d="M593.51 901C593.51 901 588.49 975 593.51 1007C598.529 1039 611.58 1080 611.58 1080H720C720 1080 689.068 1019.28 684.864 1007C665.059 949.143 665.79 889 665.79 889L593.51 901Z" fill="#F04949" stroke="black" stroke-width="12" stroke-linecap="round" stroke-linejoin="round"/>
<path fill-rule="evenodd" clip-rule="evenodd" d="M455.643 754C455.643 754 388.252 770.942 378.643 782C337.536 829.307 362.755 878.789 374.643 895C396.643 925 466.173 936.514 519.643 934C573.113 931.486 691.643 895 691.643 895C691.643 895 716.643 868 707.643 815C698.643 762 624.643 754 624.643 754C624.643 754 573.233 790.633 519.643 787C466.053 783.367 455.643 754 455.643 754Z" fill="#F04949" stroke="black" stroke-width="12" stroke-linecap="round" stroke-linejoin="round"/>
<path d="M412.643 811C412.643 811 491.828 838.423 535.643 841C579.458 843.577 650.643 825 650.643 825" stroke="black" stroke-width="12" stroke-linecap="round" stroke-linejoin="round"/>
<path d="M376.643 787C376.643 787 379.457 816.556 384.643 828C389.829 839.444 405.643 851 405.643 851" stroke="black" stroke-width="12" stroke-linecap="round" stroke-linejoin="round"/>
<path d="M699.643 800C699.643 800 688.283 823.58 683.643 832C679.003 840.42 669.643 851 669.643 851" stroke="black" stroke-width="12" stroke-linecap="round" stroke-linejoin="round"/>
<path d="M527.643 895C527.643 895 563.893 892.309 589.643 887C615.393 881.691 624.643 875 624.643 875" stroke="black" stroke-width="12" stroke-linecap="round" stroke-linejoin="round"/>
<circle cx="448" cy="515" r="22" fill="white" stroke="black" stroke-width="12" stroke-linecap="round" stroke-linejoin="round"/>
<path d="M421.204 496.573L473.827 477.42" stroke="black" stroke-width="20" stroke-linecap="round" stroke-linejoin="round"/>
<circle cx="28" cy="28" r="22" transform="matrix(-1 0 0 1 380 487)" fill="white" stroke="black" stroke-width="12" stroke-linecap="round" stroke-linejoin="round"/>
<path d="M378.796 496.573L326.173 477.42" stroke="black" stroke-width="20" stroke-linecap="round" stroke-linejoin="round"/>
<path d="M370 405C370 405 418.486 516.85 463.131 544.85C507.777 572.85 652 575 652 575" stroke="black" stroke-width="12" stroke-linecap="round" stroke-linejoin="round"/>
<ellipse cx="484" cy="530.5" rx="68" ry="52.5" fill="black" stroke="black" stroke-width="12" stroke-linecap="round" stroke-linejoin="round"/>
<circle cx="484" cy="529" r="28" transform="rotate(6 484 529)" fill="white"/>
<ellipse cx="472.797" cy="520.784" rx="6" ry="7" transform="rotate(6 472.797 520.784)" fill="black"/>
<ellipse cx="483.686" cy="531.984" rx="4" ry="5" transform="rotate(-84 483.686 531.984)" fill="black"/>
<ellipse cx="496.666" cy="523.293" rx="6" ry="7" transform="rotate(6 496.666 523.293)" fill="black"/>
<path d="M468.141 536.383C468.141 536.383 471.483 545.783 482.616 546.954C493.749 548.124 498.972 539.623 498.972 539.623" stroke="black" stroke-width="6" stroke-linecap="round" stroke-linejoin="round"/>
<path fill-rule="evenodd" clip-rule="evenodd" d="M373.636 282.519C373.636 282.519 405.497 236.921 417.119 215.406C442.41 168.584 437.957 134.529 461.526 115.701C481.131 100.04 503.22 91.8751 524.421 82.1477C559.021 66.2721 594.592 54.4577 637.924 60.1873C707.808 69.4275 750.836 82.8645 773.358 144.215C787.45 182.603 772.566 211.259 766.021 268.549C764.532 281.589 774.08 302.818 772.879 327.699C772.119 343.461 754.307 377.431 754.307 377.431L373.636 282.519Z" fill="#D8D8D8" stroke="black" stroke-width="12" stroke-linecap="round" stroke-linejoin="round"/>
<path fill-rule="evenodd" clip-rule="evenodd" d="M349.594 270.994C351.399 263.753 357.906 258.737 365.36 259.065C397.688 260.484 486.649 266.148 571.734 287.362C656.818 308.576 738.025 345.34 767.235 359.263C773.971 362.474 777.361 369.957 775.556 377.198L751.105 475.264C748.619 485.235 737.505 490.395 728.195 486.044C694.597 470.341 618.654 437.054 539.342 417.279C460.029 397.504 377.348 391.242 340.31 389.333C330.047 388.804 322.657 379.031 325.143 369.06L349.594 270.994Z" fill="#D8D8D8" stroke="black" stroke-width="12" stroke-linecap="round" stroke-linejoin="round"/>
<path fill-rule="evenodd" clip-rule="evenodd" d="M441.126 288.589C437.135 288.045 433.362 290.554 432.319 294.445L420.782 337.493C419.535 342.148 422.655 346.841 427.43 347.491L513.099 359.155C517.09 359.699 520.863 357.19 521.906 353.299L533.443 310.251C534.69 305.596 531.57 300.903 526.795 300.253L441.126 288.589Z" fill="black"/>
</g>
<defs>
<clipPath id="clip0_0_112">
<rect width="1080" height="1080" fill="white"/>
</clipPath>
</defs>
</svg>
