<svg width="1080" height="1080" viewBox="0 0 1080 1080" fill="none" xmlns="http://www.w3.org/2000/svg">
<g clip-path="url(#clip0_0_52)">
<rect width="1080" height="1080" fill="white"/>
<rect width="1080" height="1080" fill="#007A62"/>
<path fill-rule="evenodd" clip-rule="evenodd" d="M697.207 573.496C688.516 625.043 660.104 669.891 620 700.015V784C620 828.183 584.183 864 540 864C495.817 864 460 828.183 460 784V735.999C368.71 717.468 300 636.758 300 540C300 429.543 389.543 340 500 340C580.464 340 649.829 387.516 681.567 456.02C713.98 456.851 740 483.387 740 516C740 543.157 721.958 566.099 697.207 573.496Z" fill="#976944"/>
<path d="M390.531 540.198L382.614 596.533L397.469 605.802" stroke="black" stroke-width="12" stroke-linecap="round" stroke-linejoin="round"/>
<path d="M667.272 531.556C667.272 531.556 671.515 521.657 678.586 514.586C685.657 507.515 695.556 503.272 695.556 503.272" stroke="black" stroke-width="12" stroke-linecap="round" stroke-linejoin="round"/>
<path fill-rule="evenodd" clip-rule="evenodd" d="M460 770.081C321.982 805.605 220 930.893 220 1080C220 1256.73 363.269 1400 540 1400C716.731 1400 860 1256.73 860 1080C860 930.893 758.018 805.605 620 770.081V784C620 828.183 584.183 864 540 864C495.817 864 460 828.183 460 784V770.081Z" fill="#92AD79"/>
<path fill-rule="evenodd" clip-rule="evenodd" d="M291.911 330C286.112 301.347 297.911 241 297.911 241C297.911 241 314.042 260.04 324.911 266C335.78 271.96 359.911 275 359.911 275C359.911 275 348.468 253.255 345.911 237C343.354 220.745 345.911 186 345.911 186C345.911 186 367.469 215.896 382.911 227C398.353 238.104 434.911 250 434.911 250C434.911 250 419.643 237.54 413.911 227C408.178 216.46 403.911 193 403.911 193C403.911 193 436.602 216.723 453.911 227C471.22 237.277 499.911 250 499.911 250C499.911 250 492.446 234.846 490.911 227C489.376 219.154 490.911 204 490.911 204C490.911 204 516.473 230.797 530.911 241C545.349 251.203 569.911 266 569.911 266C569.911 266 569.133 251.611 569.911 245C570.689 238.389 573.911 232 573.911 232C573.911 232 591.968 259.698 601.911 272C611.854 284.302 632.911 305 632.911 305C632.911 305 643.543 301.731 649 293C654.457 284.269 661 261 661 261C661 261 678.534 281.075 685.911 305C693.288 328.925 696.053 340.625 699.911 377C703.072 406.805 701.113 444.161 700.302 456.685C694.677 454.94 688.698 454 682.5 454C654.271 454 630.594 473.495 624.201 499.757C609.949 540.527 611 598 611 598C611 598 597 554 586 529C577.561 509.82 554.849 487.134 544.844 477.139C541.808 474.106 539.942 472.242 540 472C547.844 439.345 544.299 419.574 507.911 409C479.506 400.746 440.837 405.904 406.531 410.48C372.814 414.978 343.311 418.913 331.911 409C308.911 389 297.71 358.653 291.911 330Z" fill="#C0AD87"/>
<path d="M297.911 241L302.489 237.121C300.998 235.362 298.63 234.612 296.398 235.194C294.166 235.775 292.465 237.585 292.022 239.849L297.911 241ZM324.911 266L322.026 271.261L324.911 266ZM359.911 275L359.161 280.953C361.38 281.232 363.57 280.255 364.843 278.417C366.116 276.579 366.262 274.185 365.221 272.206L359.911 275ZM345.911 237L339.984 237.932L345.911 237ZM345.911 186L350.778 182.491C349.302 180.445 346.705 179.54 344.278 180.227C341.851 180.913 340.112 183.044 339.927 185.56L345.911 186ZM434.911 250L433.054 255.706C435.801 256.599 438.794 255.409 440.178 252.874C441.561 250.339 440.942 247.178 438.704 245.351L434.911 250ZM403.911 193L407.435 188.144C405.451 186.704 402.791 186.616 400.716 187.921C398.641 189.226 397.569 191.662 398.008 194.074L403.911 193ZM499.911 250L497.479 255.485C499.787 256.509 502.489 255.977 504.238 254.156C505.987 252.335 506.409 249.614 505.293 247.349L499.911 250ZM490.911 204L495.252 199.859C493.636 198.164 491.18 197.565 488.964 198.325C486.748 199.085 485.178 201.065 484.941 203.395L490.911 204ZM569.911 266L566.815 271.139C568.718 272.286 571.098 272.287 573.002 271.142C574.906 269.998 576.022 267.895 575.902 265.676L569.911 266ZM569.911 245L575.87 245.701L569.911 245ZM573.911 232L578.937 228.723C577.765 226.925 575.722 225.891 573.579 226.009C571.436 226.128 569.52 227.382 568.554 229.298L573.911 232ZM632.911 305L628.705 309.279C630.276 310.824 632.568 311.383 634.674 310.735L632.911 305ZM661 261L665.519 257.053C664.07 255.394 661.828 254.662 659.679 255.147C657.531 255.632 655.82 257.255 655.224 259.376L661 261ZM699.911 377L693.944 377.633L699.911 377ZM700.302 456.685L698.524 462.415C700.28 462.96 702.188 462.67 703.703 461.628C705.217 460.586 706.17 458.907 706.289 457.073L700.302 456.685ZM624.201 499.757L629.865 501.737C629.929 501.553 629.984 501.366 630.03 501.176L624.201 499.757ZM611 598L605.282 599.819C606.186 602.658 609.035 604.404 611.975 603.92C614.914 603.436 617.053 600.869 616.999 597.89L611 598ZM586 529L580.508 531.416L586 529ZM544.844 477.139L540.604 481.384L540.604 481.384L544.844 477.139ZM540 472L534.166 470.599L534.166 470.599L540 472ZM507.911 409L509.585 403.238L507.911 409ZM406.531 410.48L407.325 416.427L406.531 410.48ZM297.911 241C292.022 239.849 292.022 239.849 292.022 239.85C292.022 239.851 292.022 239.852 292.021 239.854C292.021 239.856 292.02 239.86 292.019 239.864C292.018 239.873 292.015 239.885 292.012 239.901C292.006 239.933 291.997 239.979 291.985 240.04C291.962 240.161 291.928 240.338 291.885 240.569C291.797 241.03 291.671 241.705 291.513 242.572C291.196 244.305 290.753 246.806 290.239 249.892C289.213 256.062 287.905 264.596 286.778 274.045C284.561 292.655 282.916 315.802 286.03 331.19L297.792 328.81C295.107 315.545 296.462 294.192 298.694 275.465C299.793 266.246 301.072 257.902 302.077 251.861C302.579 248.843 303.011 246.405 303.318 244.726C303.471 243.887 303.592 243.237 303.675 242.801C303.716 242.582 303.748 242.417 303.769 242.308C303.78 242.254 303.787 242.213 303.793 242.187C303.795 242.174 303.797 242.164 303.798 242.158C303.799 242.155 303.799 242.153 303.799 242.152C303.799 242.151 303.799 242.151 303.799 242.151C303.799 242.151 303.799 242.151 297.911 241ZM327.796 260.739C323.23 258.235 317.033 252.592 311.622 247.067C309.004 244.394 306.71 241.896 305.071 240.065C304.252 239.151 303.6 238.407 303.155 237.895C302.933 237.639 302.763 237.442 302.65 237.31C302.593 237.244 302.551 237.195 302.524 237.163C302.511 237.147 302.501 237.136 302.495 237.129C302.492 237.125 302.49 237.123 302.489 237.122C302.488 237.121 302.488 237.121 302.488 237.121C302.488 237.121 302.488 237.121 302.488 237.121C302.488 237.121 302.489 237.121 297.911 241C293.333 244.879 293.333 244.879 293.334 244.88C293.334 244.88 293.335 244.88 293.335 244.881C293.336 244.882 293.337 244.884 293.339 244.885C293.342 244.889 293.345 244.893 293.35 244.899C293.36 244.91 293.373 244.926 293.391 244.946C293.425 244.987 293.475 245.045 293.54 245.12C293.668 245.271 293.855 245.488 294.095 245.764C294.575 246.317 295.268 247.107 296.132 248.071C297.856 249.997 300.275 252.631 303.048 255.463C308.42 260.947 315.723 267.804 322.026 271.261L327.796 260.739ZM359.911 275C360.661 269.047 360.661 269.047 360.662 269.047C360.662 269.047 360.662 269.047 360.662 269.047C360.662 269.047 360.661 269.047 360.661 269.047C360.659 269.047 360.656 269.046 360.652 269.046C360.643 269.045 360.629 269.043 360.609 269.04C360.569 269.035 360.507 269.027 360.424 269.016C360.257 268.994 360.006 268.96 359.68 268.915C359.027 268.824 358.073 268.687 356.892 268.503C354.526 268.135 351.265 267.585 347.684 266.856C340.278 265.348 332.347 263.235 327.796 260.739L322.026 271.261C328.343 274.725 337.913 277.113 345.29 278.614C349.099 279.39 352.551 279.972 355.049 280.361C356.3 280.555 357.317 280.702 358.026 280.801C358.381 280.85 358.659 280.887 358.851 280.913C358.947 280.925 359.022 280.935 359.074 280.942C359.1 280.945 359.12 280.948 359.135 280.95C359.142 280.951 359.148 280.951 359.152 280.952C359.154 280.952 359.156 280.952 359.158 280.953C359.158 280.953 359.159 280.953 359.16 280.953C359.16 280.953 359.161 280.953 359.911 275ZM339.984 237.932C341.381 246.818 345.125 256.874 348.349 264.447C349.987 268.291 351.54 271.608 352.685 273.968C353.259 275.15 353.731 276.095 354.064 276.749C354.23 277.077 354.361 277.332 354.453 277.508C354.498 277.597 354.534 277.665 354.559 277.713C354.571 277.737 354.581 277.756 354.588 277.769C354.592 277.776 354.595 277.782 354.597 277.786C354.598 277.788 354.599 277.79 354.6 277.791C354.6 277.792 354.6 277.792 354.6 277.793C354.601 277.794 354.601 277.794 359.911 275C365.221 272.206 365.221 272.206 365.221 272.207C365.221 272.207 365.221 272.207 365.221 272.207C365.221 272.207 365.221 272.207 365.221 272.206C365.22 272.205 365.219 272.203 365.217 272.199C365.213 272.192 365.206 272.179 365.197 272.161C365.179 272.126 365.15 272.07 365.111 271.995C365.033 271.845 364.916 271.617 364.765 271.318C364.461 270.721 364.02 269.84 363.481 268.728C362.401 266.503 360.933 263.369 359.39 259.745C356.254 252.381 352.997 243.438 351.838 236.068L339.984 237.932ZM345.911 186C339.927 185.56 339.927 185.56 339.927 185.561C339.927 185.561 339.927 185.562 339.927 185.562C339.927 185.564 339.927 185.566 339.926 185.568C339.926 185.574 339.926 185.581 339.925 185.59C339.924 185.608 339.922 185.635 339.919 185.67C339.914 185.74 339.907 185.842 339.897 185.975C339.879 186.241 339.852 186.63 339.819 187.129C339.753 188.127 339.662 189.566 339.561 191.342C339.359 194.892 339.116 199.799 338.955 205.225C338.636 215.908 338.607 229.181 339.984 237.932L351.838 236.068C350.658 228.563 350.629 216.337 350.949 205.583C351.107 200.292 351.344 195.497 351.542 192.024C351.64 190.288 351.729 188.886 351.793 187.921C351.825 187.438 351.851 187.065 351.868 186.813C351.877 186.688 351.884 186.593 351.888 186.53C351.89 186.499 351.892 186.476 351.893 186.461C351.894 186.453 351.894 186.448 351.894 186.444C351.895 186.442 351.895 186.441 351.895 186.441C351.895 186.44 351.895 186.44 351.895 186.44C351.895 186.44 351.895 186.44 345.911 186ZM386.414 222.129C379.389 217.077 370.57 207.382 363.246 198.515C359.65 194.162 356.524 190.144 354.297 187.214C353.185 185.75 352.299 184.561 351.694 183.742C351.392 183.333 351.16 183.016 351.004 182.803C350.927 182.697 350.869 182.617 350.831 182.564C350.812 182.538 350.798 182.518 350.789 182.506C350.784 182.5 350.781 182.496 350.779 182.493C350.778 182.492 350.778 182.491 350.777 182.49C350.777 182.49 350.777 182.49 350.777 182.49C350.777 182.49 350.778 182.491 345.911 186C341.044 189.509 341.045 189.51 341.045 189.511C341.045 189.511 341.046 189.512 341.046 189.512C341.047 189.514 341.049 189.516 341.05 189.518C341.054 189.523 341.058 189.529 341.064 189.537C341.076 189.554 341.094 189.578 341.116 189.608C341.16 189.669 341.225 189.759 341.309 189.874C341.477 190.105 341.723 190.441 342.041 190.87C342.675 191.729 343.594 192.963 344.744 194.476C347.042 197.498 350.27 201.648 353.994 206.157C361.31 215.014 370.991 225.819 379.408 231.871L386.414 222.129ZM434.911 250C436.767 244.294 436.768 244.295 436.768 244.295C436.768 244.295 436.768 244.295 436.767 244.294C436.767 244.294 436.766 244.294 436.764 244.293C436.761 244.292 436.755 244.291 436.748 244.288C436.732 244.283 436.708 244.275 436.676 244.264C436.611 244.243 436.512 244.211 436.381 244.167C436.12 244.081 435.73 243.951 435.226 243.781C434.217 243.442 432.753 242.942 430.946 242.307C427.328 241.036 422.349 239.228 416.901 237.082C405.807 232.71 393.457 227.193 386.414 222.129L379.408 231.871C387.807 237.911 401.456 243.894 412.502 248.246C418.124 250.462 423.249 252.322 426.969 253.629C428.83 254.282 430.343 254.799 431.394 255.153C431.92 255.33 432.331 255.467 432.612 255.56C432.753 255.607 432.861 255.642 432.935 255.667C432.972 255.679 433.001 255.688 433.021 255.695C433.031 255.698 433.039 255.7 433.044 255.702C433.047 255.703 433.049 255.704 433.051 255.704C433.052 255.705 433.053 255.705 433.053 255.705C433.054 255.705 433.054 255.706 434.911 250ZM408.64 229.867C411.963 235.976 417.771 242.25 422.366 246.743C424.729 249.053 426.9 251.015 428.481 252.401C429.274 253.095 429.922 253.648 430.377 254.032C430.605 254.224 430.784 254.373 430.909 254.477C430.972 254.529 431.021 254.57 431.056 254.598C431.074 254.613 431.088 254.624 431.098 254.633C431.103 254.637 431.107 254.64 431.11 254.643C431.112 254.644 431.113 254.645 431.114 254.646C431.115 254.647 431.116 254.647 431.116 254.648C431.117 254.648 431.117 254.649 434.911 250C438.704 245.351 438.705 245.352 438.705 245.352C438.705 245.352 438.706 245.353 438.706 245.353C438.706 245.353 438.706 245.353 438.706 245.353C438.705 245.352 438.704 245.351 438.702 245.349C438.697 245.346 438.689 245.339 438.678 245.329C438.654 245.31 438.617 245.28 438.567 245.238C438.465 245.154 438.311 245.026 438.11 244.856C437.708 244.517 437.119 244.014 436.39 243.376C434.93 242.097 432.926 240.285 430.755 238.162C426.283 233.79 421.592 228.565 419.182 224.133L408.64 229.867ZM403.911 193C398.008 194.074 398.008 194.074 398.008 194.075C398.008 194.075 398.008 194.076 398.008 194.077C398.009 194.078 398.009 194.08 398.009 194.082C398.01 194.086 398.011 194.091 398.012 194.098C398.015 194.112 398.018 194.131 398.023 194.156C398.032 194.206 398.045 194.278 398.063 194.37C398.097 194.555 398.148 194.824 398.214 195.167C398.347 195.852 398.541 196.836 398.792 198.047C399.293 200.466 400.023 203.807 400.938 207.493C402.717 214.658 405.366 223.846 408.64 229.867L419.182 224.133C416.724 219.614 414.372 211.802 412.584 204.601C411.716 201.105 411.021 197.922 410.543 195.613C410.304 194.46 410.12 193.529 409.997 192.891C409.935 192.571 409.888 192.325 409.858 192.162C409.842 192.08 409.831 192.019 409.824 191.979C409.82 191.959 409.817 191.945 409.816 191.936C409.815 191.931 409.814 191.928 409.814 191.927C409.814 191.926 409.814 191.926 409.814 191.925C409.814 191.925 409.814 191.926 409.814 191.926C409.814 191.926 409.814 191.926 403.911 193ZM456.974 221.841C448.532 216.828 436.196 208.445 425.854 201.226C420.709 197.635 416.101 194.362 412.779 191.986C411.118 190.799 409.78 189.837 408.858 189.172C408.397 188.84 408.04 188.582 407.799 188.408C407.678 188.32 407.587 188.254 407.526 188.21C407.495 188.188 407.472 188.171 407.457 188.16C407.449 188.154 407.444 188.15 407.44 188.148C407.438 188.146 407.437 188.145 407.436 188.145C407.435 188.144 407.435 188.144 407.435 188.144C407.435 188.144 407.435 188.144 403.911 193C400.387 197.856 400.387 197.856 400.388 197.857C400.388 197.857 400.388 197.857 400.389 197.858C400.39 197.858 400.392 197.86 400.394 197.861C400.398 197.864 400.404 197.869 400.412 197.875C400.429 197.887 400.453 197.904 400.485 197.927C400.548 197.973 400.642 198.041 400.766 198.13C401.012 198.308 401.374 198.57 401.841 198.907C402.774 199.579 404.125 200.551 405.8 201.748C409.148 204.142 413.794 207.442 418.986 211.066C429.317 218.278 441.981 226.895 450.848 232.159L456.974 221.841ZM499.911 250C502.343 244.515 502.343 244.515 502.343 244.515C502.343 244.515 502.343 244.515 502.343 244.515C502.342 244.515 502.341 244.514 502.34 244.513C502.337 244.512 502.332 244.51 502.326 244.507C502.313 244.502 502.293 244.493 502.267 244.481C502.214 244.458 502.135 244.423 502.03 244.376C501.821 244.282 501.509 244.143 501.105 243.961C500.297 243.598 499.12 243.066 497.652 242.395C494.716 241.052 490.621 239.156 485.991 236.941C476.685 232.49 465.386 226.835 456.974 221.841L450.848 232.159C459.745 237.442 471.446 243.287 480.813 247.767C485.519 250.018 489.679 251.944 492.663 253.308C494.155 253.991 495.355 254.533 496.184 254.905C496.598 255.092 496.92 255.236 497.139 255.333C497.248 255.382 497.332 255.42 497.389 255.445C497.418 255.458 497.44 255.468 497.454 255.474C497.462 255.478 497.468 255.48 497.472 255.482C497.474 255.483 497.475 255.483 497.477 255.484C497.477 255.484 497.478 255.484 497.478 255.485C497.478 255.485 497.479 255.485 499.911 250ZM485.023 228.152C485.93 232.789 488.435 239.087 490.478 243.82C491.538 246.276 492.546 248.474 493.288 250.057C493.66 250.85 493.967 251.492 494.182 251.939C494.29 252.162 494.375 252.337 494.434 252.457C494.463 252.518 494.486 252.564 494.502 252.597C494.51 252.613 494.516 252.626 494.52 252.635C494.523 252.64 494.525 252.643 494.526 252.646C494.527 252.647 494.527 252.649 494.527 252.649C494.528 252.65 494.528 252.65 494.528 252.651C494.528 252.651 494.528 252.651 499.911 250C505.293 247.349 505.293 247.349 505.293 247.349C505.293 247.349 505.294 247.349 505.294 247.349C505.294 247.349 505.293 247.349 505.293 247.348C505.293 247.347 505.292 247.346 505.29 247.343C505.288 247.337 505.283 247.328 505.277 247.316C505.265 247.29 505.245 247.251 505.22 247.198C505.168 247.093 505.091 246.935 504.992 246.728C504.793 246.315 504.505 245.712 504.153 244.962C503.448 243.459 502.494 241.378 501.495 239.065C499.421 234.259 497.427 229.057 496.799 225.848L485.023 228.152ZM490.911 204C484.941 203.395 484.941 203.396 484.941 203.396C484.941 203.397 484.941 203.397 484.941 203.398C484.941 203.399 484.941 203.4 484.941 203.402C484.94 203.405 484.94 203.409 484.94 203.413C484.939 203.423 484.937 203.437 484.936 203.454C484.932 203.487 484.928 203.536 484.922 203.597C484.91 203.72 484.893 203.898 484.872 204.124C484.831 204.577 484.775 205.225 484.713 206.026C484.589 207.623 484.44 209.839 484.34 212.316C484.148 217.088 484.106 223.469 485.023 228.152L496.799 225.848C496.18 222.685 496.139 217.566 496.33 212.799C496.423 210.507 496.561 208.445 496.677 206.955C496.735 206.212 496.786 205.615 496.823 205.209C496.842 205.005 496.857 204.85 496.866 204.747C496.871 204.696 496.875 204.658 496.877 204.634C496.879 204.622 496.879 204.613 496.88 204.609C496.88 204.606 496.88 204.605 496.88 204.604C496.88 204.604 496.88 204.603 496.88 204.604C496.88 204.604 496.88 204.604 496.88 204.604C496.88 204.604 496.88 204.605 490.911 204ZM534.374 236.1C527.587 231.304 517.895 222.367 509.681 214.374C505.624 210.427 502.012 206.792 499.413 204.144C498.114 202.82 497.07 201.745 496.353 201.002C495.994 200.631 495.717 200.343 495.53 200.149C495.437 200.052 495.367 199.978 495.32 199.929C495.297 199.905 495.279 199.887 495.268 199.875C495.262 199.869 495.258 199.865 495.256 199.862C495.254 199.861 495.253 199.86 495.253 199.859C495.253 199.859 495.252 199.859 495.252 199.859C495.252 199.859 495.252 199.859 490.911 204C486.569 208.141 486.57 208.142 486.57 208.142C486.57 208.142 486.571 208.143 486.571 208.143C486.572 208.144 486.574 208.146 486.576 208.148C486.579 208.152 486.584 208.157 486.591 208.164C486.604 208.178 486.624 208.198 486.649 208.225C486.7 208.278 486.775 208.356 486.872 208.458C487.068 208.661 487.354 208.959 487.722 209.34C488.459 210.103 489.525 211.201 490.848 212.549C493.493 215.244 497.173 218.947 501.312 222.974C509.488 230.93 519.796 240.493 527.448 245.9L534.374 236.1ZM569.911 266C573.007 260.861 573.007 260.861 573.007 260.861C573.007 260.86 573.007 260.86 573.006 260.86C573.006 260.86 573.005 260.859 573.004 260.858C573.001 260.857 572.997 260.854 572.991 260.851C572.98 260.844 572.963 260.834 572.94 260.82C572.894 260.792 572.826 260.751 572.735 260.696C572.554 260.587 572.286 260.425 571.939 260.214C571.245 259.793 570.236 259.179 568.979 258.41C566.464 256.872 562.96 254.715 559.009 252.241C551.079 247.275 541.448 241.099 534.374 236.1L527.448 245.9C534.812 251.104 544.682 257.428 552.641 262.412C556.635 264.912 560.175 267.092 562.716 268.647C563.988 269.424 565.01 270.046 565.715 270.474C566.068 270.688 566.342 270.854 566.528 270.966C566.621 271.022 566.692 271.065 566.74 271.094C566.764 271.109 566.783 271.12 566.795 271.128C566.801 271.131 566.806 271.134 566.809 271.136C566.811 271.137 566.812 271.138 566.813 271.138C566.814 271.139 566.814 271.139 566.814 271.139C566.814 271.139 566.815 271.139 569.911 266ZM563.952 244.299C563.508 248.075 563.524 253.719 563.621 258.111C563.67 260.372 563.745 262.419 563.807 263.899C563.838 264.64 563.866 265.242 563.886 265.66C563.896 265.869 563.904 266.033 563.91 266.145C563.913 266.201 563.915 266.245 563.917 266.275C563.918 266.29 563.918 266.301 563.919 266.31C563.919 266.314 563.919 266.317 563.919 266.319C563.919 266.321 563.919 266.322 563.92 266.322C563.92 266.323 563.92 266.323 563.92 266.323C563.92 266.324 563.92 266.324 569.911 266C575.902 265.676 575.902 265.676 575.902 265.676C575.902 265.676 575.902 265.676 575.902 265.676C575.902 265.676 575.902 265.676 575.902 265.675C575.902 265.674 575.902 265.672 575.902 265.669C575.901 265.664 575.901 265.655 575.9 265.642C575.899 265.617 575.897 265.579 575.894 265.528C575.889 265.427 575.882 265.275 575.872 265.078C575.853 264.683 575.826 264.109 575.796 263.398C575.737 261.973 575.665 260.009 575.618 257.847C575.52 253.391 575.536 248.536 575.87 245.701L563.952 244.299ZM573.911 232C568.554 229.298 568.553 229.299 568.553 229.3C568.553 229.3 568.552 229.301 568.552 229.302C568.551 229.303 568.55 229.305 568.55 229.306C568.548 229.309 568.546 229.313 568.545 229.316C568.541 229.324 568.536 229.333 568.531 229.344C568.52 229.365 568.506 229.393 568.49 229.427C568.456 229.495 568.412 229.587 568.357 229.701C568.248 229.93 568.098 230.251 567.919 230.651C567.561 231.449 567.084 232.575 566.58 233.927C565.591 236.581 564.419 240.331 563.952 244.299L575.87 245.701C576.181 243.058 577.008 240.308 577.825 238.115C578.224 237.044 578.601 236.159 578.872 235.552C579.007 235.25 579.115 235.02 579.185 234.874C579.22 234.801 579.245 234.749 579.259 234.72C579.267 234.705 579.271 234.696 579.273 234.693C579.273 234.692 579.273 234.692 579.273 234.693C579.272 234.694 579.272 234.695 579.271 234.696C579.271 234.697 579.27 234.698 579.27 234.699C579.269 234.699 579.269 234.7 579.269 234.7C579.269 234.701 579.268 234.702 573.911 232ZM606.577 268.228C601.781 262.294 594.908 252.485 589.143 244.012C586.282 239.806 583.728 235.98 581.889 233.205C580.97 231.819 580.23 230.696 579.721 229.921C579.467 229.533 579.27 229.232 579.137 229.029C579.071 228.928 579.02 228.851 578.987 228.799C578.97 228.773 578.957 228.754 578.949 228.741C578.945 228.735 578.942 228.73 578.94 228.727C578.939 228.726 578.938 228.725 578.938 228.724C578.937 228.724 578.937 228.723 578.937 228.723C578.937 228.723 578.937 228.723 573.911 232C568.885 235.277 568.885 235.277 568.885 235.277C568.885 235.278 568.885 235.278 568.886 235.278C568.886 235.28 568.887 235.281 568.889 235.283C568.891 235.286 568.894 235.292 568.899 235.299C568.908 235.313 568.922 235.333 568.939 235.361C568.975 235.415 569.027 235.495 569.095 235.599C569.232 235.808 569.432 236.114 569.691 236.508C570.208 237.295 570.957 238.432 571.886 239.834C573.744 242.638 576.326 246.505 579.221 250.762C584.971 259.213 592.098 269.404 597.244 275.772L606.577 268.228ZM632.911 305C637.117 300.721 637.117 300.721 637.117 300.721C637.117 300.721 637.117 300.721 637.116 300.721C637.116 300.72 637.115 300.719 637.114 300.718C637.112 300.716 637.108 300.713 637.104 300.708C637.094 300.699 637.08 300.684 637.06 300.665C637.022 300.627 636.963 300.57 636.887 300.494C636.733 300.342 636.505 300.117 636.211 299.825C635.622 299.242 634.768 298.393 633.711 297.334C631.597 295.217 628.676 292.267 625.447 288.937C618.943 282.228 611.362 274.149 606.577 268.228L597.244 275.772C602.403 282.154 610.322 290.575 616.832 297.29C620.111 300.672 623.075 303.665 625.22 305.813C626.292 306.888 627.161 307.751 627.763 308.348C628.064 308.646 628.298 308.878 628.457 309.035C628.537 309.114 628.598 309.174 628.64 309.215C628.661 309.236 628.677 309.251 628.688 309.262C628.693 309.267 628.697 309.271 628.7 309.274C628.702 309.276 628.703 309.277 628.703 309.278C628.704 309.278 628.704 309.278 628.704 309.279C628.705 309.279 628.705 309.279 632.911 305ZM643.912 289.82C641.905 293.031 638.804 295.424 635.932 297.065C634.531 297.865 633.274 298.436 632.385 298.8C631.942 298.981 631.598 299.108 631.38 299.185C631.272 299.223 631.196 299.249 631.156 299.262C631.136 299.269 631.125 299.272 631.123 299.273C631.122 299.273 631.124 299.272 631.128 299.271C631.13 299.27 631.133 299.27 631.136 299.269C631.138 299.268 631.139 299.267 631.141 299.267C631.142 299.267 631.144 299.266 631.145 299.266C631.146 299.265 631.148 299.265 632.911 305C634.674 310.735 634.676 310.735 634.678 310.734C634.678 310.734 634.68 310.733 634.681 310.733C634.684 310.732 634.687 310.731 634.69 310.73C634.695 310.728 634.702 310.726 634.709 310.724C634.724 310.72 634.74 310.714 634.76 310.708C634.799 310.696 634.848 310.68 634.908 310.66C635.026 310.621 635.183 310.568 635.376 310.5C635.762 310.364 636.29 310.168 636.93 309.906C638.204 309.384 639.947 308.592 641.886 307.484C645.694 305.308 650.638 301.7 654.088 296.18L643.912 289.82ZM661 261C655.224 259.376 655.224 259.376 655.224 259.375C655.224 259.376 655.224 259.375 655.224 259.376C655.224 259.376 655.224 259.376 655.224 259.377C655.223 259.379 655.222 259.383 655.221 259.387C655.218 259.397 655.214 259.412 655.208 259.432C655.197 259.472 655.179 259.534 655.156 259.617C655.109 259.781 655.038 260.027 654.946 260.345C654.761 260.981 654.49 261.904 654.148 263.041C653.462 265.317 652.492 268.437 651.358 271.817C649.011 278.813 646.208 286.146 643.912 289.82L654.088 296.18C657.249 291.123 660.446 282.456 662.735 275.634C663.919 272.106 664.926 268.863 665.637 266.504C665.993 265.323 666.276 264.36 666.471 263.689C666.568 263.353 666.643 263.091 666.695 262.91C666.721 262.82 666.74 262.75 666.754 262.702C666.761 262.678 666.766 262.66 666.77 262.647C666.772 262.64 666.773 262.635 666.774 262.631C666.775 262.629 666.775 262.628 666.775 262.627C666.776 262.626 666.776 262.625 666.776 262.625C666.776 262.625 666.776 262.624 661 261ZM691.645 303.232C687.723 290.512 681.163 278.975 675.691 270.715C672.939 266.56 670.423 263.176 668.586 260.821C667.667 259.642 666.916 258.718 666.387 258.08C666.122 257.761 665.913 257.513 665.766 257.341C665.693 257.254 665.635 257.187 665.593 257.139C665.573 257.115 665.556 257.096 665.544 257.081C665.537 257.074 665.532 257.068 665.528 257.063C665.526 257.061 665.524 257.059 665.523 257.057C665.522 257.056 665.521 257.055 665.521 257.055C665.52 257.054 665.519 257.053 661 261C656.481 264.947 656.48 264.946 656.48 264.946C656.48 264.945 656.479 264.945 656.479 264.945C656.478 264.944 656.478 264.944 656.478 264.944C656.478 264.944 656.48 264.945 656.482 264.948C656.486 264.953 656.495 264.963 656.508 264.978C656.533 265.007 656.574 265.055 656.631 265.122C656.745 265.255 656.92 265.462 657.149 265.739C657.608 266.292 658.284 267.123 659.123 268.2C660.805 270.356 663.134 273.487 665.687 277.342C670.826 285.1 676.722 295.563 680.177 306.768L691.645 303.232ZM705.877 376.367C701.983 339.645 699.146 327.562 691.645 303.232L680.177 306.768C687.429 330.288 690.123 341.604 693.944 377.633L705.877 376.367ZM706.289 457.073C707.101 444.534 709.097 406.728 705.877 376.367L693.944 377.633C697.047 406.881 695.124 443.788 694.314 456.297L706.289 457.073ZM682.5 460C688.089 460 693.468 460.847 698.524 462.415L702.08 450.954C695.886 449.033 689.308 448 682.5 448V460ZM630.03 501.176C635.785 477.54 657.101 460 682.5 460V448C651.44 448 625.404 469.45 618.371 498.338L630.03 501.176ZM611 598C616.999 597.89 616.999 597.891 616.999 597.891C616.999 597.891 616.999 597.891 616.999 597.891C616.999 597.89 616.999 597.888 616.999 597.886C616.999 597.881 616.999 597.873 616.999 597.861C616.998 597.837 616.998 597.8 616.997 597.749C616.995 597.648 616.993 597.492 616.991 597.286C616.987 596.873 616.983 596.254 616.983 595.448C616.982 593.835 616.996 591.473 617.057 588.506C617.18 582.57 617.489 574.229 618.238 564.634C619.743 545.342 622.995 521.39 629.865 501.737L618.537 497.777C611.155 518.894 607.806 544.064 606.274 563.7C605.504 573.57 605.186 582.145 605.06 588.259C604.997 591.318 604.982 593.765 604.983 595.454C604.983 596.299 604.988 596.955 604.992 597.403C604.994 597.628 604.996 597.8 604.998 597.919C604.999 597.978 605 598.024 605 598.056C605 598.072 605.001 598.084 605.001 598.093C605.001 598.098 605.001 598.101 605.001 598.104C605.001 598.105 605.001 598.107 605.001 598.108C605.001 598.109 605.001 598.11 611 598ZM580.508 531.416C585.902 543.675 592.084 560.725 596.953 574.832C599.379 581.861 601.463 588.113 602.941 592.608C603.679 594.855 604.266 596.661 604.667 597.904C604.868 598.526 605.022 599.006 605.126 599.331C605.178 599.493 605.218 599.616 605.244 599.698C605.257 599.739 605.267 599.77 605.273 599.79C605.276 599.8 605.279 599.808 605.28 599.813C605.281 599.815 605.282 599.817 605.282 599.818C605.282 599.818 605.282 599.819 605.282 599.819C605.282 599.819 605.282 599.819 611 598C616.718 596.181 616.717 596.18 616.717 596.18C616.717 596.18 616.717 596.179 616.717 596.178C616.716 596.176 616.716 596.174 616.715 596.171C616.713 596.166 616.71 596.157 616.706 596.146C616.699 596.124 616.689 596.091 616.675 596.048C616.648 595.962 616.607 595.835 616.554 595.669C616.447 595.336 616.29 594.847 616.087 594.217C615.679 592.956 615.086 591.129 614.341 588.861C612.849 584.324 610.746 578.014 608.297 570.918C603.416 556.775 597.098 539.325 591.492 526.584L580.508 531.416ZM540.604 481.384C545.609 486.384 553.638 494.407 561.453 503.529C569.343 512.738 576.655 522.66 580.508 531.416L591.492 526.584C586.906 516.16 578.643 505.149 570.566 495.721C562.414 486.207 554.085 477.889 549.085 472.894L540.604 481.384ZM534.166 470.599C533.702 472.531 534.343 474.052 534.45 474.315C534.659 474.832 534.897 475.219 535.017 475.406C535.273 475.805 535.542 476.136 535.702 476.327C536.053 476.747 536.494 477.219 536.929 477.674C537.825 478.609 539.108 479.89 540.604 481.384L549.085 472.894C547.545 471.356 546.376 470.188 545.594 469.372C545.191 468.952 544.986 468.723 544.909 468.63C544.854 468.565 544.964 468.688 545.117 468.926C545.185 469.033 545.386 469.352 545.573 469.813C545.669 470.051 545.814 470.452 545.907 470.972C545.995 471.467 546.088 472.346 545.834 473.401L534.166 470.599ZM506.237 414.762C523.624 419.814 531.592 426.602 535.032 434.592C538.655 443.009 538.053 454.417 534.166 470.599L545.834 473.401C549.791 456.928 551.338 442.123 546.054 429.847C540.585 417.145 528.587 408.76 509.585 403.238L506.237 414.762ZM407.325 416.427C424.525 414.133 442.512 411.737 459.718 410.922C476.962 410.104 492.965 410.905 506.237 414.762L509.585 403.238C494.452 398.841 476.918 398.093 459.15 398.935C441.344 399.779 422.843 402.251 405.738 404.533L407.325 416.427ZM327.974 413.528C331.918 416.957 337.037 418.872 342.49 419.935C347.979 421.006 354.268 421.301 360.994 421.143C374.407 420.826 390.573 418.662 407.325 416.427L405.738 404.533C388.772 406.796 373.328 408.848 360.711 409.146C354.421 409.294 349.089 408.996 344.787 408.157C340.448 407.311 337.604 406 335.848 404.472L327.974 413.528ZM286.03 331.19C291.922 360.302 303.481 392.23 327.974 413.528L335.848 404.472C314.341 385.77 303.498 357.004 297.792 328.81L286.03 331.19Z" fill="#C0AD87"/>
<path d="M448.199 671.67C448.199 671.67 475.312 667.563 496.92 655.087C518.529 642.612 534.801 621.67 534.801 621.67" stroke="black" stroke-width="12" stroke-linecap="round" stroke-linejoin="round"/>
<path fill-rule="evenodd" clip-rule="evenodd" d="M359 682C359 682 413 706 439 711C465 716 481 702 481 702C481 702 483 693.333 483 689C483 684.667 481 678 481 678L504 666C504 666 510.255 675.128 516 678C521.745 680.873 536 682 536 682C536 682 577 670 600 643C623 616 592 592.286 592 536C592 512 619 474 619 535C619 596 708 571 708 571C708 571 650 720 540 747C430 774 359 682 359 682Z" fill="black" stroke="black" stroke-width="2" stroke-linecap="round" stroke-linejoin="round"/>
<path fill-rule="evenodd" clip-rule="evenodd" d="M605.047 641.061L601.879 660.973C601.879 660.973 553.854 604.43 540.328 603.001C528.527 601.754 488.133 619.653 478.029 624.235C473.907 627.151 432.003 656.995 426.75 668.81C421.225 681.237 430.2 718.78 430.2 718.78L420.032 716.567C420.032 716.567 400.627 687.356 409.725 661.319C417.59 638.812 455.667 614.392 465.848 608.184L465.724 607.969C465.724 607.969 515.255 579.372 542.354 584.511C569.452 589.651 605.047 641.061 605.047 641.061Z" fill="black"/>
<path d="M601.879 660.973L600.355 662.268C600.86 662.863 601.666 663.11 602.419 662.899C603.171 662.688 603.731 662.059 603.854 661.287L601.879 660.973ZM605.047 641.061L607.022 641.376C607.103 640.867 606.984 640.346 606.691 639.923L605.047 641.061ZM540.328 603.001L540.118 604.99L540.328 603.001ZM478.029 624.235L477.203 622.413C477.087 622.466 476.977 622.529 476.874 622.602L478.029 624.235ZM426.75 668.81L428.578 669.622L426.75 668.81ZM430.2 718.78L429.774 720.734C430.447 720.88 431.147 720.671 431.628 720.18C432.11 719.688 432.305 718.984 432.145 718.315L430.2 718.78ZM420.032 716.567L418.366 717.674C418.654 718.107 419.099 718.411 419.607 718.522L420.032 716.567ZM409.725 661.319L407.837 660.659L409.725 661.319ZM465.848 608.184L466.889 609.891C467.816 609.326 468.123 608.124 467.58 607.184L465.848 608.184ZM465.724 607.969L464.724 606.237C464.264 606.502 463.929 606.939 463.792 607.451C463.655 607.964 463.726 608.509 463.992 608.969L465.724 607.969ZM542.354 584.511L542.726 582.546L542.354 584.511ZM603.854 661.287L607.022 641.376L603.072 640.747L599.904 660.659L603.854 661.287ZM540.118 604.99C541.309 605.116 543.201 605.924 545.772 607.583C548.272 609.196 551.18 611.457 554.348 614.179C560.68 619.618 567.899 626.766 574.731 633.906C581.555 641.038 587.963 648.13 592.666 653.442C595.017 656.097 596.941 658.305 598.276 659.849C598.944 660.621 599.464 661.227 599.817 661.639C599.994 661.845 600.129 662.003 600.219 662.109C600.264 662.162 600.298 662.202 600.321 662.228C600.332 662.242 600.341 662.252 600.346 662.258C600.349 662.262 600.351 662.264 600.353 662.266C600.353 662.267 600.354 662.267 600.354 662.267C600.354 662.268 600.355 662.268 601.879 660.973C603.403 659.678 603.403 659.678 603.403 659.678C603.402 659.677 603.402 659.676 603.401 659.675C603.399 659.674 603.397 659.671 603.394 659.667C603.388 659.66 603.379 659.65 603.367 659.636C603.344 659.608 603.309 659.567 603.262 659.513C603.17 659.405 603.034 659.245 602.855 659.037C602.498 658.62 601.974 658.009 601.302 657.232C599.958 655.679 598.024 653.458 595.661 650.79C590.937 645.455 584.493 638.322 577.621 631.14C570.755 623.965 563.432 616.709 556.955 611.145C553.719 608.365 550.656 605.974 547.941 604.222C545.296 602.515 542.728 601.243 540.538 601.012L540.118 604.99ZM478.855 626.056C483.894 623.771 496.474 618.171 509.254 613.301C515.647 610.865 522.055 608.625 527.577 607.074C533.198 605.495 537.594 604.723 540.118 604.99L540.538 601.012C537.161 600.655 532.082 601.654 526.495 603.223C520.808 604.82 514.274 607.108 507.83 609.563C494.936 614.477 482.268 620.116 477.203 622.413L478.855 626.056ZM476.874 622.602C474.802 624.068 463.258 632.284 451.565 641.623C445.722 646.29 439.812 651.26 435.02 655.822C432.624 658.103 430.486 660.303 428.768 662.328C427.069 664.33 425.695 666.26 424.923 667.997L428.578 669.622C429.119 668.406 430.203 666.819 431.818 664.916C433.413 663.036 435.442 660.943 437.778 658.719C442.449 654.272 448.258 649.383 454.062 644.748C465.664 635.482 477.134 627.318 479.184 625.868L476.874 622.602ZM424.923 667.997C423.355 671.524 422.894 676.572 422.959 681.885C423.024 687.272 423.64 693.224 424.423 698.736C425.207 704.256 426.164 709.379 426.924 713.118C427.304 714.989 427.636 716.517 427.873 717.578C427.991 718.109 428.086 718.524 428.152 718.806C428.185 718.948 428.21 719.056 428.227 719.13C428.236 719.167 428.243 719.195 428.247 719.214C428.25 719.224 428.251 719.231 428.253 719.236C428.253 719.239 428.254 719.241 428.254 719.242C428.254 719.243 428.254 719.244 428.254 719.244C428.254 719.244 428.255 719.245 430.2 718.78C432.145 718.315 432.145 718.315 432.145 718.315C432.145 718.315 432.145 718.314 432.145 718.314C432.145 718.313 432.144 718.312 432.144 718.31C432.143 718.306 432.141 718.299 432.139 718.291C432.135 718.274 432.129 718.248 432.121 718.213C432.105 718.144 432.08 718.041 432.049 717.904C431.985 717.631 431.893 717.227 431.777 716.707C431.545 715.667 431.218 714.164 430.844 712.321C430.094 708.633 429.153 703.593 428.383 698.174C427.613 692.747 427.021 686.983 426.958 681.836C426.894 676.614 427.383 672.31 428.578 669.622L424.923 667.997ZM430.625 716.826L420.457 714.613L419.607 718.522L429.774 720.734L430.625 716.826ZM420.032 716.567C421.698 715.461 421.698 715.461 421.698 715.461C421.698 715.461 421.698 715.461 421.698 715.461C421.698 715.461 421.698 715.46 421.697 715.459C421.696 715.457 421.693 715.453 421.689 715.448C421.682 715.436 421.67 715.418 421.654 715.393C421.621 715.342 421.571 715.265 421.505 715.161C421.372 714.953 421.176 714.639 420.928 714.228C420.432 713.405 419.727 712.193 418.907 710.655C417.265 707.576 415.169 703.205 413.353 698.043C409.703 687.667 407.282 674.374 411.613 661.979L407.837 660.659C403.07 674.302 405.803 688.633 409.58 699.371C411.478 704.767 413.665 709.326 415.377 712.537C416.234 714.144 416.975 715.418 417.504 716.295C417.768 716.733 417.98 717.073 418.128 717.305C418.202 717.421 418.26 717.511 418.3 717.573C418.32 717.603 418.335 717.627 418.347 717.644C418.352 717.653 418.357 717.66 418.36 717.665C418.361 717.667 418.363 717.669 418.364 717.671C418.364 717.671 418.365 717.672 418.365 717.673C418.366 717.673 418.366 717.674 420.032 716.567ZM411.613 661.979C413.461 656.69 417.136 651.165 421.889 645.708C426.627 640.267 432.354 634.987 438.189 630.183C449.86 620.574 461.835 612.973 466.889 609.891L464.806 606.476C459.679 609.603 447.525 617.315 435.647 627.095C429.707 631.985 423.803 637.419 418.872 643.081C413.956 648.726 409.921 654.694 407.837 660.659L411.613 661.979ZM463.992 608.969L464.116 609.184L467.58 607.184L467.456 606.969L463.992 608.969ZM542.726 582.546C535.554 581.186 527.062 582.076 518.497 584.06C509.899 586.051 501.057 589.186 493.114 592.464C485.164 595.744 478.074 599.183 472.973 601.802C470.421 603.111 468.364 604.217 466.943 604.997C466.232 605.386 465.68 605.695 465.305 605.907C465.117 606.012 464.973 606.094 464.875 606.15C464.827 606.178 464.789 606.199 464.764 606.214C464.751 606.221 464.742 606.226 464.735 606.23C464.731 606.232 464.729 606.234 464.727 606.235C464.726 606.235 464.725 606.236 464.725 606.236C464.724 606.237 464.724 606.237 465.724 607.969C466.724 609.701 466.724 609.701 466.724 609.701C466.724 609.701 466.724 609.701 466.725 609.7C466.726 609.7 466.728 609.698 466.731 609.697C466.736 609.694 466.744 609.689 466.755 609.683C466.778 609.67 466.812 609.65 466.858 609.624C466.949 609.572 467.087 609.494 467.269 609.391C467.632 609.187 468.17 608.886 468.867 608.504C470.26 607.739 472.284 606.651 474.8 605.36C479.833 602.777 486.819 599.388 494.64 596.161C502.466 592.932 511.089 589.882 519.399 587.957C527.742 586.024 535.604 585.267 541.981 586.476L542.726 582.546ZM605.047 641.061C606.691 639.923 606.691 639.922 606.69 639.922C606.69 639.921 606.689 639.921 606.689 639.92C606.687 639.918 606.686 639.915 606.683 639.912C606.678 639.905 606.671 639.895 606.662 639.882C606.644 639.856 606.617 639.817 606.582 639.767C606.512 639.667 606.409 639.519 606.273 639.328C606.001 638.944 605.601 638.383 605.084 637.669C604.048 636.24 602.541 634.197 600.648 631.731C596.865 626.8 591.532 620.168 585.341 613.367C579.155 606.573 572.079 599.574 564.807 593.935C557.57 588.323 549.964 583.919 542.726 582.546L541.981 586.476C548.293 587.673 555.297 591.622 562.356 597.096C569.379 602.542 576.282 609.359 582.383 616.06C588.478 622.755 593.738 629.296 597.475 634.166C599.343 636.6 600.828 638.613 601.845 640.016C602.353 640.717 602.745 641.266 603.008 641.638C603.139 641.824 603.239 641.966 603.305 642.06C603.338 642.108 603.363 642.143 603.379 642.167C603.387 642.178 603.393 642.187 603.397 642.192C603.399 642.195 603.401 642.197 603.401 642.199C603.402 642.199 603.402 642.199 603.402 642.2C603.402 642.2 603.402 642.2 605.047 641.061Z" fill="black"/>
<circle cx="788" cy="1060" r="400" fill="#CB1F1F"/>
<circle cx="788" cy="1060" r="320" fill="white"/>
<circle cx="788" cy="1060" r="240" fill="#CB1F1F"/>
<circle cx="788" cy="1060" r="160" fill="#051979"/>
<path fill-rule="evenodd" clip-rule="evenodd" d="M752 1010L788 902L824 1010H938L846 1080L881 1188L788 1121L695 1188L730 1080L638 1010H752Z" fill="white"/>
<path d="M417 498.313C417 498.313 446.82 478.929 468 474.313C489.18 469.697 495 481.313 495 481.313" stroke="black" stroke-width="12" stroke-linecap="round" stroke-linejoin="round"/>
<circle cx="451" cy="527" r="20" fill="black"/>
<path d="M382 505C382 505 373 508 364 507C355 506 341 492 327 492C313 492 306 505 306 505" stroke="black" stroke-width="12" stroke-linecap="round" stroke-linejoin="round"/>
<path d="M328.836 523.591C328.836 523.591 336.236 530.877 343 533C349.764 535.123 362.336 534.106 362.336 534.106" stroke="black" stroke-width="12" stroke-linecap="round" stroke-linejoin="round"/>
</g>
<defs>
<clipPath id="clip0_0_52">
<rect width="1080" height="1080" fill="white"/>
</clipPath>
</defs>
</svg>
