<svg width="1080" height="1080" viewBox="0 0 1080 1080" fill="none" xmlns="http://www.w3.org/2000/svg">
<g clip-path="url(#clip0_0_402)">
<rect width="1080" height="1080" fill="white"/>
<rect width="1080" height="1080" fill="#FAB1A0"/>
<path fill-rule="evenodd" clip-rule="evenodd" d="M697.207 573.496C688.516 625.043 660.104 669.891 620 700.015V784C620 828.183 584.183 864 540 864C495.817 864 460 828.183 460 784V735.999C368.71 717.468 300 636.758 300 540C300 429.543 389.543 340 500 340C580.464 340 649.829 387.516 681.567 456.02C713.98 456.851 740 483.387 740 516C740 543.157 721.958 566.099 697.207 573.496Z" fill="#604F43"/>
<path d="M390.531 540.198L382.614 596.533L397.469 605.802" stroke="black" stroke-width="12" stroke-linecap="round" stroke-linejoin="round"/>
<path d="M667.272 531.557C667.272 531.557 671.515 521.657 678.586 514.586C685.657 507.515 695.556 503.272 695.556 503.272" stroke="black" stroke-width="12" stroke-linecap="round" stroke-linejoin="round"/>
<path fill-rule="evenodd" clip-rule="evenodd" d="M460 770.082C321.982 805.605 220 930.893 220 1080C220 1256.73 363.269 1400 540 1400C716.731 1400 860 1256.73 860 1080C860 930.893 758.018 805.605 620 770.082V784C620 828.183 584.183 864 540 864C495.817 864 460 828.183 460 784V770.082Z" fill="#FFD217"/>
<rect x="490" y="990" width="20" height="120" fill="#358333"/>
<rect x="536" y="1000" width="44" height="100" stroke="#358333" stroke-width="20" stroke-linecap="round" stroke-linejoin="round"/>
<path fill-rule="evenodd" clip-rule="evenodd" d="M320 427.768C320 427.768 401.55 370.736 463.244 393.127C477.303 398.23 493.998 416.846 505.077 420.695C542.614 433.737 558.85 427.856 561.497 449.694C564.924 477.978 602.653 573 602.653 573C602.653 573 615.219 492.473 639.388 468.71C663.556 444.947 712.303 468.55 712.303 468.55C712.303 468.55 730.583 419.054 705.448 366.022C680.314 312.991 587.774 244.64 463.244 257.603C450.418 258.938 430.254 257.239 417.545 263.495C409.757 267.329 409.486 278.555 401.55 282.351C382.218 291.597 361.431 297.696 358.136 312.991C354.118 331.645 339.174 337.155 327.532 362.092C323.697 370.308 320 427.768 320 427.768Z" fill="#C0AD87" stroke="#C0AD87" stroke-width="4" stroke-linecap="round" stroke-linejoin="round"/>
<path d="M448.199 671.67C448.199 671.67 475.312 667.563 496.92 655.087C518.529 642.612 534.801 621.67 534.801 621.67" stroke="black" stroke-width="12" stroke-linecap="round" stroke-linejoin="round"/>
<path fill-rule="evenodd" clip-rule="evenodd" d="M359 682C359 682 413 706 439 711C465 716 481 702 481 702C481 702 483 693.333 483 689C483 684.667 481 678 481 678L504 666C504 666 510.255 675.128 516 678C521.745 680.873 536 682 536 682C536 682 577 670 600 643C623 616 592 592.286 592 536C592 512 619 474 619 535C619 596 708 571 708 571C708 571 650 720 540 747C430 774 359 682 359 682Z" fill="black" stroke="black" stroke-width="2" stroke-linecap="round" stroke-linejoin="round"/>
<path fill-rule="evenodd" clip-rule="evenodd" d="M605.047 641.062L601.879 660.973C601.879 660.973 553.854 604.43 540.328 603.001C528.527 601.755 488.133 619.653 478.029 624.235C473.907 627.152 432.003 656.996 426.751 668.81C421.225 681.238 430.2 718.78 430.2 718.78L420.032 716.568C420.032 716.568 400.627 687.357 409.725 661.319C417.59 638.812 455.667 614.392 465.848 608.184L465.724 607.969C465.724 607.969 515.256 579.372 542.354 584.511C569.452 589.651 605.047 641.062 605.047 641.062Z" fill="black"/>
<path d="M601.879 660.973L600.355 662.268C600.86 662.864 601.666 663.11 602.419 662.899C603.171 662.689 603.731 662.059 603.854 661.288L601.879 660.973ZM605.047 641.062L607.022 641.376C607.103 640.867 606.984 640.347 606.691 639.923L605.047 641.062ZM540.328 603.001L540.118 604.99L540.328 603.001ZM478.029 624.235L477.203 622.414C477.088 622.466 476.977 622.529 476.874 622.602L478.029 624.235ZM426.751 668.81L428.578 669.623L426.751 668.81ZM430.2 718.78L429.775 720.734C430.447 720.881 431.147 720.671 431.628 720.18C432.11 719.688 432.305 718.984 432.145 718.315L430.2 718.78ZM420.032 716.568L418.366 717.674C418.654 718.107 419.099 718.411 419.607 718.522L420.032 716.568ZM409.725 661.319L407.837 660.659L409.725 661.319ZM465.848 608.184L466.889 609.891C467.816 609.326 468.123 608.124 467.58 607.184L465.848 608.184ZM465.724 607.969L464.724 606.237C464.264 606.502 463.929 606.939 463.792 607.451C463.655 607.964 463.727 608.51 463.992 608.969L465.724 607.969ZM542.354 584.511L542.726 582.546L542.354 584.511ZM603.854 661.288L607.022 641.376L603.072 640.747L599.904 660.659L603.854 661.288ZM540.118 604.99C541.31 605.116 543.201 605.924 545.772 607.583C548.272 609.196 551.18 611.458 554.348 614.179C560.68 619.618 567.899 626.766 574.731 633.906C581.556 641.038 587.963 648.131 592.666 653.442C595.017 656.097 596.941 658.305 598.276 659.849C598.944 660.621 599.464 661.227 599.817 661.639C599.994 661.845 600.129 662.003 600.219 662.109C600.264 662.162 600.298 662.202 600.321 662.229C600.332 662.242 600.341 662.252 600.347 662.259C600.349 662.262 600.351 662.264 600.353 662.266C600.353 662.267 600.354 662.267 600.354 662.268C600.355 662.268 600.355 662.268 601.879 660.973C603.403 659.679 603.403 659.678 603.403 659.678C603.402 659.677 603.402 659.677 603.401 659.676C603.399 659.674 603.397 659.671 603.394 659.668C603.388 659.661 603.379 659.65 603.367 659.636C603.344 659.608 603.309 659.567 603.263 659.513C603.17 659.405 603.034 659.245 602.855 659.037C602.498 658.62 601.974 658.01 601.302 657.233C599.958 655.679 598.024 653.459 595.661 650.79C590.937 645.455 584.493 638.322 577.621 631.14C570.755 623.966 563.432 616.71 556.955 611.145C553.719 608.365 550.656 605.974 547.941 604.222C545.296 602.515 542.729 601.244 540.538 601.012L540.118 604.99ZM478.855 626.057C483.894 623.772 496.475 618.171 509.254 613.301C515.647 610.865 522.055 608.625 527.577 607.074C533.198 605.495 537.594 604.724 540.118 604.99L540.538 601.012C537.162 600.656 532.083 601.654 526.495 603.223C520.808 604.821 514.274 607.108 507.83 609.563C494.936 614.477 482.268 620.117 477.203 622.414L478.855 626.057ZM476.874 622.602C474.802 624.068 463.259 632.285 451.566 641.623C445.722 646.29 439.812 651.26 435.02 655.823C432.625 658.103 430.486 660.303 428.768 662.328C427.07 664.33 425.695 666.26 424.923 667.997L428.578 669.623C429.119 668.406 430.203 666.819 431.818 664.916C433.413 663.037 435.442 660.944 437.778 658.72C442.449 654.272 448.258 649.384 454.062 644.749C465.664 635.482 477.134 627.318 479.184 625.868L476.874 622.602ZM424.923 667.997C423.355 671.524 422.894 676.573 422.959 681.885C423.025 687.272 423.64 693.224 424.423 698.737C425.207 704.257 426.164 709.379 426.924 713.118C427.304 714.989 427.636 716.517 427.873 717.578C427.992 718.109 428.087 718.524 428.152 718.807C428.185 718.948 428.21 719.057 428.228 719.13C428.236 719.167 428.243 719.195 428.247 719.215C428.25 719.224 428.251 719.231 428.253 719.237C428.253 719.239 428.254 719.241 428.254 719.243C428.254 719.243 428.254 719.244 428.254 719.244C428.255 719.245 428.255 719.245 430.2 718.78C432.145 718.315 432.145 718.315 432.145 718.315C432.145 718.315 432.145 718.315 432.145 718.314C432.145 718.313 432.144 718.312 432.144 718.31C432.143 718.306 432.141 718.3 432.139 718.291C432.135 718.274 432.129 718.248 432.121 718.214C432.105 718.145 432.08 718.041 432.049 717.904C431.986 717.631 431.893 717.227 431.777 716.707C431.545 715.667 431.219 714.164 430.844 712.321C430.094 708.633 429.153 703.593 428.383 698.174C427.613 692.748 427.021 686.984 426.958 681.836C426.895 676.614 427.383 672.31 428.578 669.623L424.923 667.997ZM430.625 716.826L420.457 714.613L419.607 718.522L429.775 720.734L430.625 716.826ZM420.032 716.568C421.698 715.461 421.698 715.461 421.699 715.462C421.698 715.461 421.699 715.462 421.699 715.462C421.698 715.461 421.698 715.461 421.697 715.46C421.696 715.457 421.693 715.454 421.689 715.448C421.682 715.436 421.67 715.418 421.654 715.393C421.621 715.343 421.571 715.265 421.505 715.161C421.373 714.953 421.177 714.639 420.928 714.228C420.432 713.405 419.727 712.194 418.907 710.655C417.265 707.576 415.169 703.205 413.354 698.044C409.703 687.667 407.282 674.374 411.613 661.979L407.837 660.659C403.07 674.302 405.803 688.633 409.58 699.371C411.478 704.767 413.665 709.326 415.377 712.537C416.234 714.145 416.975 715.418 417.504 716.295C417.768 716.733 417.981 717.073 418.128 717.305C418.202 717.422 418.26 717.511 418.3 717.573C418.32 717.604 418.336 717.628 418.347 717.645C418.352 717.653 418.357 717.66 418.36 717.665C418.362 717.667 418.363 717.669 418.364 717.671C418.365 717.672 418.365 717.672 418.365 717.673C418.366 717.674 418.366 717.674 420.032 716.568ZM411.613 661.979C413.461 656.69 417.136 651.166 421.889 645.708C426.628 640.267 432.354 634.988 438.189 630.183C449.86 620.574 461.835 612.973 466.889 609.891L464.807 606.476C459.679 609.603 447.525 617.316 435.647 627.095C429.707 631.985 423.803 637.419 418.872 643.081C413.956 648.726 409.921 654.695 407.837 660.659L411.613 661.979ZM463.992 608.969L464.116 609.184L467.58 607.184L467.456 606.969L463.992 608.969ZM542.726 582.546C535.555 581.186 527.063 582.076 518.497 584.06C509.899 586.051 501.058 589.187 493.114 592.464C485.164 595.744 478.074 599.184 472.973 601.802C470.422 603.111 468.365 604.217 466.943 604.997C466.232 605.387 465.68 605.695 465.305 605.907C465.117 606.013 464.973 606.094 464.875 606.15C464.827 606.178 464.789 606.199 464.764 606.214C464.751 606.221 464.742 606.227 464.735 606.231C464.732 606.233 464.729 606.234 464.727 606.235C464.726 606.236 464.725 606.236 464.725 606.236C464.724 606.237 464.724 606.237 465.724 607.969C466.724 609.701 466.724 609.701 466.724 609.701C466.724 609.701 466.724 609.701 466.725 609.7C466.726 609.7 466.728 609.699 466.731 609.697C466.736 609.694 466.744 609.689 466.755 609.683C466.778 609.67 466.812 609.65 466.858 609.624C466.949 609.572 467.087 609.494 467.269 609.391C467.632 609.187 468.17 608.886 468.867 608.504C470.26 607.74 472.284 606.651 474.8 605.36C479.833 602.777 486.819 599.388 494.64 596.162C502.467 592.932 511.089 589.882 519.4 587.957C527.743 586.024 535.604 585.267 541.981 586.476L542.726 582.546ZM605.047 641.062C606.691 639.923 606.691 639.923 606.69 639.922C606.69 639.922 606.689 639.921 606.689 639.92C606.688 639.918 606.686 639.915 606.683 639.912C606.678 639.905 606.672 639.895 606.662 639.882C606.644 639.856 606.618 639.817 606.583 639.767C606.512 639.667 606.409 639.52 606.273 639.328C606.002 638.944 605.602 638.383 605.084 637.669C604.048 636.24 602.541 634.197 600.648 631.731C596.865 626.801 591.532 620.168 585.341 613.367C579.156 606.573 572.079 599.574 564.807 593.935C557.571 588.324 549.964 583.919 542.726 582.546L541.981 586.476C548.293 587.673 555.297 591.622 562.356 597.096C569.379 602.542 576.283 609.359 582.383 616.06C588.478 622.755 593.738 629.296 597.475 634.166C599.343 636.6 600.828 638.613 601.845 640.016C602.353 640.718 602.745 641.266 603.008 641.638C603.139 641.824 603.239 641.966 603.305 642.061C603.338 642.108 603.363 642.143 603.379 642.167C603.387 642.179 603.393 642.187 603.397 642.193C603.399 642.196 603.401 642.198 603.402 642.199C603.402 642.199 603.402 642.2 603.402 642.2C603.403 642.2 603.402 642.2 605.047 641.062Z" fill="black"/>
<path d="M655.298 940.544C655.289 940.698 655.285 940.852 655.285 941.007C655.285 1208.26 692.672 1408.92 768.445 1541.92L775.396 1537.96L768.445 1541.92C771.291 1546.92 776.598 1550 782.347 1550H864.222C864.27 1550 864.318 1550 864.365 1550L864.652 1549.99C864.7 1549.99 864.747 1549.99 864.795 1549.99C870.323 1549.79 875.373 1546.75 878.124 1541.92L871.173 1537.96L878.124 1541.92C953.897 1408.92 991.285 1208.26 991.285 941.007C991.285 940.852 991.28 940.698 991.271 940.544C982.512 789.44 964.979 663.791 938.572 563.74C912.192 463.792 876.793 388.75 831.855 339.481L831.815 339.438L829.155 336.565C827.648 334.937 825.533 334.008 823.315 334C821.096 333.992 818.974 334.905 817.455 336.521C771.664 385.243 735.627 460.28 708.801 560.714C681.945 661.255 664.146 787.915 655.298 940.544Z" fill="#DFBEA0" stroke="black" stroke-width="16" stroke-linecap="round" stroke-linejoin="round"/>
<path d="M828.919 336.634L831.578 339.507C873.923 385.932 908.062 456.5 933.997 551.212" stroke="#FFE800" stroke-width="18"/>
<path fill-rule="evenodd" clip-rule="evenodd" d="M782.347 1542C779.472 1542 776.819 1540.46 775.396 1537.96C700.655 1406.77 663.285 1207.79 663.285 941.007C680.945 636.371 734.278 436.702 823.285 342L825.944 344.873C913.354 440.706 965.801 639.417 983.285 941.007C983.285 1207.79 945.914 1406.77 871.173 1537.96C869.798 1540.37 867.272 1541.9 864.509 1541.99L864.222 1542H782.347Z" fill="#DFBEA0"/>
<mask id="mask0_0_402" style="mask-type:luminance" maskUnits="userSpaceOnUse" x="663" y="342" width="321" height="1200">
<path fill-rule="evenodd" clip-rule="evenodd" d="M782.347 1542C779.472 1542 776.819 1540.46 775.396 1537.96C700.655 1406.77 663.285 1207.79 663.285 941.007C680.945 636.371 734.278 436.702 823.285 342L825.944 344.873C913.354 440.706 965.801 639.417 983.285 941.007C983.285 1207.79 945.914 1406.77 871.173 1537.96C869.798 1540.37 867.272 1541.9 864.509 1541.99L864.222 1542H782.347Z" fill="white"/>
</mask>
<g mask="url(#mask0_0_402)">
<rect x="803.285" y="305" width="40" height="1280" fill="#E6C7AB"/>
<rect x="699.285" y="305" width="40" height="1280" fill="#E6C7AB"/>
<rect x="907.285" y="305" width="40" height="1280" fill="#E6C7AB"/>
</g>
<path fill-rule="evenodd" clip-rule="evenodd" d="M695.207 748.913C695.624 746.244 697.368 744.064 699.858 743.014C718.095 735.325 794.205 704 823.785 704C853.365 704 929.474 735.325 947.711 743.014C950.201 744.064 951.945 746.243 952.362 748.913C955.712 770.335 970.285 872.066 970.285 1020.8C970.285 1167.39 948.519 1287.43 942.961 1315.69C942.234 1319.39 938.988 1322 935.217 1322H712.352C708.581 1322 705.336 1319.39 704.608 1315.69C699.05 1287.43 677.285 1167.39 677.285 1020.8C677.285 872.066 691.857 770.335 695.207 748.913Z" fill="#0A0A0A" fill-opacity="0.1"/>
<rect x="814.285" y="854" width="18" height="52" rx="9" fill="black"/>
<rect x="814.285" y="982" width="18" height="52" rx="9" fill="black"/>
<path d="M479 488.193C479 488.193 448.012 485.807 432.8 488.193C417.588 490.579 407.6 499.393 407.6 499.393" stroke="black" stroke-width="8" stroke-linecap="round" stroke-linejoin="round"/>
<path d="M473.4 520.393C473.4 520.393 457.161 526.148 448.2 527.393C439.239 528.638 423 527.393 423 527.393" stroke="black" stroke-width="12" stroke-linecap="round" stroke-linejoin="round"/>
<path d="M362.8 499.393C362.8 499.393 348.651 494.738 341.8 493.793C334.949 492.848 322.2 493.793 322.2 493.793" stroke="black" stroke-width="8" stroke-linecap="round" stroke-linejoin="round"/>
<path d="M362.8 530.193C362.8 530.193 355.867 532.158 348.8 531.593C341.733 531.028 327.8 527.393 327.8 527.393" stroke="black" stroke-width="12" stroke-linecap="round" stroke-linejoin="round"/>
<path d="M384 513C384 513 389 511 394 511C399 511 404 513 404 513" stroke="#F19A11" stroke-width="12" stroke-linecap="round" stroke-linejoin="round"/>
<circle cx="322" cy="511" r="64" fill="#F19A11"/>
<circle cx="466" cy="511" r="64" fill="#F19A11"/>
<path d="M519 511H635" stroke="black" stroke-width="12" stroke-linecap="round" stroke-linejoin="round"/>
<path d="M519 511H539" stroke="#F19A11" stroke-width="16" stroke-linecap="round" stroke-linejoin="round"/>
<circle cx="466" cy="511" r="56" fill="#343434"/>
<mask id="mask1_0_402" style="mask-type:luminance" maskUnits="userSpaceOnUse" x="410" y="455" width="112" height="112">
<circle cx="466" cy="511" r="56" fill="white"/>
</mask>
<g mask="url(#mask1_0_402)">
<circle cx="473" cy="529" r="56" fill="black"/>
</g>
<circle cx="322" cy="511" r="56" fill="#343434"/>
<mask id="mask2_0_402" style="mask-type:luminance" maskUnits="userSpaceOnUse" x="266" y="455" width="112" height="112">
<circle cx="322" cy="511" r="56" fill="white"/>
</mask>
<g mask="url(#mask2_0_402)">
<circle cx="329" cy="529" r="56" fill="black"/>
</g>
</g>
<defs>
<clipPath id="clip0_0_402">
<rect width="1080" height="1080" fill="white"/>
</clipPath>
</defs>
</svg>
