<svg width="1080" height="1080" viewBox="0 0 1080 1080" fill="none" xmlns="http://www.w3.org/2000/svg">
<g clip-path="url(#clip0_0_362)">
<rect width="1080" height="1080" fill="white"/>
<rect width="1080" height="1080" fill="#D6D5E0"/>
<path fill-rule="evenodd" clip-rule="evenodd" d="M0 294C0 294 298.691 337.977 503 397C707.309 456.023 1080 606 1080 606V1080H0V294Z" fill="#E2E1E8"/>
<path fill-rule="evenodd" clip-rule="evenodd" d="M0 494C0 494 208.072 484.756 287 494C398 507 467.454 569.996 729 653C828.062 684.438 1080 740 1080 740V1080H0V494Z" fill="#ECEBF2"/>
<path fill-rule="evenodd" clip-rule="evenodd" d="M0 700C0 700 186.743 735.626 266 760C500.99 832.267 655.044 897.854 730 910C880.357 934.363 1080 875 1080 875V1080H0V700Z" fill="white"/>
<path fill-rule="evenodd" clip-rule="evenodd" d="M697.207 573.496C688.516 625.043 660.104 669.891 620 700.015V784C620 828.183 584.183 864 540 864C495.817 864 460 828.183 460 784V735.999C368.71 717.468 300 636.758 300 540C300 429.543 389.543 340 500 340C580.464 340 649.829 387.516 681.567 456.02C713.98 456.851 740 483.387 740 516C740 543.157 721.958 566.099 697.207 573.496Z" fill="#FDD4BC"/>
<path d="M390.531 540.198L382.614 596.533L397.469 605.802" stroke="black" stroke-width="12" stroke-linecap="round" stroke-linejoin="round"/>
<path d="M667.272 531.556C667.272 531.556 671.515 521.657 678.586 514.586C685.657 507.515 695.556 503.272 695.556 503.272" stroke="black" stroke-width="12" stroke-linecap="round" stroke-linejoin="round"/>
<path fill-rule="evenodd" clip-rule="evenodd" d="M460 770.081C321.982 805.605 220 930.893 220 1080C220 1256.73 363.269 1400 540 1400C716.731 1400 860 1256.73 860 1080C860 930.893 758.018 805.605 620 770.081V784C620 828.183 584.183 864 540 864C495.817 864 460 828.183 460 784V770.081Z" fill="#FF3333"/>
<path d="M460 770.081H466C466 768.226 465.142 766.476 463.676 765.339C462.21 764.203 460.301 763.808 458.504 764.271L460 770.081ZM620 770.081L621.496 764.271C619.699 763.808 617.79 764.203 616.324 765.339C614.858 766.476 614 768.226 614 770.081H620ZM226 1080C226 933.697 326.064 810.75 461.496 775.892L458.504 764.271C317.9 800.46 214 928.089 214 1080H226ZM540 1394C366.583 1394 226 1253.42 226 1080H214C214 1260.04 359.955 1406 540 1406V1394ZM854 1080C854 1253.42 713.417 1394 540 1394V1406C720.045 1406 866 1260.04 866 1080H854ZM618.504 775.892C753.936 810.75 854 933.697 854 1080H866C866 928.089 762.1 800.46 621.496 764.271L618.504 775.892ZM614 770.081V784H626V770.081H614ZM614 784C614 824.869 580.869 858 540 858V870C587.496 870 626 831.496 626 784H614ZM540 858C499.131 858 466 824.869 466 784H454C454 831.496 492.504 870 540 870V858ZM466 784V770.081H454V784H466Z" fill="black"/>
<circle cx="540" cy="1045" r="72" fill="#CF2727" stroke="black" stroke-width="12" stroke-linecap="round" stroke-linejoin="round"/>
<circle cx="540" cy="1045" r="48" fill="#4AEBF1" stroke="black" stroke-width="12" stroke-linecap="round" stroke-linejoin="round"/>
<path d="M662 1078C662 1078 666.022 1029.05 695 970C723.978 910.951 768 862 768 862" stroke="black" stroke-width="12" stroke-linecap="round" stroke-linejoin="round"/>
<path d="M418 1078C418 1078 413.978 1029.05 385 970C356.022 910.951 312 862 312 862" stroke="black" stroke-width="12" stroke-linecap="round" stroke-linejoin="round"/>
<path d="M578 962C578 962 658.008 915.234 681.734 895.435C705.46 875.637 723 841 723 841" stroke="black" stroke-width="12" stroke-linecap="round" stroke-linejoin="round"/>
<circle cx="693" cy="886" r="12" fill="#FF3333" stroke="black" stroke-width="12" stroke-linecap="round" stroke-linejoin="round"/>
<path d="M502 962C502 962 421.992 915.234 398.266 895.435C374.54 875.637 357 841 357 841" stroke="black" stroke-width="12" stroke-linecap="round" stroke-linejoin="round"/>
<circle cx="12" cy="12" r="12" transform="matrix(-1 0 0 1 399 874)" fill="#FF3333" stroke="black" stroke-width="12" stroke-linecap="round" stroke-linejoin="round"/>
<path fill-rule="evenodd" clip-rule="evenodd" d="M628 759.623C628 759.623 656.182 752.029 727 779.963C797.818 807.897 862 935 862 935H807L715 861C715 861 698 834 680 830C662 826 618 830.435 618 830.435L628 759.623Z" fill="#FF3333" stroke="black" stroke-width="12" stroke-linecap="round" stroke-linejoin="round"/>
<path fill-rule="evenodd" clip-rule="evenodd" d="M452 759.623C452 759.623 423.818 752.029 353 779.963C282.182 807.897 218 935 218 935H273L365 861C365 861 382 834 400 830C418 826 462 830.435 462 830.435L452 759.623Z" fill="#FF3333" stroke="black" stroke-width="12" stroke-linecap="round" stroke-linejoin="round"/>
<ellipse cx="835.943" cy="1015" rx="93.9435" ry="92" fill="#CF2727" stroke="black" stroke-width="12" stroke-linecap="round" stroke-linejoin="round"/>
<circle cx="834" cy="1015" r="72" fill="#FF3333" stroke="black" stroke-width="12" stroke-linecap="round" stroke-linejoin="round"/>
<ellipse cx="244.057" cy="1015" rx="93.9435" ry="92" fill="#CF2727" stroke="black" stroke-width="12" stroke-linecap="round" stroke-linejoin="round"/>
<circle cx="246" cy="1015" r="72" fill="#FF3333" stroke="black" stroke-width="12" stroke-linecap="round" stroke-linejoin="round"/>
<path fill-rule="evenodd" clip-rule="evenodd" d="M514.317 338.652L491.358 317.78C502.502 323.744 509.704 331.553 514.317 338.652ZM664.052 455.194C672.177 460.055 680.07 465.267 687.708 470.808C685.987 466.141 684.097 461.556 682.045 457.06C685.458 457.902 688.573 458.896 691.358 459.784C700.517 462.706 706.105 464.489 707 456C711.451 413.787 672 422 672 422C672 422 696.309 364.087 680 340C663.69 315.914 601 317 601 317C601 317 606 301 593 286C580 271 555.119 286.053 555.119 286.053C555.119 286.053 518.671 231.212 484.796 237.683C469.162 240.67 448.618 257.76 431.027 275.299C407.401 270.296 367.169 269.241 328 303C267.276 355.336 271 410 271 410L284 456C284 456 263.356 515.103 271 532C274.892 540.603 288.042 542.52 300.013 542.328C300.004 541.553 300 540.777 300 540C300 515.678 304.342 492.37 312.292 470.808C365.02 432.556 429.876 410 500 410C504.125 410 508.232 410.078 512.32 410.233C509.066 439.413 509.1 474.25 522.183 497.119C548.418 542.976 576 532 576 532L601 606C601 606 608.648 491.081 620 479C636.349 461.601 651.312 455.942 664.052 455.194Z" fill="#543131"/>
<path d="M514.317 338.652L510.281 343.092C512.513 345.121 515.905 345.177 518.203 343.223C520.502 341.269 520.992 337.912 519.348 335.383L514.317 338.652ZM491.358 317.78L494.189 312.49C491.519 311.061 488.202 311.846 486.456 314.32C484.71 316.795 485.081 320.182 487.322 322.22L491.358 317.78ZM664.052 455.194L667.132 450.045C666.098 449.427 664.902 449.134 663.7 449.204L664.052 455.194ZM687.708 470.808L684.184 475.665C686.323 477.216 689.224 477.186 691.33 475.591C693.436 473.996 694.251 471.211 693.337 468.732L687.708 470.808ZM682.045 457.06L683.483 451.234C681.248 450.683 678.895 451.458 677.426 453.23C675.957 455.001 675.631 457.457 676.586 459.551L682.045 457.06ZM691.358 459.784L693.181 454.068V454.068L691.358 459.784ZM707 456L712.967 456.629L707 456ZM672 422L666.468 419.678C665.605 421.733 665.952 424.096 667.37 425.816C668.787 427.536 671.041 428.328 673.223 427.874L672 422ZM601 317L595.273 315.21C594.698 317.05 595.042 319.053 596.197 320.596C597.352 322.138 599.177 323.033 601.104 322.999L601 317ZM555.119 286.053L550.122 289.374C551.902 292.051 555.475 292.85 558.225 291.186L555.119 286.053ZM484.796 237.683L483.671 231.79L484.796 237.683ZM431.027 275.299L429.784 281.169C431.767 281.589 433.828 280.979 435.263 279.548L431.027 275.299ZM328 303L324.083 298.455L328 303ZM271 410L265.014 410.408C265.042 410.822 265.113 411.232 265.226 411.632L271 410ZM284 456L289.664 457.979C290.071 456.815 290.109 455.554 289.774 454.368L284 456ZM271 532L265.533 534.473H265.533L271 532ZM300.013 542.328L300.109 548.328C303.412 548.275 306.05 545.563 306.013 542.26L300.013 542.328ZM312.292 470.808L308.769 465.951C307.807 466.649 307.074 467.617 306.663 468.732L312.292 470.808ZM512.32 410.233L518.283 410.898C518.468 409.241 517.954 407.581 516.866 406.318C515.778 405.054 514.213 404.3 512.547 404.237L512.32 410.233ZM522.183 497.119L516.975 500.099L522.183 497.119ZM576 532L581.684 530.08C581.157 528.52 580.013 527.245 578.518 526.554C577.024 525.863 575.311 525.817 573.781 526.425L576 532ZM601 606L595.316 607.92C596.232 610.633 598.937 612.32 601.776 611.95C604.615 611.579 606.797 609.255 606.987 606.398L601 606ZM620 479L615.627 474.891L620 479ZM518.353 334.212L495.394 313.34L487.322 322.22L510.281 343.092L518.353 334.212ZM519.348 335.383C514.264 327.559 506.347 318.996 494.189 312.49L488.527 323.07C498.657 328.491 505.144 335.547 509.286 341.921L519.348 335.383ZM660.971 460.343C668.945 465.113 676.689 470.227 684.184 475.665L691.231 465.951C683.45 460.307 675.41 454.998 667.132 450.045L660.971 460.343ZM693.337 468.732C691.564 463.924 689.617 459.2 687.504 454.569L676.586 459.551C678.576 463.911 680.409 468.358 682.078 472.884L693.337 468.732ZM693.181 454.068C690.413 453.185 687.118 452.131 683.483 451.234L680.607 462.885C683.799 463.673 686.733 464.607 689.534 465.5L693.181 454.068ZM701.033 455.371C700.866 456.953 700.557 457.112 700.8 456.812C701.231 456.279 701.796 456.19 701.715 456.197C701.4 456.227 700.598 456.189 698.962 455.79C697.381 455.404 695.53 454.817 693.181 454.068L689.534 465.5C691.765 466.212 694.048 466.943 696.118 467.448C698.134 467.94 700.502 468.365 702.841 468.144C705.414 467.902 708.116 466.85 710.133 464.355C711.961 462.092 712.686 459.291 712.967 456.629L701.033 455.371ZM672 422C673.223 427.874 673.22 427.875 673.218 427.875C673.217 427.875 673.214 427.876 673.213 427.876C673.21 427.877 673.208 427.877 673.207 427.877C673.204 427.878 673.203 427.878 673.204 427.878C673.208 427.877 673.22 427.875 673.24 427.871C673.282 427.863 673.358 427.849 673.466 427.83C673.682 427.793 674.026 427.737 674.476 427.677C675.381 427.557 676.699 427.422 678.277 427.374C681.491 427.276 685.487 427.552 689.205 428.84C692.838 430.098 696.058 432.257 698.252 435.946C700.477 439.688 702.054 445.69 701.033 455.371L712.967 456.629C714.172 445.204 712.486 436.402 708.566 429.812C704.614 423.168 698.807 419.466 693.133 417.501C687.545 415.565 681.956 415.256 677.912 415.379C675.861 415.442 674.132 415.618 672.896 415.782C672.277 415.864 671.777 415.944 671.418 416.006C671.238 416.037 671.093 416.064 670.986 416.085C670.932 416.095 670.887 416.104 670.853 416.111C670.835 416.114 670.82 416.117 670.807 416.12C670.801 416.121 670.795 416.122 670.79 416.123C670.788 416.124 670.784 416.124 670.783 416.125C670.78 416.125 670.777 416.126 672 422ZM675.032 343.364C678.141 347.956 679.617 354.691 679.63 362.984C679.644 371.17 678.234 380.177 676.27 388.683C674.313 397.155 671.855 404.93 669.878 410.599C668.892 413.429 668.03 415.719 667.419 417.294C667.114 418.081 666.871 418.688 666.707 419.093C666.625 419.295 666.563 419.447 666.522 419.545C666.502 419.595 666.487 419.631 666.478 419.653C666.473 419.664 666.47 419.672 666.468 419.676C666.468 419.678 666.467 419.679 666.467 419.679C666.467 419.68 666.467 419.679 666.467 419.679C666.467 419.679 666.468 419.678 672 422C677.532 424.322 677.533 424.321 677.533 424.32C677.534 424.319 677.535 424.317 677.535 424.315C677.536 424.312 677.538 424.308 677.54 424.303C677.544 424.293 677.55 424.28 677.557 424.263C677.571 424.23 677.591 424.182 677.616 424.121C677.666 423.999 677.739 423.823 677.831 423.595C678.015 423.14 678.279 422.479 678.606 421.635C679.261 419.949 680.171 417.527 681.209 414.55C683.28 408.608 685.88 400.4 687.962 391.383C690.037 382.399 691.646 372.411 691.63 362.964C691.615 353.624 690.013 344.087 684.968 336.636L675.032 343.364ZM601 317C601.104 322.999 601.103 322.999 601.102 322.999C601.102 322.999 601.102 322.999 601.102 322.999C601.103 322.999 601.104 322.999 601.106 322.999C601.111 322.999 601.119 322.999 601.131 322.999C601.155 322.998 601.194 322.998 601.247 322.997C601.353 322.996 601.517 322.995 601.735 322.994C602.171 322.992 602.823 322.992 603.666 323C605.352 323.017 607.794 323.067 610.782 323.201C616.77 323.469 624.888 324.07 633.467 325.397C642.08 326.729 650.952 328.762 658.537 331.812C666.221 334.901 671.921 338.77 675.032 343.364L684.968 336.636C679.924 329.186 671.672 324.159 663.014 320.678C654.258 317.157 644.399 314.945 635.301 313.538C626.168 312.126 617.595 311.494 611.318 311.213C608.174 311.072 605.591 311.019 603.785 311.001C602.882 310.992 602.171 310.992 601.681 310.994C601.436 310.995 601.246 310.997 601.114 310.998C601.048 310.999 600.996 310.999 600.96 311C600.942 311 600.927 311 600.917 311.001C600.911 311.001 600.907 311.001 600.903 311.001C600.902 311.001 600.9 311.001 600.899 311.001C600.897 311.001 600.896 311.001 601 317ZM588.466 289.93C593.954 296.263 595.58 302.69 595.887 307.507C596.042 309.941 595.86 311.971 595.647 313.357C595.541 314.048 595.43 314.57 595.353 314.891C595.315 315.052 595.285 315.162 595.27 315.216C595.263 315.244 595.259 315.257 595.259 315.256C595.259 315.256 595.26 315.252 595.263 315.244C595.264 315.241 595.265 315.236 595.267 315.23C595.268 315.227 595.269 315.224 595.27 315.221C595.27 315.219 595.271 315.217 595.271 315.216C595.272 315.213 595.273 315.21 601 317C606.727 318.79 606.728 318.787 606.729 318.784C606.729 318.783 606.73 318.78 606.731 318.778C606.732 318.773 606.733 318.769 606.735 318.764C606.738 318.755 606.741 318.744 606.744 318.732C606.751 318.709 606.76 318.682 606.769 318.651C606.787 318.589 606.81 318.511 606.836 318.417C606.887 318.23 606.953 317.981 607.026 317.675C607.172 317.063 607.349 316.218 607.509 315.174C607.828 313.092 608.082 310.184 607.863 306.743C607.42 299.811 605.046 290.738 597.534 282.07L588.466 289.93ZM555.119 286.053C558.225 291.186 558.223 291.187 558.222 291.188C558.222 291.188 558.22 291.189 558.219 291.19C558.218 291.19 558.217 291.191 558.216 291.192C558.214 291.193 558.214 291.193 558.216 291.192C558.218 291.19 558.227 291.185 558.241 291.177C558.269 291.16 558.32 291.13 558.392 291.089C558.537 291.006 558.766 290.876 559.072 290.711C559.684 290.379 560.595 289.907 561.736 289.377C564.038 288.309 567.167 287.058 570.589 286.235C577.715 284.519 584.21 285.019 588.466 289.93L597.534 282.07C588.79 271.981 576.344 272.507 567.781 274.568C563.357 275.633 559.453 277.207 556.684 278.493C555.289 279.14 554.155 279.727 553.356 280.159C552.956 280.376 552.638 280.555 552.412 280.685C552.298 280.751 552.208 280.803 552.141 280.843C552.108 280.863 552.08 280.879 552.059 280.892C552.048 280.898 552.039 280.903 552.032 280.908C552.028 280.91 552.024 280.912 552.021 280.914C552.02 280.915 552.018 280.916 552.017 280.917C552.015 280.918 552.013 280.919 555.119 286.053ZM485.922 243.577C492.612 242.299 499.838 243.971 507.319 247.84C514.789 251.704 522.046 257.525 528.491 263.755C534.907 269.957 540.336 276.386 544.171 281.284C546.083 283.726 547.587 285.772 548.606 287.198C549.115 287.91 549.502 288.467 549.758 288.839C549.886 289.025 549.982 289.165 550.043 289.255C550.073 289.3 550.095 289.333 550.108 289.353C550.115 289.363 550.12 289.37 550.122 289.373C550.123 289.375 550.124 289.376 550.124 289.376C550.124 289.376 550.123 289.375 550.123 289.375C550.123 289.375 550.122 289.374 555.119 286.053C560.116 282.731 560.115 282.73 560.114 282.728C560.114 282.728 560.113 282.726 560.111 282.724C560.109 282.721 560.107 282.717 560.103 282.712C560.097 282.702 560.088 282.689 560.077 282.673C560.055 282.64 560.024 282.594 559.985 282.536C559.906 282.419 559.792 282.252 559.645 282.038C559.351 281.61 558.922 280.994 558.368 280.22C557.262 278.671 555.653 276.484 553.619 273.886C549.561 268.703 543.761 261.826 536.831 255.127C529.929 248.456 521.723 241.78 512.832 237.181C503.951 232.588 493.919 229.832 483.671 231.79L485.922 243.577ZM435.263 279.548C443.947 270.89 453.246 262.46 462.202 255.866C471.299 249.17 479.458 244.812 485.922 243.577L483.671 231.79C474.501 233.541 464.571 239.222 455.088 246.202C445.467 253.285 435.698 262.169 426.79 271.05L435.263 279.548ZM432.27 269.429C407.44 264.172 365.096 263.107 324.083 298.455L331.917 307.545C369.243 275.375 407.362 276.421 429.784 281.169L432.27 269.429ZM324.083 298.455C292.845 325.378 278.009 353.072 271.03 374.248C267.548 384.813 266.036 393.715 265.397 400.039C265.078 403.201 264.977 405.721 264.959 407.486C264.95 408.368 264.961 409.063 264.976 409.554C264.983 409.8 264.991 409.995 264.998 410.138C265.002 410.209 265.005 410.268 265.008 410.313C265.009 410.335 265.01 410.354 265.011 410.37C265.012 410.378 265.012 410.385 265.013 410.392C265.013 410.395 265.013 410.399 265.013 410.4C265.014 410.404 265.014 410.408 271 410C276.986 409.592 276.986 409.596 276.986 409.599C276.987 409.599 276.987 409.602 276.987 409.604C276.987 409.606 276.987 409.609 276.987 409.61C276.987 409.612 276.987 409.612 276.987 409.608C276.987 409.6 276.985 409.579 276.984 409.545C276.98 409.478 276.975 409.36 276.97 409.193C276.96 408.858 276.951 408.327 276.958 407.612C276.973 406.183 277.056 404.024 277.337 401.244C277.898 395.683 279.249 387.647 282.427 378.004C288.768 358.764 302.431 332.958 331.917 307.545L324.083 298.455ZM265.226 411.632L278.226 457.632L289.774 454.368L276.774 408.368L265.226 411.632ZM284 456C278.336 454.022 278.335 454.022 278.335 454.023C278.335 454.024 278.334 454.025 278.334 454.027C278.333 454.029 278.332 454.033 278.33 454.037C278.327 454.046 278.323 454.058 278.317 454.074C278.306 454.105 278.291 454.151 278.27 454.21C278.229 454.329 278.169 454.503 278.092 454.728C277.938 455.178 277.715 455.836 277.436 456.676C276.876 458.355 276.088 460.765 275.167 463.708C273.329 469.585 270.951 477.62 268.811 486.214C266.679 494.778 264.744 504.046 263.841 512.348C263.39 516.5 263.183 520.536 263.372 524.193C263.557 527.781 264.141 531.395 265.533 534.473L276.467 529.527C275.948 528.381 275.505 526.452 275.356 523.573C275.211 520.764 275.362 517.41 275.771 513.645C276.59 506.113 278.383 497.437 280.456 489.113C282.521 480.819 284.827 473.023 286.62 467.29C287.516 464.428 288.281 462.088 288.82 460.47C289.09 459.66 289.303 459.032 289.448 458.608C289.52 458.396 289.575 458.236 289.612 458.13C289.63 458.077 289.644 458.038 289.653 458.012C289.657 458 289.66 457.99 289.662 457.985C289.663 457.982 289.664 457.98 289.664 457.979C289.664 457.979 289.664 457.978 289.664 457.978C289.664 457.978 289.664 457.979 284 456ZM265.533 534.473C268.526 541.089 274.788 544.477 280.803 546.224C286.901 547.995 293.863 548.427 300.109 548.328L299.917 536.329C294.192 536.421 288.593 535.991 284.15 534.7C279.624 533.386 277.366 531.514 276.467 529.527L265.533 534.473ZM306.013 542.26C306.004 541.508 306 540.754 306 540H294C294 540.8 294.004 541.599 294.014 542.397L306.013 542.26ZM306 540C306 516.397 310.212 493.791 317.922 472.884L306.663 468.732C298.471 490.949 294 514.959 294 540H306ZM315.815 475.665C367.553 438.131 431.183 416 500 416V404C428.569 404 362.487 426.981 308.769 465.951L315.815 475.665ZM500 416C504.05 416 508.081 416.077 512.093 416.229L512.547 404.237C508.384 404.08 504.201 404 500 404V416ZM527.391 494.14C521.46 483.772 518.306 470.324 517.105 455.556C515.91 440.851 516.682 425.257 518.283 410.898L506.357 409.568C504.704 424.389 503.866 440.803 505.145 456.529C506.418 472.191 509.823 487.597 516.975 500.099L527.391 494.14ZM576 532C573.781 526.425 573.786 526.423 573.791 526.422C573.792 526.421 573.797 526.419 573.799 526.418C573.805 526.416 573.81 526.414 573.815 526.412C573.825 526.408 573.833 526.405 573.839 526.403C573.852 526.398 573.859 526.395 573.86 526.395C573.862 526.394 573.839 526.403 573.793 526.418C573.701 526.448 573.517 526.507 573.246 526.577C572.704 526.719 571.824 526.909 570.658 527.031C568.334 527.273 564.863 527.245 560.62 525.999C552.277 523.549 539.938 516.07 527.391 494.14L516.975 500.099C530.664 524.025 545.233 533.987 557.239 537.513C563.172 539.255 568.235 539.349 571.903 538.966C573.732 538.775 575.212 538.466 576.281 538.187C576.816 538.047 577.25 537.914 577.574 537.807C577.737 537.753 577.872 537.705 577.98 537.665C578.034 537.646 578.081 537.628 578.12 537.613C578.14 537.605 578.158 537.598 578.175 537.592C578.183 537.589 578.191 537.586 578.198 537.583C578.202 537.582 578.207 537.58 578.208 537.579C578.214 537.577 578.218 537.575 576 532ZM606.684 604.08L581.684 530.08L570.316 533.92L595.316 607.92L606.684 604.08ZM615.627 474.891C614.256 476.351 613.236 478.2 612.447 479.948C611.623 481.774 610.872 483.896 610.179 486.194C608.794 490.792 607.517 496.513 606.343 502.846C603.989 515.535 601.95 531.203 600.279 546.374C598.605 561.568 597.289 576.371 596.392 587.367C595.943 592.868 595.599 597.421 595.367 600.601C595.25 602.192 595.162 603.439 595.103 604.29C595.073 604.715 595.051 605.042 595.036 605.263C595.029 605.373 595.023 605.457 595.019 605.514C595.017 605.542 595.016 605.564 595.015 605.579C595.014 605.586 595.014 605.591 595.014 605.595C595.013 605.597 595.013 605.599 595.013 605.6C595.013 605.601 595.013 605.602 601 606C606.987 606.398 606.987 606.398 606.987 606.398C606.987 606.397 606.987 606.396 606.987 606.394C606.987 606.391 606.987 606.386 606.988 606.38C606.989 606.367 606.99 606.346 606.992 606.319C606.996 606.266 607.001 606.185 607.008 606.077C607.023 605.862 607.045 605.542 607.074 605.123C607.132 604.285 607.22 603.051 607.335 601.476C607.565 598.324 607.907 593.805 608.352 588.343C609.244 577.415 610.55 562.732 612.207 547.687C613.867 532.618 615.868 517.291 618.141 505.035C619.28 498.895 620.464 493.656 621.669 489.657C622.272 487.657 622.849 486.071 623.384 484.886C623.65 484.299 623.882 483.859 624.074 483.543C624.272 483.218 624.38 483.101 624.372 483.109L615.627 474.891ZM663.7 449.204C649.217 450.055 632.872 456.54 615.627 474.891L624.372 483.109C639.826 466.663 653.408 461.83 664.403 461.184L663.7 449.204Z" fill="#543131"/>
<path d="M539.801 630.33C539.801 630.33 512.688 634.437 491.08 646.913C469.471 659.388 453.199 680.33 453.199 680.33" stroke="black" stroke-width="12" stroke-linecap="round" stroke-linejoin="round"/>
<path fill-rule="evenodd" clip-rule="evenodd" d="M524.9 670.415C524.9 670.415 516.78 672.693 509.866 676.685C502.951 680.678 497.187 686.415 497.187 686.415L522 697.392L524.9 670.415Z" fill="black" stroke="black" stroke-width="4" stroke-linecap="round" stroke-linejoin="round"/>
<path fill-rule="evenodd" clip-rule="evenodd" d="M815 1186.53L913 1172.53C913 1172.53 941.486 1174.64 955 1172.53C968.514 1170.42 990 1160.53 990 1160.53C990 1160.53 971.314 1097.66 961 1065.53C950.686 1033.4 929 970.531 929 970.531L933 962.531C933 962.531 927.722 948.672 924 942.531C920.278 936.39 913 929.531 913 929.531C913 929.531 938.823 917.649 951 909.531C963.177 901.413 973 889.531 973 889.531C973 889.531 973.218 864.176 971 852.531C968.782 840.886 961 826.531 961 826.531L913 791.531C913 791.531 909.685 751.568 906 731.531C902.315 711.494 897 704.531 897 704.531C897 704.531 879.087 693.872 867 696.531C854.913 699.19 847 715.531 847 715.531C847 715.531 832 698.531 811 704.531C790 710.531 788 725.531 788 725.531C788 725.531 758 722.531 748 731.531C738 740.531 744 761.531 744 761.531C744 761.531 724.083 757.827 714 761.531C703.917 765.235 695 779.531 695 779.531L704 823.531C704 823.531 706.011 866.106 714 887.531C721.989 908.955 748 941.531 748 941.531C748 941.531 742.484 946.918 739 952.531C735.516 958.144 730 970.531 730 970.531L739 978.531C739 978.531 723.254 1040.5 718 1072.53C712.746 1104.56 708 1167.53 708 1167.53C708 1167.53 741.069 1182.99 761 1186.53C780.931 1190.07 815 1186.53 815 1186.53Z" fill="#FDD946" stroke="black" stroke-width="12" stroke-linecap="round" stroke-linejoin="round"/>
<circle cx="880" cy="792" r="18" fill="#AD4BFF" stroke="black" stroke-width="12" stroke-linecap="round" stroke-linejoin="round"/>
<circle cx="830" cy="789" r="18" fill="#38F6FF" stroke="black" stroke-width="12" stroke-linecap="round" stroke-linejoin="round"/>
<circle cx="783" cy="808" r="18" fill="#FF3939" stroke="black" stroke-width="12" stroke-linecap="round" stroke-linejoin="round"/>
<circle cx="736" cy="828" r="18" fill="#FF861D" stroke="black" stroke-width="12" stroke-linecap="round" stroke-linejoin="round"/>
<circle cx="954" cy="883" r="18" fill="#82FF42" stroke="black" stroke-width="12" stroke-linecap="round" stroke-linejoin="round"/>
<ellipse cx="824" cy="877.5" rx="41" ry="44.5" fill="#FFB500" stroke="black" stroke-width="12" stroke-linecap="round" stroke-linejoin="round"/>
<path d="M743 759L754 789" stroke="black" stroke-width="12" stroke-linecap="round" stroke-linejoin="round"/>
<path d="M784 727C784 727 793.304 738.162 797 745C800.696 751.838 804 764 804 764" stroke="black" stroke-width="12" stroke-linecap="round" stroke-linejoin="round"/>
<path d="M846 714C846 714 852.304 727.162 856 734C859.696 740.838 859 754 859 754" stroke="black" stroke-width="12" stroke-linecap="round" stroke-linejoin="round"/>
<path d="M913 795L911 846C911 846 886 876 888 899C890 922 913 928 913 928" stroke="black" stroke-width="12" stroke-linecap="round" stroke-linejoin="round"/>
<path d="M749 942C749 942 762.857 946.894 773 948C783.143 949.106 804 948 804 948" stroke="black" stroke-width="12" stroke-linecap="round" stroke-linejoin="round"/>
<path d="M905 925C905 925 893.546 933.383 886 935C878.454 936.617 861 938 861 938" stroke="black" stroke-width="12" stroke-linecap="round" stroke-linejoin="round"/>
<path d="M739 979L808 990L822 961L858 956L883 984L929 961" stroke="black" stroke-width="12" stroke-linecap="round" stroke-linejoin="round"/>
<path d="M728 1033L777 1039L783 1012C783 1012 774.045 1005.02 772 1000C769.955 994.98 772 985 772 985" stroke="black" stroke-width="12" stroke-linecap="round" stroke-linejoin="round"/>
<path d="M944 1017L918 1024L905 998C905 998 907 992 907 987C907 982 905 973 905 973" stroke="black" stroke-width="12" stroke-linecap="round" stroke-linejoin="round"/>
<path d="M811 1182L787 1151V1066L824 1027L827 961L848 958L851 1024L896 1050L925 1137L910 1169" stroke="black" stroke-width="12" stroke-linecap="round" stroke-linejoin="round"/>
<circle cx="454" cy="517" r="24" fill="black"/>
<path d="M424 493.143C424 493.143 439 480 454 480C469 480 484 493.143 484 493.143" stroke="black" stroke-width="12" stroke-linecap="round" stroke-linejoin="round"/>
<circle cx="346" cy="517" r="24" fill="black"/>
<path d="M316 493.143C316 493.143 331 480 346 480C361 480 376 493.143 376 493.143" stroke="black" stroke-width="12" stroke-linecap="round" stroke-linejoin="round"/>
<path fill-rule="evenodd" clip-rule="evenodd" d="M270 492C270 492 294.29 486 318 486C341.71 486 365 492 365 492C365 492 388 500 397 500C406 500 429 492 429 492C429 492 452.5 486 476 486C499.5 486 523 492 523 492L518.949 506.002L513.938 511.996L510.428 530.931C506.123 554.153 485.863 571 462.245 571C460.189 571 458.4 571 457 571C435.409 571 418.094 554.385 411.757 533.744C408.294 522.463 403.463 513 397 513C390.537 513 385.706 522.463 382.243 533.744C375.906 554.385 358.591 571 337 571C335.127 571 332.694 571 329.921 571C306.785 571 286.941 554.496 282.724 531.748L279.066 512.011L274.052 506.006L270 492Z" fill="black"/>
<ellipse cx="42" cy="32" rx="42" ry="32" transform="matrix(-1 0 0 1 375 498)" fill="#595959"/>
<ellipse cx="461" cy="530" rx="42" ry="32" fill="#595959"/>
<path d="M513 498H632L513 505" stroke="black" stroke-width="12" stroke-linecap="round" stroke-linejoin="round"/>
</g>
<defs>
<clipPath id="clip0_0_362">
<rect width="1080" height="1080" fill="white"/>
</clipPath>
</defs>
</svg>
